<svg xmlns="http://www.w3.org/2000/svg" viewBox="0 0 512 543.72"><defs><style>.cls-1{fill:#c8eeed;}.cls-2{fill:#e9fffe;}.cls-3{fill:#fff;}.cls-4{fill:#45c5c3;}</style></defs><title>10n</title><g id="Layer_2" data-name="Layer 2"><g id="Capa_1" data-name="Capa 1"><path class="cls-1" d="M136.35,0A129.74,129.74,0,1,1,6.61,129.74,129.78,129.78,0,0,1,136.35,0Z"/><path class="cls-2" d="M249.8,66.69a130.46,130.46,0,0,0-37.53-42l-2.79-.21a40.78,40.78,0,0,0-40.75,40.32c-.21,22.3,18,40.53,40.32,40.75A40.78,40.78,0,0,0,249.8,66.69Z"/><path class="cls-2" d="M88.53,57.9A32.52,32.52,0,0,0,48.86,80.85C44.35,98,54.65,116,71.8,120.52A32.41,32.41,0,1,0,88.53,57.9Z"/><path class="cls-2" d="M87,169a16,16,0,0,1-16.3,16.08c-9-.21-16.3-7.29-16.08-16.3a16.43,16.43,0,0,1,16.3-16.3A16.72,16.72,0,0,1,87,169Z"/><path class="cls-3" d="M398.22,96.28a113.65,113.65,0,0,0-33.69,5.08,92.33,92.33,0,0,0-176.78,8,63.81,63.81,0,0,0-97.59,75.14,70.82,70.82,0,0,0-19-2.9,71.11,71.11,0,0,0,0,142.22H398.22a113.78,113.78,0,0,0,0-227.56"/><path id="SVGCleanerId_0" data-name="SVGCleanerId 0" class="cls-4" d="M170.65,394.38,169,345.73,128.23,370a28,28,0,0,0-14.73,25.59A28.92,28.92,0,0,0,143,423.38a28.07,28.07,0,0,0,27.63-29"/><path class="cls-4" d="M142.51,500.49l-1.61-48.65-40.82,24.29a28,28,0,0,0-14.73,25.59,28.91,28.91,0,0,0,29.53,27.78,28.07,28.07,0,0,0,27.63-29"/><path id="SVGCleanerId_0-2" data-name="SVGCleanerId 0" class="cls-4" d="M71.4,437l-1.61-48.65L29,412.69a28,28,0,0,0-14.73,25.59A28.92,28.92,0,0,0,43.76,466,28.07,28.07,0,0,0,71.4,437"/><path class="cls-4" d="M327.4,394.38l-1.61-48.65L285,370a27.93,27.93,0,0,0-14.73,25.59,28.91,28.91,0,0,0,29.53,27.78,28.07,28.07,0,0,0,27.62-29"/><path id="SVGCleanerId_1" data-name="SVGCleanerId 1" class="cls-4" d="M241.76,451.27l-1.61-48.65-40.8,24.29a28,28,0,0,0-14.75,25.59,28.93,28.93,0,0,0,29.54,27.78,28.07,28.07,0,0,0,27.62-29"/><path class="cls-4" d="M313.17,514.72l-1.61-48.65-40.8,24.29A27.93,27.93,0,0,0,256,515.94a28.9,28.9,0,0,0,29.53,27.78,28.07,28.07,0,0,0,27.62-29"/><path id="SVGCleanerId_1-2" data-name="SVGCleanerId 1" class="cls-4" d="M412.43,437l-1.61-48.65L370,412.69a28,28,0,0,0-14.75,25.59A28.93,28.93,0,0,0,384.81,466a28.07,28.07,0,0,0,27.62-29"/></g></g></svg>