<svg xmlns="http://www.w3.org/2000/svg" viewBox="0 0 476.65 511.98"><defs><style>.cls-1{fill:#fbc35a;}.cls-2,.cls-3{fill:#6ff;}.cls-2{opacity:0.41;}.cls-3{opacity:0.84;}.cls-4{fill:#f6bb42;}.cls-5{fill:#ffce54;}</style></defs><title>50n</title><g id="Layer_2" data-name="Layer 2"><g id="Layer_1-2" data-name="Layer 1"><path class="cls-1" d="M220.66,373.32A117.55,117.55,0,1,1,338.22,255.77,117.68,117.68,0,0,1,220.66,373.32Z"/><path class="cls-1" d="M220.66,127.55A128.22,128.22,0,1,0,348.87,255.77,128.22,128.22,0,0,0,220.66,127.55Zm75.58,203.8a106.91,106.91,0,1,1,31.3-75.58A106.17,106.17,0,0,1,296.24,331.35Z"/><path class="cls-2" d="M10.67,258H160a10.67,10.67,0,1,0,0-21.34H10.67a10.67,10.67,0,1,0,0,21.34Z"/><path class="cls-3" d="M232,285.31H82.66a10.67,10.67,0,0,0,0,21.34H232a10.67,10.67,0,0,0,0-21.34Z"/><path class="cls-3" d="M276.66,374.65H127.33a10.67,10.67,0,0,0,0,21.34H276.66a10.67,10.67,0,0,0,0-21.34Z"/><path class="cls-2" d="M173.33,331.31h-160a10.67,10.67,0,0,0,0,21.34h160a10.67,10.67,0,0,0,0-21.34Z"/><path class="cls-2" d="M455.33,320.64h-160a10.67,10.67,0,0,0,0,21.34h160a10.67,10.67,0,0,0,0-21.34Z"/><path class="cls-2" d="M188,422.64H28A10.67,10.67,0,0,0,28,444H188a10.67,10.67,0,0,0,0-21.34Z"/><path class="cls-2" d="M448.67,414h-160a10.67,10.67,0,0,0,0,21.34h160a10.67,10.67,0,0,0,0-21.34Z"/><path class="cls-4" d="M220.66,405.31A10.66,10.66,0,0,0,210,416l0,85.33a10.67,10.67,0,1,0,21.34,0V416A10.68,10.68,0,0,0,220.66,405.31Z"/><path class="cls-4" d="M220.66,106.66h0A10.67,10.67,0,0,0,231.33,96V10.66A10.67,10.67,0,0,0,220.66,0h0A10.67,10.67,0,0,0,210,10.66V96A10.68,10.68,0,0,0,220.66,106.66Z"/><path class="cls-5" d="M326.25,361.58a10.67,10.67,0,0,0,0,15.08L386.59,437a10.66,10.66,0,1,0,15.08-15.08l-60.33-60.34A10.66,10.66,0,0,0,326.25,361.58Z"/><path class="cls-5" d="M115.07,150.4h0a10.65,10.65,0,0,0,0-15.08L54.73,75a10.66,10.66,0,0,0-15.08,0h0a10.66,10.66,0,0,0,0,15.08L100,150.4A10.66,10.66,0,0,0,115.07,150.4Z"/><path class="cls-4" d="M370,256a10.67,10.67,0,0,0,10.67,10.66H466a10.67,10.67,0,0,0,0-21.34H380.66A10.67,10.67,0,0,0,370,256Z"/><path class="cls-5" d="M326.25,150.39a10.68,10.68,0,0,0,15.09,0l60.33-60.33A10.66,10.66,0,0,0,386.59,75l-60.34,60.33A10.67,10.67,0,0,0,326.25,150.39Z"/></g></g></svg>