<svg xmlns="http://www.w3.org/2000/svg" xmlns:xlink="http://www.w3.org/1999/xlink" viewBox="0 0 277.98 148.05"><defs><style>.cls-1{fill:url(#linear-gradient);}.cls-2{fill:url(#linear-gradient-2);}</style><linearGradient id="linear-gradient" x1="83.5" y1="-7.28" x2="83.5" y2="99.21" gradientUnits="userSpaceOnUse"><stop offset="0" stop-color="#fff"/><stop offset="0.17" stop-color="#f5ffff"/><stop offset="0.46" stop-color="#dbffff"/><stop offset="0.82" stop-color="#b1ffff"/><stop offset="1" stop-color="#9ff"/></linearGradient><linearGradient id="linear-gradient-2" x1="157.99" y1="-4.75" x2="157.99" y2="148.27" gradientUnits="userSpaceOnUse"><stop offset="0" stop-color="#fff"/><stop offset="0.17" stop-color="#faffff"/><stop offset="0.39" stop-color="#ebffff"/><stop offset="0.62" stop-color="#d2ffff"/><stop offset="0.86" stop-color="#b0ffff"/><stop offset="1" stop-color="#9ff"/></linearGradient></defs><title>03d</title><g id="Layer_2" data-name="Layer 2"><g id="Layer_1-2" data-name="Layer 1"><g id="Layer_1-2-2" data-name="Layer 1-2-2"><path class="cls-1" d="M140.15,32A39.08,39.08,0,0,0,69.33,17.22a15.41,15.41,0,0,0-6.69-1.57A15.64,15.64,0,0,0,47,31.28h0v.13l-2.62-.13A28.68,28.68,0,0,0,15.7,60a28.25,28.25,0,0,0,.15,2.85,18.2,18.2,0,0,0,2.46,36.24H133a33.88,33.88,0,0,0,7.17-67Z"/></g><g id="Layer_1-2-2-2" data-name="Layer 1-2-2"><path class="cls-2" d="M239.4,51.75a56.16,56.16,0,0,0-101.78-21.3A22.14,22.14,0,0,0,128,28.2a22.47,22.47,0,0,0-22.48,22.46h0v.19l-3.76-.19a41.21,41.21,0,0,0-41.2,41.2,40.6,40.6,0,0,0,.21,4.1,26.15,26.15,0,0,0,3.54,52.08H229.1a48.68,48.68,0,0,0,10.3-96.3Z"/></g></g></g></svg>