<svg xmlns="http://www.w3.org/2000/svg" xmlns:xlink="http://www.w3.org/1999/xlink" viewBox="0 0 277.92 183.15"><defs><style>.cls-1{fill:url(#linear-gradient);}.cls-2{fill:url(#linear-gradient-2);}.cls-3{fill:#f7cf52;}</style><linearGradient id="linear-gradient" x1="83.43" y1="150" x2="83.43" y2="50.91" gradientTransform="matrix(1, 0, 0, -1, 0, 150)" gradientUnits="userSpaceOnUse"><stop offset="0" stop-color="#fff"/><stop offset="1" stop-color="#018786"/></linearGradient><linearGradient id="linear-gradient-2" x1="157.93" y1="154.75" x2="157.93" y2="1.73" xlink:href="#linear-gradient"/></defs><title>11n</title><g id="Layer_2" data-name="Layer 2"><g id="Layer_1-2" data-name="Layer 1"><g id="Layer_2-2" data-name="Layer 2"><g id="Layer_1-2-2" data-name="Layer 1-2"><g id="Layer_1-2-2-2" data-name="Layer 1-2-2"><path class="cls-1" d="M140.09,32A39.08,39.08,0,0,0,69.27,17.22a15.41,15.41,0,0,0-6.69-1.57A15.64,15.64,0,0,0,46.94,31.28h0v.13l-2.62-.13A28.68,28.68,0,0,0,15.64,60v0a28.25,28.25,0,0,0,.15,2.85,18.2,18.2,0,0,0,2.46,36.24H132.94a33.88,33.88,0,0,0,7.17-67Z"/></g><g id="Layer_1-2-2-2-2" data-name="Layer 1-2-2-2"><path class="cls-2" d="M239.34,51.75a56.16,56.16,0,0,0-101.78-21.3,22.14,22.14,0,0,0-9.62-2.25,22.47,22.47,0,0,0-22.48,22.46h0v.19l-3.76-.19a41.21,41.21,0,0,0-41.2,41.2,40.6,40.6,0,0,0,.21,4.1A26.15,26.15,0,0,0,64.25,148H229a48.68,48.68,0,0,0,10.3-96.3Z"/></g></g></g><path class="cls-3" d="M207.94,75.69l-16.16,27.63-8.9,15.22H202L148,183.15l20.43-54.72H148.61l8.44-25,9.36-27.73Zm22,.67"/></g></g></svg>