<?xml version="1.0" encoding="utf-8"?>
<!-- Generator: Adobe Illustrator 21.0.0, SVG Export Plug-In . SVG Version: 6.00 Build 0)  -->
<svg version="1.1" id="Layer_1" xmlns="http://www.w3.org/2000/svg" xmlns:xlink="http://www.w3.org/1999/xlink" x="0px" y="0px"
	 viewBox="0 0 240 187.8" style="enable-background:new 0 0 240 187.8;" xml:space="preserve">
<style type="text/css">
	.st0{fill:#C8EEED;}
	.st1{fill:#E9FFFE;}
	.st2{fill:#FFFFFF;}
</style>
<title>02n</title>
<g id="Layer_2">
	<g id="Layer_1-2">
		<path class="st0" d="M81.6,0c33.4,0,60.5,27.1,60.5,60.5S115,121,81.6,121S21.1,93.9,21.1,60.5S48.2,0,81.6,0
			C81.6,0,81.6,0,81.6,0z"/>
		<path class="st1" d="M134.5,31.1c-4.3-7.7-10.3-14.4-17.5-19.6l-1.3-0.1c-10.4,0-18.9,8.4-19,18.8s8.4,18.9,18.8,19
			C125.7,49.2,134,41.2,134.5,31.1z"/>
		<path class="st1" d="M111.8,79.4c0,6.3-5.1,11.3-11.3,11.4c-6.3,0-11.3-5.1-11.4-11.3c0-6.3,5.1-11.4,11.3-11.4c0,0,0,0,0,0
			C106.8,68.1,111.8,73.1,111.8,79.4z"/>
		<path class="st1" d="M59.3,27c-8.1-2.1-16.4,2.7-18.5,10.7s2.7,16.4,10.7,18.5c8.1,2.1,16.4-2.7,18.5-10.7
			C72.2,37.5,67.4,29.2,59.3,27z"/>
		<path class="st1" d="M58.6,78.8c0,4.2-3.4,7.6-7.6,7.5s-7.6-3.4-7.5-7.6c0-4.2,3.4-7.5,7.6-7.6C55.2,71.3,58.6,74.6,58.6,78.8
			C58.6,78.8,58.6,78.8,58.6,78.8z"/>
		<g id="Layer_1-2-2">
			<path class="st2" d="M201.4,91.5C195.8,61,166.5,40.8,136,46.4c-14.8,2.7-28,11.3-36.4,23.8c-3-1.5-6.3-2.2-9.6-2.3
				c-12.4,0-22.5,10.1-22.5,22.5c0,0,0,0,0,0l0,0v0.2l-3.8-0.2c-22.8,0-41.2,18.4-41.2,41.2c0,1.4,0.1,2.7,0.2,4.1
				c-14.3,1.9-24.4,15-22.5,29.3c1.7,13.1,12.9,22.8,26.1,22.8h164.8c26.9,0.1,48.8-21.6,48.9-48.5C240.1,116.3,224,96.3,201.4,91.5
				z"/>
		</g>
	</g>
</g>
</svg>
