<?xml version="1.0" encoding="utf-8"?>
<!-- Generator: Adobe Illustrator 21.0.0, SVG Export Plug-In . SVG Version: 6.00 Build 0)  -->
<svg version="1.1" id="Layer_1" xmlns="http://www.w3.org/2000/svg" xmlns:xlink="http://www.w3.org/1999/xlink" x="0px" y="0px"
	 viewBox="0 0 224 224" style="enable-background:new 0 0 224 224;" xml:space="preserve">
<style type="text/css">
	.st0{fill:#C8EEED;}
	.st1{fill:#E9FFFE;}
</style>
<title>01n</title>
<g id="Layer_2">
	<g id="Layer_1-2">
		<path class="st0" d="M112,0c61.9,0,112,50.1,112,112s-50.1,112-112,112S0,173.9,0,112S50.1,0,112,0z"/>
		<path class="st1" d="M209.9,57.6c-8-14.3-19.1-26.7-32.4-36.3L175,21c-19.3-0.1-35.1,15.6-35.1,34.9
			c-0.1,19.3,15.6,35.1,34.9,35.1C193.5,91.1,209,76.3,209.9,57.6L209.9,57.6z"/>
		<path class="st1" d="M168,147c0,11.6-9.4,21-21,21s-21-9.4-21-21s9.4-21,21-21S168,135.4,168,147z"/>
		<path class="st1" d="M77,50c-14.9-4-30.3,4.9-34.2,19.9s4.9,30.3,19.9,34.2c14.9,4,30.2-4.9,34.2-19.8C100.8,69.3,91.9,54,77,50z"
			/>
		<path class="st1" d="M91,161.1c0,7.7-6.3,14-14,14s-14-6.3-14-14s6.3-14,14-14S91,153.3,91,161.1z"/>
	</g>
</g>
</svg>
