<svg xmlns="http://www.w3.org/2000/svg" viewBox="0 0 512 536.22"><defs><style>.cls-1{fill:#fbc35a;}.cls-2{fill:#fff;}.cls-3{fill:#45c5c3;}</style></defs><title>10d</title><g id="Layer_2" data-name="Layer 2"><g id="Capa_1" data-name="Capa 1"><path class="cls-1" d="M132.91,0A128.88,128.88,0,1,1,4.09,129s0,0,0-.07A128.88,128.88,0,0,1,132.91,0Z"/><path class="cls-2" d="M398.22,88.78a113.65,113.65,0,0,0-33.69,5.08,92.33,92.33,0,0,0-176.78,8A63.81,63.81,0,0,0,90.15,177a70.82,70.82,0,0,0-19-2.9,71.11,71.11,0,0,0,0,142.22H398.22a113.78,113.78,0,0,0,0-227.56"/><path id="SVGCleanerId_0" data-name="SVGCleanerId 0" class="cls-3" d="M170.65,386.88,169,338.23l-40.82,24.29a28,28,0,0,0-14.73,25.59A28.92,28.92,0,0,0,143,415.88a28.07,28.07,0,0,0,27.63-29"/><path class="cls-3" d="M142.51,493l-1.61-48.65-40.82,24.29a28,28,0,0,0-14.73,25.59A28.91,28.91,0,0,0,114.87,522a28.07,28.07,0,0,0,27.63-29"/><path id="SVGCleanerId_0-2" data-name="SVGCleanerId 0" class="cls-3" d="M71.4,429.55l-1.61-48.65L29,405.19a28,28,0,0,0-14.73,25.59,28.92,28.92,0,0,0,29.53,27.78,28.07,28.07,0,0,0,27.63-29"/><path class="cls-3" d="M327.4,386.88l-1.61-48.65L285,362.52a27.93,27.93,0,0,0-14.73,25.59,28.91,28.91,0,0,0,29.53,27.78,28.07,28.07,0,0,0,27.62-29"/><path id="SVGCleanerId_1" data-name="SVGCleanerId 1" class="cls-3" d="M241.76,443.77l-1.61-48.65-40.8,24.29A28,28,0,0,0,184.6,445a28.93,28.93,0,0,0,29.54,27.78,28.07,28.07,0,0,0,27.62-29"/><path class="cls-3" d="M313.17,507.22l-1.61-48.65-40.8,24.29A27.93,27.93,0,0,0,256,508.44a28.9,28.9,0,0,0,29.53,27.78,28.07,28.07,0,0,0,27.62-29"/><path id="SVGCleanerId_1-2" data-name="SVGCleanerId 1" class="cls-3" d="M412.43,429.55l-1.61-48.65L370,405.19a28,28,0,0,0-14.75,25.59,28.93,28.93,0,0,0,29.54,27.78,28.07,28.07,0,0,0,27.62-29"/></g></g></svg>