<svg xmlns="http://www.w3.org/2000/svg" viewBox="0 0 240.03 157.31"><defs><style>.cls-1{fill:#fbc35a;}.cls-2{fill:#fff;}</style></defs><title>02d</title><g id="Layer_2" data-name="Layer 2"><g id="Layer_1-2" data-name="Layer 1"><g id="Layer_1-2-2" data-name="Layer 1-2"><path class="cls-1" d="M60,0A52.44,52.44,0,1,1,7.59,52.44,52.44,52.44,0,0,1,60,0Z"/><path class="cls-2" d="M201.4,61A56.16,56.16,0,0,0,99.62,39.7,22.14,22.14,0,0,0,90,37.45,22.47,22.47,0,0,0,67.52,59.92h0v.19l-3.76-.19a41.21,41.21,0,0,0-41.2,41.2,40.6,40.6,0,0,0,.21,4.1,26.15,26.15,0,0,0,3.54,52.08H191.1A48.68,48.68,0,0,0,201.4,61Z"/></g></g></g></svg>