<?xml version="1.0" encoding="utf-8"?>
<!-- Generator: Adobe Illustrator 21.0.0, SVG Export Plug-In . SVG Version: 6.00 Build 0)  -->
<svg version="1.1" id="Layer_1" xmlns="http://www.w3.org/2000/svg" xmlns:xlink="http://www.w3.org/1999/xlink" x="0px" y="0px"
	 viewBox="0 0 278 148.1" style="enable-background:new 0 0 278 148.1;" xml:space="preserve">
<style type="text/css">
	.st0{fill:url(#SVGID_1_);}
	.st1{fill:url(#SVGID_2_);}
</style>
<title>04d</title>
<g id="Layer_2">
	<g id="Layer_1-2">
		<g id="Layer_1-2-2">
			
				<linearGradient id="SVGID_1_" gradientUnits="userSpaceOnUse" x1="83.4848" y1="149.9981" x2="83.4848" y2="50.9099" gradientTransform="matrix(1 0 0 -1 0 150)">
				<stop  offset="0" style="stop-color:#FFFFFF"/>
				<stop  offset="1" style="stop-color:#016586"/>
			</linearGradient>
			<path class="st0" d="M140.1,32c-3.9-21.2-24.3-35.3-45.5-31.3C84.3,2.6,75.2,8.5,69.3,17.2c-2.1-1-4.4-1.6-6.7-1.6
				c-8.6,0-15.6,7-15.6,15.6l0,0v0.1l-2.6-0.1c-15.8,0-28.7,12.8-28.7,28.7c0,0,0,0,0,0c0,1,0.1,1.9,0.1,2.8
				c-10,1.3-17,10.5-15.6,20.4c1.2,9.1,9,15.8,18.1,15.8H133c18.7,0,33.9-15.1,33.9-33.8C166.9,49.3,155.8,35.5,140.1,32L140.1,32z"
				/>
		</g>
		<g id="Layer_1-2-2-2">
			
				<linearGradient id="SVGID_2_" gradientUnits="userSpaceOnUse" x1="157.9884" y1="154.75" x2="157.9884" y2="1.73" gradientTransform="matrix(1 0 0 -1 0 150)">
				<stop  offset="0" style="stop-color:#FFFFFF"/>
				<stop  offset="1" style="stop-color:#016586"/>
			</linearGradient>
			<path class="st1" d="M239.4,51.8C233.8,21.2,204.5,1,174,6.6c-14.8,2.7-28,11.3-36.4,23.8c-3-1.5-6.3-2.2-9.6-2.3
				c-12.4,0-22.5,10.1-22.5,22.5l0,0l0,0v0.2l-3.8-0.2c-22.8,0-41.2,18.4-41.2,41.2c0,1.4,0.1,2.7,0.2,4.1
				c-14.3,1.9-24.4,15-22.5,29.3c1.7,13.1,12.9,22.8,26.1,22.8h164.8c26.9,0.1,48.8-21.6,48.9-48.5C278.1,76.5,262,56.5,239.4,51.8
				L239.4,51.8z"/>
		</g>
	</g>
</g>
</svg>
