<svg xmlns="http://www.w3.org/2000/svg" xmlns:xlink="http://www.w3.org/1999/xlink" viewBox="0 0 512 504.33"><defs><style>.cls-1{fill:none;}.cls-2{clip-path:url(#clip-path);}.cls-3{fill:#fff;}.cls-4{fill:#018786;}</style><clipPath id="clip-path"><rect class="cls-1" width="512" height="512"/></clipPath></defs><title>09n</title><g id="Layer_2" data-name="Layer 2"><g id="Capa_1" data-name="Capa 1"><g class="cls-2"><path class="cls-3" d="M398.22,56.89A113.65,113.65,0,0,0,364.53,62a92.33,92.33,0,0,0-176.78,8,63.81,63.81,0,0,0-97.59,75.14,70.82,70.82,0,0,0-19-2.9,71.11,71.11,0,1,0,0,142.22H398.22a113.78,113.78,0,0,0,0-227.56"/><path id="SVGCleanerId_0" data-name="SVGCleanerId 0" class="cls-4" d="M170.65,355,169,306.33l-40.82,24.29a28,28,0,0,0-14.73,25.59A28.92,28.92,0,0,0,143,384a28.07,28.07,0,0,0,27.63-29"/><path class="cls-4" d="M142.51,461.1l-1.61-48.65-40.82,24.29a28,28,0,0,0-14.73,25.59,28.91,28.91,0,0,0,29.53,27.78,28.07,28.07,0,0,0,27.63-29"/><path id="SVGCleanerId_0-2" data-name="SVGCleanerId 0" class="cls-4" d="M71.4,397.65,69.79,349,29,373.29a28,28,0,0,0-14.73,25.59,28.92,28.92,0,0,0,29.53,27.78,28.07,28.07,0,0,0,27.63-29"/><path class="cls-4" d="M327.4,355l-1.61-48.65L285,330.62a27.93,27.93,0,0,0-14.73,25.59A28.91,28.91,0,0,0,299.78,384a28.07,28.07,0,0,0,27.62-29"/><path id="SVGCleanerId_1" data-name="SVGCleanerId 1" class="cls-4" d="M241.76,411.88l-1.61-48.65-40.8,24.29A28,28,0,0,0,184.6,413.1a28.93,28.93,0,0,0,29.54,27.78,28.07,28.07,0,0,0,27.62-29"/><path class="cls-4" d="M313.17,475.32l-1.61-48.65L270.76,451A27.93,27.93,0,0,0,256,476.54a28.9,28.9,0,0,0,29.53,27.78,28.07,28.07,0,0,0,27.62-29"/><path id="SVGCleanerId_1-2" data-name="SVGCleanerId 1" class="cls-4" d="M412.43,397.65,410.82,349,370,373.29a28,28,0,0,0-14.75,25.59,28.93,28.93,0,0,0,29.54,27.78,28.07,28.07,0,0,0,27.62-29"/></g></g></g></svg>