<svg xmlns="http://www.w3.org/2000/svg" viewBox="0 0 511.98 511.98"><defs><style>.cls-1{fill:#fbc35a;}</style></defs><title>01d</title><g id="Layer_2" data-name="Layer 2"><g id="Layer_1-2" data-name="Layer 1"><path class="cls-1" d="M256,85.33a10.66,10.66,0,0,1-10.66-10.67v-64a10.66,10.66,0,1,1,21.33,0v64A10.67,10.67,0,0,1,256,85.33Z"/><path class="cls-1" d="M256,512h0a10.67,10.67,0,0,1-10.66-10.66v-64A10.68,10.68,0,0,1,256,426.64h0a10.67,10.67,0,0,1,10.66,10.69v64A10.66,10.66,0,0,1,256,512Z"/><path class="cls-1" d="M135.32,135.32a10.66,10.66,0,0,1-15.08,0L75,90.06A10.67,10.67,0,0,1,90.08,75l45.25,45.25A10.66,10.66,0,0,1,135.32,135.32Z"/><path class="cls-1" d="M437,437h0a10.67,10.67,0,0,1-15.09,0l-45.25-45.25a10.65,10.65,0,0,1,0-15.08h0a10.67,10.67,0,0,1,15.09,0L437,421.92A10.68,10.68,0,0,1,437,437Z"/><path class="cls-1" d="M85.34,256a10.67,10.67,0,0,1-10.67,10.66h-64a10.66,10.66,0,1,1,0-21.33h64A10.67,10.67,0,0,1,85.34,256Z"/><path class="cls-1" d="M512,256h0a10.66,10.66,0,0,1-10.66,10.66h-64A10.67,10.67,0,0,1,426.66,256h0a10.67,10.67,0,0,1,10.67-10.66h64A10.66,10.66,0,0,1,512,256Z"/><path class="cls-1" d="M135.32,376.68a10.65,10.65,0,0,1,0,15.08L90.08,437A10.67,10.67,0,1,1,75,421.92l45.26-45.25A10.65,10.65,0,0,1,135.32,376.68Z"/><path class="cls-1" d="M437,75h0a10.69,10.69,0,0,1,0,15.08l-45.27,45.26a10.66,10.66,0,0,1-15.08,0h0a10.66,10.66,0,0,1,0-15.09L421.92,75A10.68,10.68,0,0,1,437,75Z"/><path class="cls-1" d="M256,394.64c-76.45,0-138.65-62.19-138.65-138.65S179.54,117.33,256,117.33,394.66,179.53,394.66,256,332.46,394.64,256,394.64Z"/><path class="cls-1" d="M256,106.66A149.33,149.33,0,1,0,405.33,256,149.33,149.33,0,0,0,256,106.66Zm90.51,239.83A128,128,0,1,1,384,256,127.1,127.1,0,0,1,346.51,346.49Z"/></g></g></svg>