<svg xmlns="http://www.w3.org/2000/svg" viewBox="0 0 239.71 187.27"><defs><style>.cls-1{fill:#fcfcfc;}.cls-2{fill:#6ff;}</style></defs><title>13d_1</title><g id="Layer_2" data-name="Layer 2"><g id="Layer_1-2" data-name="Layer 1"><path class="cls-1" d="M201.5,45.7C196.26,20.23,173.79,0,146.07,0A55.16,55.16,0,0,0,99.63,24.72a20.71,20.71,0,0,0-9.74-2.25A22.07,22.07,0,0,0,67.42,44.95H63.67a41.56,41.56,0,0,0-41.2,41.2V89.9C9.74,91.39,0,102.63,0,116.11a26.54,26.54,0,0,0,26.22,26.22H191a48.6,48.6,0,0,0,48.69-48.69c0-23.22-16.48-42.7-38.21-47.94Zm0,0"/><path class="cls-2" d="M101.4,123.35h27.72l-18-18a7.41,7.41,0,1,1,10.49-10.48l18,18v-27a7.49,7.49,0,0,1,15,0v27l18-18a7.42,7.42,0,1,1,10.49,10.48l-18.73,18h27a7.49,7.49,0,0,1,0,15h-27l18,18a7.41,7.41,0,0,1-10.49,10.48l-18-18.73v27.72a7.49,7.49,0,0,1-15,0v-27l-18,18a7.41,7.41,0,0,1-10.48-10.48l18-18h-27a7.49,7.49,0,0,1,0-15Zm44.95,15a7.49,7.49,0,1,0-7.49-7.49,7.08,7.08,0,0,0,7.49,7.49Zm0,0"/><path class="cls-2" d="M30.2,152.94H46.08l-10.3-10.3a4.25,4.25,0,1,1,6-6l10.3,10.3V131.47a4.29,4.29,0,0,1,8.59,0v15.45L71,136.63a4.25,4.25,0,1,1,6,6l-10.73,10.3H81.71a4.29,4.29,0,0,1,0,8.58H66.26l10.3,10.3a4.25,4.25,0,0,1-6,6L60.25,167.1V183a4.29,4.29,0,0,1-8.58,0V167.53l-10.3,10.3a4.25,4.25,0,0,1-6-6l10.3-10.3H30.2a4.29,4.29,0,0,1,0-8.58ZM56,161.52a4.29,4.29,0,1,0-4.29-4.29A4.06,4.06,0,0,0,56,161.52Zm0,0"/></g></g></svg>