<svg xmlns="http://www.w3.org/2000/svg" viewBox="854 624.304 56.5 65.84"><defs><style>.a{fill:#fff;}</style></defs><g transform="translate(828.526 624.304)"><path class="a" d="M226.059,26.654,217.345,1.839a2.75,2.75,0,0,0-5.189,0l-8.714,24.815a11.986,11.986,0,1,0,22.617,0Zm-6.017,7.721a6.486,6.486,0,0,1-11.412-5.9l6.12-17.427,6.12,17.427A6.412,6.412,0,0,1,220.043,34.375Z" transform="translate(-144.778)"/><path class="a" d="M110.583,162.672a2.75,2.75,0,0,0-5.189,0L98.149,183.3a10.429,10.429,0,1,0,19.679,0Zm1.427,26.938a4.929,4.929,0,0,1-8.673-4.483l4.651-13.244,4.651,13.244A4.871,4.871,0,0,1,112.011,189.61Z" transform="translate(-58.873 -131.348)"/><path class="a" d="M40.733,47.333a8.417,8.417,0,0,0,1.073-7.644L36.471,24.5a2.75,2.75,0,0,0-5.189,0L25.947,39.689a8.4,8.4,0,0,0,14.786,7.644Zm-4.487-3.18a2.9,2.9,0,0,1-5.11-2.642l2.741-7.8,2.741,7.8A2.871,2.871,0,0,1,36.246,44.153Z" transform="translate(0 -18.504)"/></g></svg>