<svg xmlns="http://www.w3.org/2000/svg" viewBox="-189 20.355 36.01 35.645"><defs><style>.a{fill:#fbc35a;}</style></defs><g transform="translate(-189.001 15.618)"><path class="a" d="M2.365,17.748a8.767,8.767,0,0,0,.784,1.862L2.2,20.8a.98.98,0,0,0,.073,1.3l1.63,1.63a.975.975,0,0,0,1.3.073l1.186-.939a8.616,8.616,0,0,0,1.935.819L8.5,25.211a.977.977,0,0,0,.97.865h2.306a.977.977,0,0,0,.97-.865l.17-1.472a8.716,8.716,0,0,0,2.074-.838l1.147.908a.98.98,0,0,0,1.3-.073l1.63-1.63a.975.975,0,0,0,.073-1.3l-.892-1.132a8.513,8.513,0,0,0,.854-2.04l1.375-.158a.977.977,0,0,0,.865-.97V14.2a.977.977,0,0,0-.865-.97l-1.356-.158a8.569,8.569,0,0,0-.819-2.017L19.139,10a.98.98,0,0,0-.073-1.3L17.439,7.078A.975.975,0,0,0,16.141,7l-1.024.811A8.6,8.6,0,0,0,13,6.927L12.842,5.6a.977.977,0,0,0-.97-.865H9.566A.977.977,0,0,0,8.6,5.6L8.442,6.927a8.562,8.562,0,0,0-2.175.919L5.2,7a.98.98,0,0,0-1.3.073l-1.63,1.63a.975.975,0,0,0-.073,1.3l.889,1.124a8.4,8.4,0,0,0-.8,2.036l-1.422.162A.977.977,0,0,0,0,14.3V16.6a.977.977,0,0,0,.865.97Zm8.356-6.239a3.813,3.813,0,1,1-3.813,3.813A3.818,3.818,0,0,1,10.721,11.509Z" transform="translate(0)"/><path class="a" d="M492.978,290.4l-1.217-1.028a.962.962,0,0,0-1.283.035l-.672.63a6.947,6.947,0,0,0-1.792-.579l-.189-.927a.972.972,0,0,0-1.028-.773l-1.588.135a.967.967,0,0,0-.885.931l-.031.943a6.966,6.966,0,0,0-1.711.9l-.8-.533a.965.965,0,0,0-1.271.182l-1.028,1.225a.963.963,0,0,0,.035,1.283l.7.749a7.2,7.2,0,0,0-.518,1.715l-1,.2a.971.971,0,0,0-.773,1.028l.135,1.588a.967.967,0,0,0,.931.885l1.086.035a7.093,7.093,0,0,0,.769,1.468l-.606.916a.965.965,0,0,0,.182,1.271l1.217,1.028a.963.963,0,0,0,1.283-.035l.8-.746a6.975,6.975,0,0,0,1.634.533l.22,1.089a.971.971,0,0,0,1.028.773l1.588-.135a.967.967,0,0,0,.885-.931l.035-1.066a7.14,7.14,0,0,0,1.634-.827l.877.579a.965.965,0,0,0,1.271-.182l1.028-1.217a.963.963,0,0,0-.035-1.283l-.707-.749a6.956,6.956,0,0,0,.556-1.723l.966-.2a.971.971,0,0,0,.773-1.028l-.135-1.588a.967.967,0,0,0-.931-.885l-.97-.031a7.015,7.015,0,0,0-.807-1.592l.529-.8A.96.96,0,0,0,492.978,290.4Zm-5.984,9.179a3.121,3.121,0,1,1,2.847-3.372A3.121,3.121,0,0,1,486.994,299.583Z" transform="translate(-459.458 -272.089)"/><path class="a" d="M183.174,564.362a.965.965,0,0,0-.865.95l-.012.977a.963.963,0,0,0,.842.97l.719.093a5.574,5.574,0,0,0,.51,1.248l-.464.572a.963.963,0,0,0,.058,1.283l.684.7a.964.964,0,0,0,1.283.089l.576-.444a5.64,5.64,0,0,0,1.283.56l.077.742a.965.965,0,0,0,.95.865l.977.012a.963.963,0,0,0,.97-.842l.089-.7a5.8,5.8,0,0,0,1.391-.541l.541.437a.963.963,0,0,0,1.283-.058l.7-.684a.965.965,0,0,0,.089-1.283l-.413-.537a5.6,5.6,0,0,0,.587-1.352l.641-.066a.965.965,0,0,0,.865-.95l.012-.977a.963.963,0,0,0-.842-.97l-.626-.081a5.819,5.819,0,0,0-.529-1.352l.39-.479a.963.963,0,0,0-.058-1.283l-.684-.7a.964.964,0,0,0-1.283-.089l-.467.359a5.684,5.684,0,0,0-1.406-.61l-.062-.606a.965.965,0,0,0-.95-.865l-.977-.012a.963.963,0,0,0-.97.842l-.077.6a5.835,5.835,0,0,0-1.456.595l-.483-.394a.963.963,0,0,0-1.283.058l-.7.688a.964.964,0,0,0-.089,1.282l.413.533a5.654,5.654,0,0,0-.552,1.352Zm6.308-1.1a2.542,2.542,0,1,1-2.573,2.511A2.544,2.544,0,0,1,189.482,563.258Z" transform="translate(-175.254 -532.596)"/></g></svg>