<svg xmlns="http://www.w3.org/2000/svg" viewBox="1110 605.6 88.499 82.599"><defs><style>.a{fill:#fff;}</style></defs><g transform="translate(1110 585.2)"><g transform="translate(0 20.4)"><g transform="translate(0 0)"><path class="a" d="M79.649,67.6c-2.269-16.641-17.417-29.5-35.4-29.5S11.118,50.959,8.85,67.6Zm0-22.379,4.171-4.171a2.95,2.95,0,0,0-4.171-4.171L75.478,41.05a2.95,2.95,0,1,0,4.171,4.171Zm-70.8,0a2.949,2.949,0,0,0,4.171-4.171L8.85,36.879A2.95,2.95,0,0,0,4.679,41.05ZM44.25,32.2a2.951,2.951,0,0,0,2.95-2.95v-5.9a2.95,2.95,0,0,0-5.9,0v5.9A2.951,2.951,0,0,0,44.25,32.2Zm41.3,41.3H2.95a2.95,2.95,0,1,0,0,5.9h82.6a2.95,2.95,0,1,0,0-5.9ZM82.6,85.3H5.9a2.95,2.95,0,1,0,0,5.9H82.6a2.95,2.95,0,0,0,0-5.9Zm-8.85,11.8h-59a2.95,2.95,0,1,0,0,5.9h59a2.95,2.95,0,1,0,0-5.9Z" transform="translate(0 -20.4)"/></g></g></g></svg>