<svg xmlns="http://www.w3.org/2000/svg" viewBox="617 606.147 110.3 106.853"><defs><style>.a{fill:#fff;}</style></defs><g transform="translate(487 625.75)"><path class="a" d="M106.853,14.287,31.022.5a2.817,2.817,0,0,0-2.03,1.065l-.048-.059-22.05,18.5V14.274a3.432,3.432,0,0,0-3.447-3.433A3.423,3.423,0,0,0,0,14.274V103.92a3.43,3.43,0,0,0,3.447,3.433,3.423,3.423,0,0,0,3.447-3.433V29.126L28.9,47.595a2.9,2.9,0,0,0,2.12,1.162l75.831-13.788c1.906,0,3.447-4.629,3.447-10.341S108.759,14.287,106.853,14.287ZM25.834,40.518,6.894,24.628v-.117L25.872,8.586a67.368,67.368,0,0,0-1.744,16.042A67.77,67.77,0,0,0,25.834,40.518Zm6.911,4.791c-2.854,0-5.17-9.262-5.17-20.681s2.316-20.681,5.17-20.681,5.17,9.262,5.17,20.681S35.6,45.309,32.745,45.309Zm36.192-6.894-16.011,3.2c1.344-3.736,2.223-9.951,2.223-16.99s-.879-13.253-2.223-16.99l16.011,3.2c1.906,0,3.447,6.173,3.447,13.787S70.844,38.416,68.937,38.416Zm31.022-5.17L87.513,35.737c1.279-2.513,2.106-6.553,2.106-11.109s-.827-8.6-2.106-11.109l12.447,2.492c.948,0,1.723,3.857,1.723,8.617S100.907,33.245,99.959,33.245Z" transform="translate(130 -20.103)"/></g></svg>