<svg xmlns="http://www.w3.org/2000/svg" xmlns:xlink="http://www.w3.org/1999/xlink" viewBox="0 0 570.06 570.06"><defs><style>.cls-1{fill:none;}.cls-2{clip-path:url(#clip-path);}.cls-3{fill:#fff;}.cls-4{fill:#fac35b;}.cls-5{fill:#3a2823;}</style><clipPath id="clip-path" transform="translate(-2)"><circle class="cls-1" cx="285.03" cy="285.91" r="285.03"/></clipPath></defs><title>athens </title><g id="Layer_2" data-name="Layer 2"><g id="Capa_1" data-name="Capa 1"><g class="cls-2"><circle class="cls-3" cx="285.03" cy="285.03" r="285.03"/><g id="_Group_" data-name="&lt;Group&gt;"><polygon class="cls-4" points="515.99 458.74 515.99 470.38 57.61 470.38 57.61 458.74 78.26 458.74 495.34 458.74 515.99 458.74"/><polygon class="cls-4" points="477.38 265.94 477.38 433.43 464.77 433.43 464.78 265.94 477.38 265.94"/><rect class="cls-4" x="464.78" y="250.17" width="12.6" height="8.94"/><rect class="cls-4" x="412.12" y="265.94" width="12.61" height="167.49"/><rect class="cls-4" x="412.12" y="250.17" width="12.61" height="8.94"/><rect class="cls-4" x="359.47" y="265.94" width="12.61" height="167.49"/><rect class="cls-4" x="359.47" y="250.17" width="12.61" height="8.94"/><path class="cls-5" d="M536.44,192.56a3.42,3.42,0,0,1-1.58,6.45h-14v-2.95a3.42,3.42,0,0,0-3.42-3.42H487.76a1.18,1.18,0,0,0-.19-.11l-.72-.36h34L288.8,71.63,56.73,192.18h34l-.71.35a1.18,1.18,0,0,0-.19.11H60.12a3.42,3.42,0,0,0-3.42,3.42V199h-14a3.42,3.42,0,0,1-1.58-6.45L287.23,64.75a3.38,3.38,0,0,1,3.15,0Z" transform="translate(-2)"/><path class="cls-5" d="M524.82,455.32V473.8a3.42,3.42,0,0,1-3.41,3.42H56.2a3.42,3.42,0,0,1-3.42-3.42V455.32a3.42,3.42,0,0,1,3.42-3.41H76.84v3.41a3.42,3.42,0,0,0,3.42,3.42H59.61v11.64H518V458.74H497.34a3.42,3.42,0,0,0,3.42-3.42v-3.41h20.65A3.41,3.41,0,0,1,524.82,455.32Z" transform="translate(-2)"/><path class="cls-5" d="M520.9,199V226.5a3.42,3.42,0,0,1-3.42,3.42H500.76V227.2a3.42,3.42,0,0,0-3.42-3.42H80.26a3.42,3.42,0,0,0-3.42,3.42v2.72H60.12a3.42,3.42,0,0,1-3.42-3.42V199H520.9Zm-6.83,24.08V199.48H63.53v23.61Z" transform="translate(-2)"/><path class="cls-5" d="M520.9,196.06V199H486a3.41,3.41,0,0,0,1.71-6.37h29.72A3.42,3.42,0,0,1,520.9,196.06Z" transform="translate(-2)"/><path class="cls-4" d="M520.87,192.17h-34L290.32,94.44a3.39,3.39,0,0,0-3,0L90.74,192.18h-34L288.8,71.63Z" transform="translate(-2)"/><rect class="cls-4" x="61.53" y="199.48" width="450.54" height="23.61"/><path class="cls-5" d="M500.76,451.91v3.41a3.42,3.42,0,0,1-3.42,3.42H80.26a3.42,3.42,0,0,1-3.42-3.42v-3.41H500.76Z" transform="translate(-2)"/><path class="cls-5" d="M500.76,436.85v15.06h-6.84V440.26H482.8a3.42,3.42,0,0,0,3.42-3.41v-3.42h11.12A3.42,3.42,0,0,1,500.76,436.85Z" transform="translate(-2)"/><path class="cls-5" d="M500.76,229.92v15.75a3.42,3.42,0,0,1-3.42,3.42H486.22v-2.34a3.42,3.42,0,0,0-3.42-3.42v-1.07h11.12V230.61H83.68v11.65H219.54v1.07H200.1a3.42,3.42,0,0,0-3.41,3.42v2.34H170.31v-2.34a3.43,3.43,0,0,0-3.42-3.42H147.45a3.42,3.42,0,0,0-3.41,3.42v2.34H117.66v-2.34a3.42,3.42,0,0,0-3.42-3.42H94.8a3.42,3.42,0,0,0-3.42,3.42v2.34H80.26a3.42,3.42,0,0,1-3.42-3.42V229.92Z" transform="translate(-2)"/><path class="cls-5" d="M500.76,227.2v2.72H76.84V227.2a3.42,3.42,0,0,1,3.42-3.42H497.34A3.42,3.42,0,0,1,500.76,227.2Z" transform="translate(-2)"/><path class="cls-5" d="M492.18,259.11a3.42,3.42,0,1,1,0,6.83h-6v-6.83Z" transform="translate(-2)"/><path class="cls-5" d="M487.76,192.64a3.41,3.41,0,0,1-3.23,6l-12.08-6Z" transform="translate(-2)"/><path class="cls-5" d="M487.76,192.64H472.45l-.95-.47h15.35l.72.36A1.18,1.18,0,0,1,487.76,192.64Z" transform="translate(-2)"/><path class="cls-5" d="M486.85,192.17H471.5L288.8,101.31,106.08,192.18H90.74L287.28,94.44a3.39,3.39,0,0,1,3,0Z" transform="translate(-2)"/><path class="cls-5" d="M486.22,433.43v3.42a3.42,3.42,0,0,1-3.42,3.41H463.36a3.41,3.41,0,0,1-3.42-3.41v-3.42h26.28Z" transform="translate(-2)"/><rect class="cls-5" x="477.38" y="265.94" width="6.84" height="167.49"/><rect class="cls-5" x="477.38" y="259.11" width="6.84" height="6.83"/><polygon class="cls-5" points="484.22 249.09 484.22 259.11 477.38 259.11 477.38 250.17 477.38 249.09 484.22 249.09"/><path class="cls-5" d="M486.22,246.75v2.34H459.94v-2.34a3.42,3.42,0,0,1,3.42-3.42H482.8A3.42,3.42,0,0,1,486.22,246.75Z" transform="translate(-2)"/><path class="cls-5" d="M486,199H91.55a3.46,3.46,0,0,0,1.52-.36l12.08-6h367.3l12.08,6A3.43,3.43,0,0,0,486,199Z" transform="translate(-2)"/><path class="cls-5" d="M482.8,242.26v1.07H463.36a3.42,3.42,0,0,0-3.42,3.42v2.34H433.57v-2.34a3.42,3.42,0,0,0-3.42-3.42v-1.07Z" transform="translate(-2)"/><rect class="cls-5" x="464.78" y="259.11" width="12.6" height="6.83"/><polygon class="cls-5" points="477.38 249.09 477.38 250.17 464.78 250.17 464.78 259.11 457.94 259.11 457.94 249.09 477.38 249.09"/><polygon class="cls-5" points="470.45 192.64 103.15 192.64 104.08 192.18 469.5 192.17 470.45 192.64"/><rect class="cls-5" x="457.94" y="259.11" width="6.84" height="6.83"/><polygon class="cls-5" points="464.78 265.94 464.77 433.43 457.94 433.43 457.94 265.94 464.78 265.94"/><path class="cls-5" d="M463.36,440.26H430.15a3.42,3.42,0,0,0,3.42-3.41v-3.42h26.37v3.42a3.41,3.41,0,0,0,3.42,3.41Z" transform="translate(-2)"/><path class="cls-5" d="M459.94,259.11v6.83h-6a3.42,3.42,0,1,1,0-6.83Z" transform="translate(-2)"/><path class="cls-5" d="M439.53,259.11a3.42,3.42,0,1,1,0,6.83h-6v-6.83Z" transform="translate(-2)"/><path class="cls-5" d="M433.57,433.43v3.42a3.42,3.42,0,0,1-3.42,3.41H410.71a3.41,3.41,0,0,1-3.42-3.41v-3.42h26.28Z" transform="translate(-2)"/><rect class="cls-5" x="424.73" y="265.94" width="6.84" height="167.49"/><rect class="cls-5" x="424.73" y="259.11" width="6.84" height="6.83"/><polygon class="cls-5" points="431.57 249.09 431.57 259.11 424.73 259.11 424.73 250.17 424.73 249.09 431.57 249.09"/><path class="cls-5" d="M433.57,246.75v2.34H407.29v-2.34a3.42,3.42,0,0,1,3.42-3.42h19.44A3.42,3.42,0,0,1,433.57,246.75Z" transform="translate(-2)"/><path class="cls-5" d="M430.15,242.26v1.07H410.71a3.42,3.42,0,0,0-3.42,3.42v2.34H380.91v-2.34a3.43,3.43,0,0,0-3.41-3.42v-1.07Z" transform="translate(-2)"/><rect class="cls-5" x="412.12" y="259.11" width="12.61" height="6.83"/><polygon class="cls-5" points="424.73 249.09 424.73 250.17 412.12 250.17 412.12 259.11 405.29 259.11 405.29 249.09 424.73 249.09"/><rect class="cls-5" x="405.29" y="265.94" width="6.83" height="167.49"/><rect class="cls-5" x="405.29" y="259.11" width="6.83" height="6.83"/><path class="cls-5" d="M410.71,440.26H377.5a3.41,3.41,0,0,0,3.41-3.41v-3.42h26.38v3.42a3.41,3.41,0,0,0,3.42,3.41Z" transform="translate(-2)"/><path class="cls-5" d="M407.29,259.11v6.83h-6a3.42,3.42,0,0,1,0-6.83Z" transform="translate(-2)"/><path class="cls-5" d="M386.88,259.11a3.42,3.42,0,1,1,0,6.83h-6v-6.83Z" transform="translate(-2)"/><path class="cls-5" d="M380.91,433.43v3.42a3.41,3.41,0,0,1-3.41,3.41H358.06a3.41,3.41,0,0,1-3.42-3.41v-3.42h26.27Z" transform="translate(-2)"/><rect class="cls-5" x="372.08" y="265.94" width="6.83" height="167.49"/><rect class="cls-5" x="372.08" y="259.11" width="6.83" height="6.83"/><polygon class="cls-5" points="378.91 249.09 378.91 259.11 372.08 259.11 372.08 250.17 372.08 249.09 378.91 249.09"/><path class="cls-5" d="M380.91,246.75v2.34H354.64v-2.34a3.42,3.42,0,0,1,3.42-3.42H377.5a3.43,3.43,0,0,1,3.41,3.42Z" transform="translate(-2)"/><path class="cls-5" d="M377.5,242.26v1.07H358.06a3.42,3.42,0,0,0-3.42,3.42v2.34H328.26v-2.34a3.43,3.43,0,0,0-3.41-3.42v-1.07Z" transform="translate(-2)"/><rect class="cls-5" x="359.47" y="259.11" width="12.61" height="6.83"/><polygon class="cls-5" points="372.08 249.09 372.08 250.17 359.47 250.17 359.47 259.11 352.64 259.11 352.64 249.09 372.08 249.09"/><rect class="cls-5" x="352.64" y="265.94" width="6.83" height="167.49"/><rect class="cls-5" x="352.64" y="259.11" width="6.83" height="6.83"/><path class="cls-5" d="M358.06,440.26H324.85a3.41,3.41,0,0,0,3.41-3.41v-3.42h26.38v3.42a3.41,3.41,0,0,0,3.42,3.41Z" transform="translate(-2)"/><path class="cls-5" d="M354.64,259.11v6.83h-6a3.42,3.42,0,0,1,0-6.83Z" transform="translate(-2)"/><path class="cls-5" d="M334.23,259.11a3.42,3.42,0,1,1,0,6.83h-6v-6.83Z" transform="translate(-2)"/><path class="cls-5" d="M328.26,433.43v3.42a3.41,3.41,0,0,1-3.41,3.41H305.41a3.42,3.42,0,0,1-3.42-3.41v-3.42h26.27Z" transform="translate(-2)"/><rect class="cls-5" x="319.43" y="265.94" width="6.83" height="167.49"/><rect class="cls-5" x="319.43" y="259.11" width="6.83" height="6.83"/><polygon class="cls-5" points="326.26 249.09 326.26 259.11 319.43 259.11 319.43 250.17 319.43 249.09 326.26 249.09"/><path class="cls-5" d="M328.26,246.75v2.34H302v-2.34a3.42,3.42,0,0,1,3.42-3.42h19.44a3.43,3.43,0,0,1,3.41,3.42Z" transform="translate(-2)"/><path class="cls-5" d="M324.85,242.26v1.07H305.41a3.42,3.42,0,0,0-3.42,3.42v2.34H275.61v-2.34a3.43,3.43,0,0,0-3.41-3.42v-1.07Z" transform="translate(-2)"/><rect class="cls-4" x="306.82" y="265.94" width="12.61" height="167.49"/><rect class="cls-5" x="306.82" y="259.11" width="12.61" height="6.83"/><rect class="cls-4" x="306.82" y="250.17" width="12.61" height="8.94"/><polygon class="cls-5" points="319.43 249.09 319.43 250.17 306.82 250.17 306.82 259.11 299.99 259.11 299.99 249.09 319.43 249.09"/><rect class="cls-5" x="299.99" y="265.94" width="6.83" height="167.49"/><rect class="cls-5" x="299.99" y="259.11" width="6.83" height="6.83"/><path class="cls-5" d="M305.41,440.26H272.2a3.41,3.41,0,0,0,3.41-3.41v-3.42H302v3.42A3.42,3.42,0,0,0,305.41,440.26Z" transform="translate(-2)"/><path class="cls-5" d="M302,259.11v6.83h-6a3.42,3.42,0,0,1,0-6.83Z" transform="translate(-2)"/><path class="cls-5" d="M281.58,259.11a3.42,3.42,0,0,1,0,6.83h-6v-6.83Z" transform="translate(-2)"/><path class="cls-5" d="M275.61,433.43v3.42a3.41,3.41,0,0,1-3.41,3.41H252.75a3.41,3.41,0,0,1-3.41-3.41v-3.42h26.27Z" transform="translate(-2)"/><rect class="cls-5" x="266.78" y="265.94" width="6.83" height="167.49"/><rect class="cls-5" x="266.78" y="259.11" width="6.83" height="6.83"/><polygon class="cls-5" points="273.61 249.09 273.61 259.11 266.78 259.11 266.78 250.17 266.78 249.09 273.61 249.09"/><path class="cls-5" d="M275.61,246.75v2.34H249.34v-2.34a3.42,3.42,0,0,1,3.41-3.42H272.2a3.43,3.43,0,0,1,3.41,3.42Z" transform="translate(-2)"/><path class="cls-5" d="M272.2,242.26v1.07H252.75a3.42,3.42,0,0,0-3.41,3.42v2.34H223v-2.34a3.43,3.43,0,0,0-3.42-3.42v-1.07Z" transform="translate(-2)"/><rect class="cls-4" x="254.17" y="265.94" width="12.61" height="167.49"/><rect class="cls-5" x="254.17" y="259.11" width="12.61" height="6.83"/><rect class="cls-4" x="254.17" y="250.17" width="12.61" height="8.94"/><polygon class="cls-5" points="266.78 249.09 266.78 250.17 254.17 250.17 254.17 259.11 247.34 259.11 247.34 249.09 266.78 249.09"/><rect class="cls-5" x="247.34" y="265.94" width="6.83" height="167.49"/><rect class="cls-5" x="247.34" y="259.11" width="6.83" height="6.83"/><path class="cls-5" d="M252.75,440.26H219.54a3.42,3.42,0,0,0,3.42-3.41v-3.42h26.38v3.42A3.41,3.41,0,0,0,252.75,440.26Z" transform="translate(-2)"/><path class="cls-5" d="M249.34,259.11v6.83h-6a3.42,3.42,0,0,1,0-6.83Z" transform="translate(-2)"/><path class="cls-5" d="M228.93,259.11a3.42,3.42,0,0,1,0,6.83h-6v-6.83Z" transform="translate(-2)"/><path class="cls-5" d="M223,433.43v3.42a3.42,3.42,0,0,1-3.42,3.41H200.1a3.41,3.41,0,0,1-3.41-3.41v-3.42H223Z" transform="translate(-2)"/><rect class="cls-5" x="214.13" y="265.94" width="6.83" height="167.49"/><rect class="cls-5" x="214.13" y="259.11" width="6.83" height="6.83"/><polygon class="cls-5" points="220.96 249.09 220.96 259.11 214.13 259.11 214.13 250.17 214.13 249.09 220.96 249.09"/><path class="cls-5" d="M223,246.75v2.34H196.69v-2.34a3.42,3.42,0,0,1,3.41-3.42h19.44a3.43,3.43,0,0,1,3.42,3.42Z" transform="translate(-2)"/><rect class="cls-4" x="201.52" y="265.94" width="12.61" height="167.49"/><rect class="cls-5" x="201.52" y="259.11" width="12.61" height="6.83"/><rect class="cls-4" x="201.52" y="250.17" width="12.61" height="8.94"/><polygon class="cls-5" points="214.13 249.09 214.13 250.17 201.52 250.17 201.52 259.11 194.69 259.11 194.69 249.09 214.13 249.09"/><rect class="cls-5" x="194.69" y="265.94" width="6.83" height="167.49"/><rect class="cls-5" x="194.69" y="259.11" width="6.83" height="6.83"/><path class="cls-5" d="M200.1,440.26H166.89a3.42,3.42,0,0,0,3.42-3.41v-3.42h26.38v3.42A3.41,3.41,0,0,0,200.1,440.26Z" transform="translate(-2)"/><path class="cls-5" d="M196.69,259.11v6.83h-6a3.42,3.42,0,1,1,0-6.83Z" transform="translate(-2)"/><path class="cls-5" d="M176.28,259.11a3.42,3.42,0,0,1,0,6.83h-6v-6.83Z" transform="translate(-2)"/><path class="cls-5" d="M170.31,433.43v3.42a3.42,3.42,0,0,1-3.42,3.41H147.45a3.41,3.41,0,0,1-3.41-3.41v-3.42h26.27Z" transform="translate(-2)"/><rect class="cls-5" x="161.48" y="265.94" width="6.83" height="167.49"/><rect class="cls-5" x="161.48" y="259.11" width="6.83" height="6.83"/><polygon class="cls-5" points="168.31 249.09 168.31 259.11 161.48 259.11 161.48 250.17 161.48 249.09 168.31 249.09"/><path class="cls-5" d="M170.31,246.75v2.34H144v-2.34a3.42,3.42,0,0,1,3.41-3.42h19.44a3.43,3.43,0,0,1,3.42,3.42Z" transform="translate(-2)"/><rect class="cls-4" x="148.87" y="265.94" width="12.61" height="167.49"/><rect class="cls-5" x="148.87" y="259.11" width="12.61" height="6.83"/><rect class="cls-4" x="148.87" y="250.17" width="12.61" height="8.94"/><polygon class="cls-5" points="161.48 249.09 161.48 250.17 148.87 250.17 148.87 259.11 142.04 259.11 142.04 249.09 161.48 249.09"/><rect class="cls-5" x="142.04" y="265.94" width="6.83" height="167.49"/><rect class="cls-5" x="142.04" y="259.11" width="6.83" height="6.83"/><path class="cls-5" d="M147.45,440.26H114.24a3.42,3.42,0,0,0,3.42-3.41v-3.42H144v3.42A3.41,3.41,0,0,0,147.45,440.26Z" transform="translate(-2)"/><path class="cls-5" d="M144,259.11v6.83h-6a3.42,3.42,0,1,1,0-6.83Z" transform="translate(-2)"/><path class="cls-5" d="M123.63,259.11a3.42,3.42,0,0,1,0,6.83h-6v-6.83Z" transform="translate(-2)"/><path class="cls-5" d="M117.66,433.43v3.42a3.42,3.42,0,0,1-3.42,3.41H94.8a3.43,3.43,0,0,1-3.42-3.41v-3.42h26.28Z" transform="translate(-2)"/><rect class="cls-5" x="108.83" y="265.94" width="6.83" height="167.49"/><rect class="cls-5" x="108.83" y="259.11" width="6.83" height="6.83"/><polygon class="cls-5" points="115.66 249.09 115.66 259.11 108.83 259.11 108.83 250.17 108.83 249.09 115.66 249.09"/><path class="cls-5" d="M117.66,246.75v2.34H91.38v-2.34a3.42,3.42,0,0,1,3.42-3.42h19.44A3.42,3.42,0,0,1,117.66,246.75Z" transform="translate(-2)"/><rect class="cls-4" x="96.22" y="265.94" width="12.61" height="167.49"/><rect class="cls-5" x="96.22" y="259.11" width="12.61" height="6.83"/><rect class="cls-4" x="96.22" y="250.17" width="12.61" height="8.94"/><polygon class="cls-5" points="108.83 249.09 108.83 250.17 96.22 250.17 96.22 259.11 89.38 259.11 89.38 249.09 108.83 249.09"/><path class="cls-5" d="M106.08,192.18l-.93.46H89.84a1.18,1.18,0,0,1,.19-.11l.71-.35Z" transform="translate(-2)"/><path class="cls-5" d="M105.15,192.64l-12.08,6a3.41,3.41,0,0,1-4.58-1.54,3.41,3.41,0,0,1,1.35-4.47Z" transform="translate(-2)"/><rect class="cls-5" x="89.38" y="265.94" width="6.84" height="167.49"/><rect class="cls-5" x="89.38" y="259.11" width="6.84" height="6.83"/><path class="cls-5" d="M94.8,440.26H83.68v11.65H76.84V436.85a3.42,3.42,0,0,1,3.42-3.42H91.38v3.42a3.43,3.43,0,0,0,3.42,3.41Z" transform="translate(-2)"/><path class="cls-5" d="M91.55,199H56.7v-2.95a3.42,3.42,0,0,1,3.42-3.42H89.84A3.41,3.41,0,0,0,91.55,199Z" transform="translate(-2)"/><path class="cls-5" d="M91.38,259.11v6.83h-6a3.42,3.42,0,1,1,0-6.83Z" transform="translate(-2)"/></g></g></g></g></svg>