<svg xmlns="http://www.w3.org/2000/svg" xmlns:xlink="http://www.w3.org/1999/xlink" viewBox="-1114 458.7 108 108">
  <defs>
    <style>
      .cls-1 {
        fill: none;
      }

      .cls-2 {
        clip-path: url(#clip-path);
      }

      .cls-3 {
        fill: #fff;
      }

      .cls-4 {
        fill: #3a2823;
      }

      .cls-5 {
        fill: #fac35b;
      }
    </style>
    <clipPath id="clip-path">
      <circle id="Ellipse_9" data-name="Ellipse 9" class="cls-1" cx="54" cy="54" r="54"/>
    </clipPath>
  </defs>
  <g id="beijing" transform="translate(-1116.25 457.45)">
    <g id="Capa_1" data-name="Capa 1" transform="translate(2.25 1.25)">
      <g id="Group_316" data-name="Group 316" class="cls-2" transform="translate(0 0)">
        <circle id="Ellipse_8" data-name="Ellipse 8" class="cls-3" cx="54" cy="54" r="54" transform="translate(-0.426 0.142)"/>
        <g id="_Group_" data-name="&lt;Group&gt;" transform="translate(1.973 28.615)">
          <path id="Path_236" data-name="Path 236" class="cls-4" d="M197,274.217a.832.832,0,0,1-.225.947c-5.7,4.776-10.109,5.776-12.8,5.776-.277,0-.548-.011-.811-.032v1.986H121.2v-.235h60.46v-2.652a.817.817,0,0,1,.269-.612.714.714,0,0,1,.612-.176,7.79,7.79,0,0,0,1.432.123c2.152,0,5.532-.726,9.954-3.935a16.005,16.005,0,0,1-12.8-7.768h-3a.777.777,0,0,0,.758-.8v-.8h2.652a.744.744,0,0,1,.625.371,14.384,14.384,0,0,0,12.618,7.421,9.557,9.557,0,0,0,1.408-.087.746.746,0,0,1,.807.472Z" transform="translate(-100.638 -244.253)"/>
          <path id="Path_237" data-name="Path 237" class="cls-4" d="M409.019,186.464a.832.832,0,0,1-.225.947c-5.7,4.774-10.109,5.782-12.8,5.782-.277,0-.548-.011-.811-.032v1.754h-1.5v-2.669a.816.816,0,0,1,.269-.612.711.711,0,0,1,.612-.176,7.79,7.79,0,0,0,1.432.123c2.152,0,5.534-.726,9.954-3.935a16.007,16.007,0,0,1-12.8-7.768H388.06a.777.777,0,0,0,.758-.8v-.8h4.748a.741.741,0,0,1,.631.368A14.361,14.361,0,0,0,406.8,186.08a9.907,9.907,0,0,0,1.408-.087A.743.743,0,0,1,409.019,186.464Z" transform="translate(-316.94 -173.119)"/>
          <path id="Path_238" data-name="Path 238" class="cls-5" d="M123.671,371.188c-4.422,3.209-7.8,3.935-9.956,3.935a7.956,7.956,0,0,1-1.43-.123.718.718,0,0,0-.614.174.83.83,0,0,0-.267.612v2.652h-7.495a.722.722,0,0,0-.476-.189H49.477a.726.726,0,0,0-.477.189H42.382v-2.889a.814.814,0,0,0-.333-.661.718.718,0,0,0-.7-.082,6.072,6.072,0,0,1-2.15.316c-2.154,0-5.538-.726-9.958-3.935a16.01,16.01,0,0,0,12.8-7.768h68.84A15.985,15.985,0,0,0,123.671,371.188Z" transform="translate(-26.1 -323.184)"/>
          <path id="Path_239" data-name="Path 239" class="cls-5" d="M137.7,282.236c-4.422,3.209-7.8,3.935-9.954,3.935a7.782,7.782,0,0,1-1.432-.123.714.714,0,0,0-.612.176.816.816,0,0,0-.269.612v2.652H64.972V286.6a.817.817,0,0,0-.332-.661.718.718,0,0,0-.7-.078,6.106,6.106,0,0,1-2.15.314c-2.154,0-5.538-.726-9.96-3.935a16.005,16.005,0,0,0,12.8-7.768H124.9A16.007,16.007,0,0,0,137.7,282.236Z" transform="translate(-44.41 -251.086)"/>
          <path id="Path_240" data-name="Path 240" class="cls-5" d="M151.737,194.51c-4.42,3.209-7.8,3.935-9.954,3.935a7.791,7.791,0,0,1-1.432-.123.71.71,0,0,0-.612.176.816.816,0,0,0-.269.612v2.652h-51.9v-2.893a.811.811,0,0,0-.332-.659.716.716,0,0,0-.7-.081,6.1,6.1,0,0,1-2.148.314c-2.154,0-5.538-.726-9.96-3.935a16.005,16.005,0,0,0,12.8-7.768h51.721A15.99,15.99,0,0,0,151.737,194.51Z" transform="translate(-62.728 -179.977)"/>
          <path id="Path_241" data-name="Path 241" class="cls-4" d="M176.71,355v.568a.818.818,0,0,1-.22.568.722.722,0,0,1-.53.233H114a.777.777,0,0,1-.758-.8V355h63.467Z" transform="translate(-94.184 -316.359)"/>
          <path id="Path_242" data-name="Path 242" class="cls-4" d="M427.866,356.137a.819.819,0,0,0,.22-.568V355h2.652a.74.74,0,0,1,.633.368,14.384,14.384,0,0,0,12.618,7.421,9.536,9.536,0,0,0,1.408-.087.743.743,0,0,1,.8.472.83.83,0,0,1-.224.947c-5.7,4.774-10.109,5.775-12.8,5.775-.277,0-.546-.009-.809-.03v2.552a.775.775,0,0,1-.758.8h-7.963v-.976a.816.816,0,0,0-.275-.62h7.495v-2.652a.83.83,0,0,1,.267-.612.718.718,0,0,1,.614-.174,7.953,7.953,0,0,0,1.43.123c2.152,0,5.534-.726,9.956-3.935a16,16,0,0,1-12.8-7.768h-3v-.239a.722.722,0,0,0,.531-.227Z" transform="translate(-345.56 -316.359)"/>
          <path id="Path_243" data-name="Path 243" class="cls-4" d="M190.746,266.05v.8a.777.777,0,0,1-.758.8H136.6a.779.779,0,0,1-.758-.8v-.8Z" transform="translate(-112.503 -244.261)"/>
          <path id="Path_244" data-name="Path 244" class="cls-4" d="M349.69,477.5v15.943a.775.775,0,0,1-.758.8h-16.8a.775.775,0,0,0,.758-.8v-.8H348.2V478.3h.758A.777.777,0,0,0,349.69,477.5Z" transform="translate(-271.606 -415.651)"/>
          <path id="Path_245" data-name="Path 245" class="cls-4" d="M418.336,451.16v4.99a.775.775,0,0,0-.758-.8h-.758V451.16Z" transform="translate(-340.251 -394.301)"/>
          <path id="Path_246" data-name="Path 246" class="cls-4" d="M351.725,443.35v.979h-1.5v-.19H334.915v-.79a.817.817,0,0,0-.275-.62h16.81A.816.816,0,0,1,351.725,443.35Z" transform="translate(-273.641 -387.468)"/>
          <path id="Path_247" data-name="Path 247" class="cls-4" d="M417.618,473.28a.8.8,0,0,1,0,1.6h-.758v-1.6Z" transform="translate(-340.284 -412.23)"/>
          <path id="Path_248" data-name="Path 248" class="cls-4" d="M349.416,441.919h-16.81a.719.719,0,0,0-.476-.19h16.81A.722.722,0,0,1,349.416,441.919Z" transform="translate(-271.606 -386.658)"/>
          <rect id="Rectangle_166" data-name="Rectangle 166" class="cls-4" width="15.308" height="1.599" transform="translate(61.274 61.05)"/>
          <rect id="Rectangle_167" data-name="Rectangle 167" class="cls-4" width="15.308" height="0.182" transform="translate(61.274 56.679)"/>
          <path id="Path_249" data-name="Path 249" class="cls-4" d="M207.891,178.34v.8a.777.777,0,0,1-.758.8H165.617a.779.779,0,0,1-.758-.8v-.8Z" transform="translate(-136.025 -173.168)"/>
          <path id="Path_250" data-name="Path 250" class="cls-4" d="M207.916,151.84v4.373h-1.5v-3.573H166.391v3.571h-1.5V151.84a.779.779,0,0,1,.758-.8h41.528A.777.777,0,0,1,207.916,151.84Z" transform="translate(-136.049 -151.04)"/>
          <path id="Path_251" data-name="Path 251" class="cls-4" d="M329.634,557.43v.8a.758.758,0,1,1-1.5,0v-.8Z" transform="translate(-268.36 -480.438)"/>
          <rect id="Rectangle_168" data-name="Rectangle 168" class="cls-4" width="1.502" height="14.344" transform="translate(59.772 62.649)"/>
          <rect id="Rectangle_169" data-name="Rectangle 169" class="cls-4" width="1.502" height="1.599" transform="translate(59.772 61.05)"/>
          <rect id="Rectangle_170" data-name="Rectangle 170" class="cls-4" width="1.502" height="4.191" transform="translate(59.772 56.859)"/>
          <rect id="Rectangle_171" data-name="Rectangle 171" class="cls-4" width="1.502" height="0.182" transform="translate(59.772 56.679)"/>
          <path id="Path_252" data-name="Path 252" class="cls-4" d="M329.662,443.35v.8h-1.5v-.8a.822.822,0,0,1,.275-.62h.947A.816.816,0,0,1,329.662,443.35Z" transform="translate(-268.388 -387.468)"/>
          <path id="Path_253" data-name="Path 253" class="cls-4" d="M330.587,441.919h-.947a.687.687,0,0,1,.947,0Z" transform="translate(-269.588 -386.658)"/>
          <path id="Path_254" data-name="Path 254" class="cls-4" d="M224.79,441.77h20.336a.726.726,0,0,0-.477.189H225.266A.718.718,0,0,0,224.79,441.77Z" transform="translate(-184.602 -386.69)"/>
          <path id="Path_255" data-name="Path 255" class="cls-4" d="M245.126,559.037H224.79a.775.775,0,0,0,.758-.8v-.8h18.834v.8A.777.777,0,0,0,245.126,559.037Z" transform="translate(-184.602 -480.446)"/>
          <path id="Path_256" data-name="Path 256" class="cls-4" d="M227.3,442.73h19.383a.822.822,0,0,0-.275.62v.8H227.575v-.8A.817.817,0,0,0,227.3,442.73Z" transform="translate(-186.637 -387.468)"/>
          <rect id="Rectangle_172" data-name="Rectangle 172" class="cls-4" width="18.834" height="1.599" transform="translate(40.938 61.05)"/>
          <rect id="Rectangle_173" data-name="Rectangle 173" class="cls-4" width="18.834" height="0.182" transform="translate(40.938 56.679)"/>
          <path id="Path_257" data-name="Path 257" class="cls-4" d="M222.294,557.43v.8a.758.758,0,1,1-1.5,0v-.8Z" transform="translate(-181.356 -480.438)"/>
          <rect id="Rectangle_174" data-name="Rectangle 174" class="cls-4" width="1.502" height="14.344" transform="translate(39.436 62.649)"/>
          <rect id="Rectangle_175" data-name="Rectangle 175" class="cls-4" width="1.502" height="1.599" transform="translate(39.436 61.05)"/>
          <rect id="Rectangle_176" data-name="Rectangle 176" class="cls-4" width="1.502" height="4.191" transform="translate(39.436 56.859)"/>
          <rect id="Rectangle_177" data-name="Rectangle 177" class="cls-4" width="1.502" height="0.182" transform="translate(39.436 56.679)"/>
          <path id="Path_258" data-name="Path 258" class="cls-4" d="M222.322,443.35v.8h-1.5v-.8a.822.822,0,0,1,.275-.62h.947A.816.816,0,0,1,222.322,443.35Z" transform="translate(-181.384 -387.468)"/>
          <path id="Path_259" data-name="Path 259" class="cls-4" d="M223.247,441.919H222.3a.726.726,0,0,1,.477-.19.718.718,0,0,1,.47.19Z" transform="translate(-182.584 -386.658)"/>
          <path id="Path_260" data-name="Path 260" class="cls-4" d="M134.017,441.77h16.81a.726.726,0,0,0-.477.189H133.54A.726.726,0,0,1,134.017,441.77Z" transform="translate(-110.64 -386.69)"/>
          <path id="Path_261" data-name="Path 261" class="cls-4" d="M149.626,494.242h-16.81a.775.775,0,0,1-.758-.8V477.5a.777.777,0,0,0,.758.8h.758v14.344h15.308v.8A.777.777,0,0,0,149.626,494.242Z" transform="translate(-109.438 -415.651)"/>
          <path id="Path_262" data-name="Path 262" class="cls-4" d="M132.348,442.73h16.81a.822.822,0,0,0-.275.62v.8H133.572v.189h-1.5v-.987A.817.817,0,0,1,132.348,442.73Z" transform="translate(-109.448 -387.468)"/>
          <rect id="Rectangle_178" data-name="Rectangle 178" class="cls-4" width="15.308" height="1.599" transform="translate(24.128 61.05)"/>
          <rect id="Rectangle_179" data-name="Rectangle 179" class="cls-4" width="15.308" height="0.182" transform="translate(24.128 56.679)"/>
          <path id="Path_263" data-name="Path 263" class="cls-4" d="M78.914,179.941H73.825a16.051,16.051,0,0,1-12.8,7.768c4.422,3.209,7.805,3.935,9.96,3.935a6.122,6.122,0,0,0,2.148-.314.716.716,0,0,1,.7.081.811.811,0,0,1,.332.659v2.9h-1.5v-1.876a9.191,9.191,0,0,1-1.686.152,14.382,14.382,0,0,1-5.274-1.1,27.794,27.794,0,0,1-7.531-4.678.828.828,0,0,1-.224-.947.741.741,0,0,1,.805-.476,9.829,9.829,0,0,0,1.406.087,14.39,14.39,0,0,0,12.618-7.423.745.745,0,0,1,.633-.368h4.736v.8a.779.779,0,0,0,.762.8Z" transform="translate(-49.322 -173.168)"/>
          <path id="Path_264" data-name="Path 264" class="cls-4" d="M133.565,473.28v1.6h-.758a.8.8,0,0,1,0-1.6Z" transform="translate(-109.441 -412.23)"/>
          <path id="Path_265" data-name="Path 265" class="cls-4" d="M133.514,451.16v4.191h-.758a.775.775,0,0,0-.758.8V451.16Z" transform="translate(-109.39 -394.301)"/>
          <path id="Path_266" data-name="Path 266" class="cls-4" d="M55.1,267.643H51.223a16.051,16.051,0,0,1-12.8,7.768c4.422,3.2,7.8,3.927,9.96,3.927a6.153,6.153,0,0,0,2.15-.315.718.718,0,0,1,.7.078.816.816,0,0,1,.332.661v3.132h-1.5v-2.1a9.373,9.373,0,0,1-1.68.146,14.375,14.375,0,0,1-5.273-1.1,27.8,27.8,0,0,1-7.533-4.678.832.832,0,0,1-.224-.947.739.739,0,0,1,.805-.47,10.061,10.061,0,0,0,1.406.085,14.388,14.388,0,0,0,12.618-7.421.744.744,0,0,1,.633-.368h3.53v.8A.779.779,0,0,0,55.1,267.643Z" transform="translate(-31.007 -244.253)"/>
          <path id="Path_267" data-name="Path 267" class="cls-4" d="M94.44,356.6H28.6a16.05,16.05,0,0,1-12.8,7.768c4.42,3.209,7.8,3.935,9.958,3.935a6.066,6.066,0,0,0,2.15-.316.718.718,0,0,1,.7.081.814.814,0,0,1,.333.661v2.9h6.618a.816.816,0,0,0-.275.619v.98H28.2a.777.777,0,0,1-.758-.8v-2.675a9.2,9.2,0,0,1-1.68.146,14.4,14.4,0,0,1-5.272-1.1,27.75,27.75,0,0,1-7.533-4.678.832.832,0,0,1-.224-.947.743.743,0,0,1,.805-.472,9.482,9.482,0,0,0,1.408.087,14.383,14.383,0,0,0,12.616-7.421A.741.741,0,0,1,28.2,355h3.53v.568a.777.777,0,0,0,.758.8H94.44Z" transform="translate(-12.665 -316.359)"/>
        </g>
      </g>
    </g>
  </g>
</svg>
