<svg xmlns="http://www.w3.org/2000/svg" xmlns:xlink="http://www.w3.org/1999/xlink" viewBox="-1338 850.56 108.94 108.94">
  <defs>
    <style>
      .cls-1 {
        fill: none;
      }

      .cls-2 {
        clip-path: url(#clip-path);
      }

      .cls-3 {
        fill: #fff;
      }

      .cls-4 {
        fill: #fac35b;
      }

      .cls-5 {
        fill: #3a2823;
      }
    </style>
    <clipPath id="clip-path">
      <circle id="Ellipse_14" data-name="Ellipse 14" class="cls-1" cx="54.47" cy="54.47" r="54.47"/>
    </clipPath>
  </defs>
  <g id="Capa_1" data-name="Capa 1" transform="translate(-1338 850.56)">
    <g id="Group_328" data-name="Group 328" class="cls-2" transform="translate(0 0)">
      <circle id="Ellipse_13" data-name="Ellipse 13" class="cls-3" cx="54.47" cy="54.47" r="54.47"/>
      <g id="_Group_" data-name="&lt;Group&gt;" transform="translate(0.451 14.705)">
        <path id="Path_592" data-name="Path 592" class="cls-3" d="M534.226,341.49V385.9h-8.3V341.49Zm-3.172,37.275v-4.758h-3.172v4.758Zm0-7.138V366.6h-3.172v5.024Zm0-7.4v-4.758h-3.172v4.758Zm0-7.138v-5.022h-3.172v5.022Zm0-7.4v-5.022h-3.172v5.022Z" transform="translate(-425.874 -290.936)"/>
        <rect id="Rectangle_181" data-name="Rectangle 181" class="cls-3" width="3.172" height="4.758" transform="translate(102.007 83.07)"/>
        <rect id="Rectangle_182" data-name="Rectangle 182" class="cls-3" width="3.172" height="5.024" transform="translate(102.007 75.667)"/>
        <rect id="Rectangle_183" data-name="Rectangle 183" class="cls-3" width="3.172" height="4.758" transform="translate(102.007 68.529)"/>
        <rect id="Rectangle_184" data-name="Rectangle 184" class="cls-3" width="3.172" height="5.022" transform="translate(102.007 61.128)"/>
        <rect id="Rectangle_185" data-name="Rectangle 185" class="cls-3" width="3.172" height="5.022" transform="translate(102.007 53.727)"/>
        <path id="Path_593" data-name="Path 593" class="cls-3" d="M493.906,341.49V385.9H486.34V341.49Zm-1.485,37.275v-4.758h-2.909v4.758Zm0-7.138V366.6h-2.909v5.024Zm0-7.4v-4.758h-2.909v4.758Zm0-7.138v-5.022h-2.909v5.022Zm0-7.4v-5.022h-2.909v5.022Z" transform="translate(-393.85 -290.936)"/>
        <path id="Path_594" data-name="Path 594" class="cls-4" d="M476.514,309.67v6.081h-7.566v44.412H464.84V309.67Z" transform="translate(-376.459 -265.197)"/>
        <rect id="Rectangle_186" data-name="Rectangle 186" class="cls-3" width="2.909" height="4.758" transform="translate(95.662 83.07)"/>
        <rect id="Rectangle_187" data-name="Rectangle 187" class="cls-3" width="2.909" height="5.024" transform="translate(95.662 75.667)"/>
        <rect id="Rectangle_188" data-name="Rectangle 188" class="cls-3" width="2.909" height="4.758" transform="translate(95.662 68.529)"/>
        <rect id="Rectangle_189" data-name="Rectangle 189" class="cls-3" width="2.909" height="5.022" transform="translate(95.662 61.128)"/>
        <rect id="Rectangle_190" data-name="Rectangle 190" class="cls-3" width="2.909" height="5.022" transform="translate(95.662 53.727)"/>
        <path id="Path_595" data-name="Path 595" class="cls-3" d="M443.76,309.67v50.493h-4.98v-3.438h1.544v-4.493H438.78v-2.379h1.544v-4.495H438.78v-2.643h1.544v-4.495H438.78v-2.379h1.544v-4.495H438.78V328.7h1.544v-4.495H438.78V321.83h1.544v-4.758H438.78v-2.379h1.544V310.2H438.78v-.529Z" transform="translate(-355.379 -265.197)"/>
        <path id="Path_596" data-name="Path 596" class="cls-3" d="M408.347,216.621v11.367h-4.98v.529h-1.1v4.493h1.1v2.379h-1.1v4.758h1.1v2.379h-1.1v4.495h1.1v2.643h-1.1v4.495h1.1v2.379h-1.1v4.495h1.1v2.643h-1.1v4.495h1.1v2.379h-1.1v4.493h1.1v3.44H395v-3.44h.665V270.55H395v-2.379h.665v-4.495H395v-2.643h.665v-4.495H395v-2.379h.665v-4.495H395v-2.643h.665v-4.495H395v-2.379h.665v-4.758H395V233.01h.665v-4.493H395V226.14h.665v-4.758H395v-9.255h4.659a3.673,3.673,0,0,1,3.673,3.673v.822h1.057V208.69h2.645v7.931Zm-3.44,9.517v-4.758h-2.645v4.76Zm-4.747,48.905V270.55h-2.387v4.493Zm0-6.88v-4.487h-2.387v4.495Zm0-7.138v-4.487h-2.387v4.495Zm0-6.88v-4.481h-2.387v4.495Zm0-7.138v-4.481h-2.387v4.495Zm0-6.88v-4.739h-2.387v4.758Zm0-7.138v-4.474h-2.387v4.493Zm0-6.88v-4.758h-2.387v4.787Z" transform="translate(-319.965 -183.514)"/>
        <rect id="Rectangle_191" data-name="Rectangle 191" class="cls-3" width="1.544" height="4.493" transform="translate(83.401 87.036)"/>
        <rect id="Rectangle_192" data-name="Rectangle 192" class="cls-3" width="1.544" height="4.495" transform="translate(83.401 80.162)"/>
        <rect id="Rectangle_193" data-name="Rectangle 193" class="cls-3" width="1.544" height="4.495" transform="translate(83.401 73.024)"/>
        <rect id="Rectangle_194" data-name="Rectangle 194" class="cls-3" width="1.544" height="4.495" transform="translate(83.401 66.15)"/>
        <rect id="Rectangle_195" data-name="Rectangle 195" class="cls-3" width="1.544" height="4.495" transform="translate(83.401 59.013)"/>
        <rect id="Rectangle_196" data-name="Rectangle 196" class="cls-3" width="1.544" height="4.758" transform="translate(83.401 51.875)"/>
        <rect id="Rectangle_197" data-name="Rectangle 197" class="cls-3" width="1.544" height="4.493" transform="translate(83.401 45.003)"/>
        <rect id="Rectangle_198" data-name="Rectangle 198" class="cls-3" width="2.643" height="4.758" transform="translate(82.302 37.865)"/>
        <rect id="Rectangle_199" data-name="Rectangle 199" class="cls-3" width="1.099" height="4.493" transform="translate(82.302 87.036)"/>
        <rect id="Rectangle_200" data-name="Rectangle 200" class="cls-3" width="1.099" height="4.495" transform="translate(82.302 80.162)"/>
        <rect id="Rectangle_201" data-name="Rectangle 201" class="cls-3" width="1.099" height="4.495" transform="translate(82.302 73.024)"/>
        <rect id="Rectangle_202" data-name="Rectangle 202" class="cls-3" width="1.099" height="4.495" transform="translate(82.302 66.15)"/>
        <rect id="Rectangle_203" data-name="Rectangle 203" class="cls-3" width="1.099" height="4.495" transform="translate(82.302 59.013)"/>
        <rect id="Rectangle_204" data-name="Rectangle 204" class="cls-3" width="1.099" height="4.758" transform="translate(82.302 51.875)"/>
        <rect id="Rectangle_205" data-name="Rectangle 205" class="cls-3" width="1.099" height="4.493" transform="translate(82.302 45.003)"/>
        <rect id="Rectangle_206" data-name="Rectangle 206" class="cls-3" width="2.379" height="4.493" transform="translate(77.807 87.036)"/>
        <rect id="Rectangle_207" data-name="Rectangle 207" class="cls-3" width="2.379" height="4.495" transform="translate(77.807 80.162)"/>
        <rect id="Rectangle_208" data-name="Rectangle 208" class="cls-3" width="2.379" height="4.495" transform="translate(77.807 73.024)"/>
        <rect id="Rectangle_209" data-name="Rectangle 209" class="cls-3" width="2.379" height="4.495" transform="translate(77.807 66.15)"/>
        <rect id="Rectangle_210" data-name="Rectangle 210" class="cls-3" width="2.379" height="4.495" transform="translate(77.807 59.013)"/>
        <rect id="Rectangle_211" data-name="Rectangle 211" class="cls-3" width="2.379" height="4.758" transform="translate(77.807 51.875)"/>
        <rect id="Rectangle_212" data-name="Rectangle 212" class="cls-3" width="2.379" height="4.493" transform="translate(77.807 45.003)"/>
        <rect id="Rectangle_213" data-name="Rectangle 213" class="cls-3" width="2.379" height="4.758" transform="translate(77.807 37.865)"/>
        <rect id="Rectangle_214" data-name="Rectangle 214" class="cls-3" width="0.665" height="4.493" transform="translate(75.027 87.036)"/>
        <rect id="Rectangle_215" data-name="Rectangle 215" class="cls-3" width="0.665" height="4.495" transform="translate(75.027 80.162)"/>
        <rect id="Rectangle_216" data-name="Rectangle 216" class="cls-3" width="0.665" height="4.495" transform="translate(75.027 73.024)"/>
        <rect id="Rectangle_217" data-name="Rectangle 217" class="cls-3" width="0.665" height="4.495" transform="translate(75.027 66.15)"/>
        <rect id="Rectangle_218" data-name="Rectangle 218" class="cls-3" width="0.665" height="4.495" transform="translate(75.027 59.013)"/>
        <rect id="Rectangle_219" data-name="Rectangle 219" class="cls-3" width="0.665" height="4.758" transform="translate(75.027 51.875)"/>
        <rect id="Rectangle_220" data-name="Rectangle 220" class="cls-3" width="0.665" height="4.493" transform="translate(75.027 45.003)"/>
        <rect id="Rectangle_221" data-name="Rectangle 221" class="cls-3" width="0.665" height="4.758" transform="translate(75.027 37.865)"/>
        <path id="Path_597" data-name="Path 597" class="cls-3" d="M372.052,289.587v3.44H366.63V231.165h1.321v-.822a3.675,3.675,0,0,1,3.673-3.673h.428v9.253h-1.72v4.76h1.72v2.379h-1.72v4.493h1.72v2.377h-1.72v4.758h1.72v2.379h-1.72v4.495h1.72v2.643h-1.72V268.7h1.72v2.379h-1.72v4.495h1.72v2.643h-1.72v4.495h1.72v2.379h-1.72v4.493Z" transform="translate(-297.017 -198.058)"/>
        <rect id="Rectangle_222" data-name="Rectangle 222" class="cls-3" width="1.714" height="4.493" transform="translate(73.313 87.036)"/>
        <rect id="Rectangle_223" data-name="Rectangle 223" class="cls-3" width="1.714" height="4.495" transform="translate(73.313 80.162)"/>
        <rect id="Rectangle_224" data-name="Rectangle 224" class="cls-3" width="1.714" height="4.495" transform="translate(73.313 73.024)"/>
        <rect id="Rectangle_225" data-name="Rectangle 225" class="cls-3" width="1.714" height="4.495" transform="translate(73.313 66.15)"/>
        <rect id="Rectangle_226" data-name="Rectangle 226" class="cls-3" width="1.714" height="4.495" transform="translate(73.313 59.013)"/>
        <rect id="Rectangle_227" data-name="Rectangle 227" class="cls-3" width="1.714" height="4.758" transform="translate(73.313 51.875)"/>
        <rect id="Rectangle_228" data-name="Rectangle 228" class="cls-3" width="1.714" height="4.493" transform="translate(73.313 45.003)"/>
        <rect id="Rectangle_229" data-name="Rectangle 229" class="cls-3" width="1.714" height="4.758" transform="translate(73.313 37.865)"/>
        <path id="Path_598" data-name="Path 598" class="cls-4" d="M322.256,91.726V109.69h-.42a3.675,3.675,0,0,0-3.673,3.673v.822h-1.321v61.86h-7.426v-.067l4.233.021.51-66.431L305.07,103.7l.107-21.64Z" transform="translate(-247.221 -81.083)"/>
        <path id="Path_599" data-name="Path 599" class="cls-3" d="M311.9,201.187l-.51,66.433-4.233-.021V221.931H302.28l.512-22.449.021-4.162Z" transform="translate(-244.964 -172.699)"/>
        <path id="Path_600" data-name="Path 600" class="cls-3" d="M302.734,573.427v.067H296.81l0-.094Z" transform="translate(-240.54 -478.527)"/>
        <path id="Path_601" data-name="Path 601" class="cls-4" d="M302.742,334.57v45.668l-5.922-.027.239-10.482h1.718v-5.551h-1.59l.059-2.643h1.531v-5.552h-1.4l.065-2.909h1.338v-5.286h-1.215l.065-2.909h1.15v-5.288h-1.028l.115-5.022Z" transform="translate(-240.548 -285.338)"/>
        <path id="Path_602" data-name="Path 602" class="cls-3" d="M299.788,489.5v5.552H298.07l.128-5.552Z" transform="translate(-241.559 -410.661)"/>
        <path id="Path_603" data-name="Path 603" class="cls-3" d="M300.581,446.62v5.552H299.05l.128-5.552Z" transform="translate(-242.352 -375.975)"/>
        <path id="Path_604" data-name="Path 604" class="cls-3" d="M301.4,403.74v5.286H300.06l.122-5.286Z" transform="translate(-243.169 -341.29)"/>
        <path id="Path_605" data-name="Path 605" class="cls-3" d="M302.19,360.85v5.288h-1.15l.122-5.288Z" transform="translate(-243.961 -306.596)"/>
        <path id="Path_606" data-name="Path 606" class="cls-3" d="M282.065,180.469l-.021,4.162-.512,22.449h-1.2v-3.436h-2.907v3.436h-.793V176.96Z" transform="translate(-224.216 -157.848)"/>
        <path id="Path_607" data-name="Path 607" class="cls-4" d="M281.532,320.026l-.115,5.022H279.8v5.288h1.493l-.065,2.909H279.8v5.286h1.305l-.065,2.909H279.8v5.552h1.112l-.059,2.643H279.8v5.551h.925l-.239,10.482-3.858-.019V355.185h.793v-5.551h-.793v-2.643h.793v-5.552h-.793V338.53h.793v-5.286h-.793v-2.909h.793v-5.288h-.793v-5.022h.793V316.59h2.907v3.436Z" transform="translate(-224.216 -270.794)"/>
        <path id="Path_608" data-name="Path 608" class="cls-3" d="M294.845,360.85l-.122,5.288H293.23V360.85Z" transform="translate(-237.644 -306.596)"/>
        <path id="Path_609" data-name="Path 609" class="cls-3" d="M294.658,403.74l-.122,5.286H293.23V403.74Z" transform="translate(-237.644 -341.29)"/>
        <path id="Path_610" data-name="Path 610" class="cls-3" d="M294.47,446.62l-.128,5.552H293.23V446.62Z" transform="translate(-237.644 -375.975)"/>
        <path id="Path_611" data-name="Path 611" class="cls-3" d="M294.283,489.5l-.128,5.552h-.925V489.5Z" transform="translate(-237.644 -410.661)"/>
        <path id="Path_612" data-name="Path 612" class="cls-3" d="M280.488,573.319l0,.094H276.63V573.3Z" transform="translate(-224.216 -478.446)"/>
        <rect id="Rectangle_230" data-name="Rectangle 230" class="cls-3" width="0.793" height="5.552" transform="translate(52.414 78.839)"/>
        <rect id="Rectangle_231" data-name="Rectangle 231" class="cls-3" width="0.793" height="5.552" transform="translate(52.414 70.645)"/>
        <rect id="Rectangle_232" data-name="Rectangle 232" class="cls-3" width="0.793" height="5.286" transform="translate(52.414 62.45)"/>
        <rect id="Rectangle_233" data-name="Rectangle 233" class="cls-3" width="0.793" height="5.288" transform="translate(52.414 54.254)"/>
        <path id="Path_613" data-name="Path 613" class="cls-3" d="M270.191,573.268v.113H268.67l0-.12Z" transform="translate(-217.777 -478.414)"/>
        <path id="Path_614" data-name="Path 614" class="cls-4" d="M270.2,518.55v10.463l-1.519-.008.017-10.455Z" transform="translate(-217.786 -434.159)"/>
        <path id="Path_615" data-name="Path 615" class="cls-3" d="M270.272,489.5v5.552h-1.5l.01-5.552Z" transform="translate(-217.858 -410.661)"/>
        <path id="Path_616" data-name="Path 616" class="cls-4" d="M270.313,475.67v2.643H268.82l.006-2.643Z" transform="translate(-217.899 -399.474)"/>
        <path id="Path_617" data-name="Path 617" class="cls-3" d="M270.337,446.62v5.552H268.85l.01-5.552Z" transform="translate(-217.923 -375.975)"/>
        <path id="Path_618" data-name="Path 618" class="cls-4" d="M270.377,431.4v2.909H268.9l0-2.909Z" transform="translate(-217.963 -363.664)"/>
        <path id="Path_619" data-name="Path 619" class="cls-3" d="M270.393,403.74v5.286H268.92l.01-5.286Z" transform="translate(-217.98 -341.29)"/>
        <path id="Path_620" data-name="Path 620" class="cls-4" d="M270.434,388.52v2.909H268.97l.006-2.909Z" transform="translate(-218.02 -328.978)"/>
        <path id="Path_621" data-name="Path 621" class="cls-3" d="M270.458,360.85v5.288H269l.01-5.288Z" transform="translate(-218.044 -306.596)"/>
        <path id="Path_622" data-name="Path 622" class="cls-4" d="M270.5,313.312v5.022H269.05l.017-10.044H270.5Z" transform="translate(-218.085 -264.08)"/>
        <path id="Path_623" data-name="Path 623" class="cls-3" d="M270.571,173.174v25.1H269.14l.046-25.992Z" transform="translate(-218.158 -154.062)"/>
        <path id="Path_624" data-name="Path 624" class="cls-4" d="M185.524,152.18v4.743l-1.385-.894-.046,25.99h-1.477v5.022h-2.643V232.77H176.1V171.7h-7.665v-2.2a3.352,3.352,0,0,0-3.352-3.352H164V152.18Z" transform="translate(-133.11 -137.803)"/>
        <path id="Path_625" data-name="Path 625" class="cls-4" d="M251.7,308.29l-.017,10.044h-.667v5.288h.657l-.006,2.909h-.652v5.286h.642l0,2.909h-.638v5.552h.629l-.006,2.643h-.623v5.552h.613l-.017,10.455h-.138l.029.12H247.58V313.312h2.643V308.29Z" transform="translate(-200.718 -264.08)"/>
        <path id="Path_626" data-name="Path 626" class="cls-3" d="M266.227,360.85l-.01,5.288h-.657V360.85Z" transform="translate(-215.262 -306.596)"/>
        <path id="Path_627" data-name="Path 627" class="cls-3" d="M266.212,403.74l-.01,5.286h-.642V403.74Z" transform="translate(-215.262 -341.29)"/>
        <path id="Path_628" data-name="Path 628" class="cls-3" d="M266.2,446.62l-.01,5.552h-.629V446.62Z" transform="translate(-215.262 -375.975)"/>
        <path id="Path_629" data-name="Path 629" class="cls-3" d="M266.183,489.5l-.01,5.552h-.613V489.5Z" transform="translate(-215.262 -410.661)"/>
        <path id="Path_630" data-name="Path 630" class="cls-3" d="M268.1,573.26l0,.12h-.107l-.029-.12Z" transform="translate(-217.203 -478.414)"/>
        <path id="Path_631" data-name="Path 631" class="cls-3" d="M268.217,573.89v.432l-.107-.432Z" transform="translate(-217.324 -478.923)"/>
        <path id="Path_632" data-name="Path 632" class="cls-3" d="M176.1,230.842v61.067H164V225.29h1.089a3.352,3.352,0,0,1,3.352,3.352v2.2Zm-5.286,53.929v-6.345h-2.379v6.345Zm0-10.32v-6.345h-2.379v6.345Zm0-10.31V257.8h-2.379v6.345Zm0-10.31v-6.345h-2.379v6.345Zm0-10.31v-6.345h-2.379v6.345Z" transform="translate(-133.11 -196.942)"/>
        <rect id="Rectangle_234" data-name="Rectangle 234" class="cls-3" width="2.379" height="6.345" transform="translate(35.323 81.484)"/>
        <rect id="Rectangle_235" data-name="Rectangle 235" class="cls-3" width="2.379" height="6.345" transform="translate(35.323 71.174)"/>
        <rect id="Rectangle_236" data-name="Rectangle 236" class="cls-3" width="2.379" height="6.345" transform="translate(35.323 60.864)"/>
        <rect id="Rectangle_237" data-name="Rectangle 237" class="cls-3" width="2.379" height="6.345" transform="translate(35.323 50.554)"/>
        <rect id="Rectangle_238" data-name="Rectangle 238" class="cls-3" width="2.379" height="6.345" transform="translate(35.323 40.244)"/>
        <path id="Path_633" data-name="Path 633" class="cls-3" d="M126.791,225.29v66.618H118V230.841h2.643v-2.2a3.352,3.352,0,0,1,3.352-3.352Zm-1.64,59.481v-6.345h-2.387v6.345Zm0-10.32v-6.345h-2.387v6.345Zm0-10.31V257.8h-2.387v6.345Zm0-10.31v-6.345h-2.387v6.345Zm0-10.31v-6.345h-2.387v6.345Z" transform="translate(-95.901 -196.942)"/>
        <rect id="Rectangle_239" data-name="Rectangle 239" class="cls-3" width="2.379" height="6.345" transform="translate(26.863 81.484)"/>
        <rect id="Rectangle_240" data-name="Rectangle 240" class="cls-3" width="2.379" height="6.345" transform="translate(26.863 71.174)"/>
        <rect id="Rectangle_241" data-name="Rectangle 241" class="cls-3" width="2.379" height="6.345" transform="translate(26.863 60.864)"/>
        <rect id="Rectangle_242" data-name="Rectangle 242" class="cls-3" width="2.379" height="6.345" transform="translate(26.863 50.554)"/>
        <rect id="Rectangle_243" data-name="Rectangle 243" class="cls-3" width="2.379" height="6.345" transform="translate(26.863 40.244)"/>
        <path id="Path_634" data-name="Path 634" class="cls-4" d="M26.5,282.874v51.55H5.36v-51.55H17.522V277.85h5.022v5.024Zm-5.282,37.538v-4.229H18.049v4.229Zm0-6.608v-4.495H18.049v4.5Zm0-7.138V302.7H18.049v3.965Zm0-6.61v-4.229H18.049v4.22Zm0-6.88v-4.223H18.049v4.231Zm-7.665,27.236v-4.229H10.642v4.229Zm0-6.608v-4.495H10.642v4.5Zm0-7.138V302.7H10.642v3.965Zm0-6.61v-4.229H10.642v4.22Zm0-6.88v-4.223H10.642v4.231Z" transform="translate(-4.787 -239.457)"/>
        <rect id="Rectangle_244" data-name="Rectangle 244" class="cls-3" width="3.172" height="4.229" transform="translate(13.263 76.726)"/>
        <rect id="Rectangle_245" data-name="Rectangle 245" class="cls-3" width="3.172" height="4.495" transform="translate(13.263 69.852)"/>
        <rect id="Rectangle_246" data-name="Rectangle 246" class="cls-3" width="3.172" height="3.965" transform="translate(13.263 63.244)"/>
        <rect id="Rectangle_247" data-name="Rectangle 247" class="cls-3" width="3.172" height="4.229" transform="translate(13.263 56.37)"/>
        <rect id="Rectangle_248" data-name="Rectangle 248" class="cls-3" width="3.172" height="4.231" transform="translate(13.263 49.496)"/>
        <rect id="Rectangle_249" data-name="Rectangle 249" class="cls-3" width="2.909" height="4.229" transform="translate(5.861 76.726)"/>
        <rect id="Rectangle_250" data-name="Rectangle 250" class="cls-3" width="2.909" height="4.495" transform="translate(5.861 69.852)"/>
        <rect id="Rectangle_251" data-name="Rectangle 251" class="cls-3" width="2.909" height="3.965" transform="translate(5.861 63.244)"/>
        <rect id="Rectangle_252" data-name="Rectangle 252" class="cls-3" width="2.909" height="4.229" transform="translate(5.861 56.37)"/>
        <rect id="Rectangle_253" data-name="Rectangle 253" class="cls-3" width="2.909" height="4.231" transform="translate(5.861 49.496)"/>
        <rect id="Rectangle_254" data-name="Rectangle 254" class="cls-5" width="7.419" height="1.147" transform="translate(62.194 94.393)"/>
        <path id="Path_635" data-name="Path 635" class="cls-5" d="M320.395,105.562h-1.147V87.927l-15.93-9.016-.1,20.662-1.147-.006.111-22.617,18.214,10.308Z" transform="translate(-244.795 -76.95)"/>
        <path id="Path_636" data-name="Path 636" class="cls-5" d="M162.107,163.725H160.96V149.18h22.678v5.309h-1.147v-4.162H162.107Z" transform="translate(-130.651 -135.377)"/>
        <rect id="Rectangle_255" data-name="Rectangle 255" class="cls-5" width="3.874" height="1.147" transform="translate(42.989 94.393)"/>
        <path id="Path_637" data-name="Path 637" class="cls-5" d="M137.036,290.055H115V227.842h2.643v-1.626a3.929,3.929,0,0,1,3.925-3.925h3.872a3.929,3.929,0,0,1,3.925,3.925v1.626h7.665Zm-20.884-1.147h19.737v-59.92h-7.665v-2.773a2.782,2.782,0,0,0-2.779-2.779h-3.872a2.782,2.782,0,0,0-2.779,2.779v2.773h-2.649Z" transform="translate(-93.474 -194.515)"/>
        <path id="Path_638" data-name="Path 638" class="cls-5" d="M143.456,292.031H139.93V284.54h3.526Zm-2.379-1.147h1.233v-5.2h-1.233Z" transform="translate(-113.64 -244.869)"/>
        <path id="Path_639" data-name="Path 639" class="cls-5" d="M187.726,292.031H184.2V284.54h3.526Zm-2.379-1.147h1.233v-5.2h-1.233Z" transform="translate(-149.45 -244.869)"/>
        <path id="Path_640" data-name="Path 640" class="cls-5" d="M143.456,345.981H139.93V338.49h3.526Zm-2.379-1.147h1.233v-5.2h-1.233Z" transform="translate(-113.64 -288.509)"/>
        <path id="Path_641" data-name="Path 641" class="cls-5" d="M187.726,345.981H184.2V338.49h3.526Zm-2.379-1.147h1.233v-5.2h-1.233Z" transform="translate(-149.45 -288.509)"/>
        <path id="Path_642" data-name="Path 642" class="cls-5" d="M143.456,399.931H139.93V392.44h3.526Zm-2.379-1.147h1.233v-5.2h-1.233Z" transform="translate(-113.64 -332.149)"/>
        <path id="Path_643" data-name="Path 643" class="cls-5" d="M187.726,399.931H184.2V392.44h3.526Zm-2.379-1.147h1.233v-5.2h-1.233Z" transform="translate(-149.45 -332.149)"/>
        <path id="Path_644" data-name="Path 644" class="cls-5" d="M143.456,453.881H139.93V446.39h3.526Zm-2.379-1.147h1.233v-5.2h-1.233Z" transform="translate(-113.64 -375.789)"/>
        <path id="Path_645" data-name="Path 645" class="cls-5" d="M187.726,453.881H184.2V446.39h3.526Zm-2.379-1.147h1.233v-5.2h-1.233Z" transform="translate(-149.45 -375.789)"/>
        <path id="Path_646" data-name="Path 646" class="cls-5" d="M143.456,507.831H139.93V500.34h3.526Zm-2.379-1.147h1.233v-5.2h-1.233Z" transform="translate(-113.64 -419.429)"/>
        <path id="Path_647" data-name="Path 647" class="cls-5" d="M187.726,507.831H184.2V500.34h3.526Zm-2.379-1.147h1.233v-5.2h-1.233Z" transform="translate(-149.45 -419.429)"/>
        <path id="Path_648" data-name="Path 648" class="cls-5" d="M24.65,332.571H2.36v-52.7H14.522V274.85h6.169v5.024h3.96ZM3.5,331.424h20v-50.4h-3.96V276H15.668v5.024H3.507Z" transform="translate(-2.36 -237.031)"/>
        <path id="Path_649" data-name="Path 649" class="cls-5" d="M34.061,338.328H30V332.95h4.061Zm-2.909-1.147h1.762V334.1H31.147Z" transform="translate(-24.718 -284.028)"/>
        <path id="Path_650" data-name="Path 650" class="cls-5" d="M73.079,338.328H68.76V332.95h4.319Zm-3.172-1.147h2.026V334.1H69.907Z" transform="translate(-56.071 -284.028)"/>
        <path id="Path_651" data-name="Path 651" class="cls-5" d="M34.061,374.286H30V368.92h4.061Zm-2.914-1.147h1.762v-3.073H31.147Z" transform="translate(-24.718 -313.124)"/>
        <path id="Path_652" data-name="Path 652" class="cls-5" d="M73.079,374.286H68.76V368.92h4.319Zm-3.172-1.147h2.026v-3.073H69.907Z" transform="translate(-56.071 -313.124)"/>
        <path id="Path_653" data-name="Path 653" class="cls-5" d="M34.061,410H30V404.89h4.061Zm-2.909-1.147h1.762v-2.819H31.147Z" transform="translate(-24.718 -342.22)"/>
        <path id="Path_654" data-name="Path 654" class="cls-5" d="M73.079,410H68.76V404.89h4.319Zm-3.172-1.147h2.026v-2.819H69.907Z" transform="translate(-56.071 -342.22)"/>
        <path id="Path_655" data-name="Path 655" class="cls-5" d="M34.061,445.113H30V439.47h4.061Zm-2.914-1.147h1.762v-3.35H31.147Z" transform="translate(-24.718 -370.191)"/>
        <path id="Path_656" data-name="Path 656" class="cls-5" d="M73.079,445.113H68.76V439.47h4.319Zm-3.172-1.147h2.026v-3.35H69.907Z" transform="translate(-56.071 -370.191)"/>
        <path id="Path_657" data-name="Path 657" class="cls-5" d="M34.061,480.816H30V475.44h4.061Zm-2.909-1.147h1.762v-3.083H31.147Z" transform="translate(-24.718 -399.287)"/>
        <path id="Path_658" data-name="Path 658" class="cls-5" d="M73.079,480.816H68.76V475.44h4.319Zm-3.172-1.147h2.026v-3.083H69.907Z" transform="translate(-56.071 -399.287)"/>
        <path id="Path_659" data-name="Path 659" class="cls-5" d="M282.726,245.109l-4.8-.023.006-1.147,3.662.017.5-65.546-14.761-9.528-.044,24.941-1.147,0,.048-27.041,17.056,11.009Z" transform="translate(-215.731 -149.613)"/>
        <rect id="Rectangle_256" data-name="Rectangle 256" class="cls-5" width="1.147" height="0.432" transform="translate(50.319 94.967)"/>
        <path id="Path_660" data-name="Path 660" class="cls-5" d="M261.059,357.194H244.58V310.312h2.643V305.29h4.055v1.586h3.7v3.44h6.081Zm-15.332-1.147h14.186V311.459h-6.079v-3.44h-1.76v3.44h-1.942v-5.022H248.37v5.022h-2.643Z" transform="translate(-198.291 -261.654)"/>
        <path id="Path_661" data-name="Path 661" class="cls-5" d="M266.615,364.284H262.56V357.85h4.055Zm-2.909-1.147h1.762V359h-1.762Z" transform="translate(-212.835 -304.169)"/>
        <path id="Path_662" data-name="Path 662" class="cls-5" d="M294.02,364.284h-3.79V357.85h3.79Zm-2.643-1.147h1.5V359h-1.5Z" transform="translate(-235.217 -304.169)"/>
        <path id="Path_663" data-name="Path 663" class="cls-5" d="M266.615,407.173H262.56V400.74h4.055Zm-2.909-1.147h1.762v-4.139h-1.762Z" transform="translate(-212.835 -338.863)"/>
        <path id="Path_664" data-name="Path 664" class="cls-5" d="M294.02,407.173h-3.79V400.74h3.79Zm-2.643-1.147h1.5v-4.139h-1.5Z" transform="translate(-235.217 -338.863)"/>
        <path id="Path_665" data-name="Path 665" class="cls-5" d="M266.615,450.359H262.56V443.67h4.055Zm-2.909-1.147h1.762v-4.4h-1.762Z" transform="translate(-212.835 -373.589)"/>
        <path id="Path_666" data-name="Path 666" class="cls-5" d="M294.02,450.359h-3.79V443.67h3.79Zm-2.643-1.147h1.5v-4.4h-1.5Z" transform="translate(-235.217 -373.589)"/>
        <path id="Path_667" data-name="Path 667" class="cls-5" d="M266.615,493.239H262.56V486.55h4.055Zm-2.909-1.147h1.762v-4.4h-1.762Z" transform="translate(-212.835 -408.274)"/>
        <path id="Path_668" data-name="Path 668" class="cls-5" d="M294.02,493.239h-3.79V486.55h3.79Zm-2.643-1.147h1.5v-4.4h-1.5Z" transform="translate(-235.217 -408.274)"/>
        <path id="Path_669" data-name="Path 669" class="cls-5" d="M477.088,313.324h-1.147v-5.508h-11.1V306.67h12.248Z" transform="translate(-376.459 -262.77)"/>
        <rect id="Rectangle_257" data-name="Rectangle 257" class="cls-5" width="4.109" height="1.147" transform="translate(88.381 94.393)"/>
        <path id="Path_670" data-name="Path 670" class="cls-5" d="M383.545,276.627H363.63V213.621h1.32v-.248a4.25,4.25,0,0,1,4.246-4.246h5.08a4.254,4.254,0,0,1,4.156,3.375V205.69h3.791v7.931h1.321Zm-18.768-1.147H382.4V214.767h-1.32v-7.931h-1.5v7.931h-2.2v-1.4a3.1,3.1,0,0,0-3.1-3.1H369.2a3.1,3.1,0,0,0-3.1,3.1v1.4h-1.32Z" transform="translate(-294.59 -181.087)"/>
        <path id="Path_671" data-name="Path 671" class="cls-5" d="M386.524,278.005H383V272.1h3.526Zm-2.377-1.147h1.233v-3.612h-1.233Z" transform="translate(-310.259 -234.806)"/>
        <path id="Path_672" data-name="Path 672" class="cls-5" d="M410.043,278.005H406.51V272.1h3.533Zm-2.379-1.147H408.9v-3.612h-1.233Z" transform="translate(-329.276 -234.806)"/>
        <path id="Path_673" data-name="Path 673" class="cls-5" d="M433.8,278.005H430V272.1h3.79Zm-2.649-1.147h1.5v-3.612h-1.5Z" transform="translate(-348.277 -234.806)"/>
        <path id="Path_674" data-name="Path 674" class="cls-5" d="M386.524,315.079H383V309.44h3.526Zm-2.379-1.147h1.233v-3.346h-1.231Z" transform="translate(-310.259 -265.011)"/>
        <path id="Path_675" data-name="Path 675" class="cls-5" d="M410.043,315.079H406.51V309.44h3.533Zm-2.379-1.147H408.9v-3.346h-1.233Z" transform="translate(-329.276 -265.011)"/>
        <path id="Path_676" data-name="Path 676" class="cls-5" d="M433.8,315.079H430V309.44h3.79Zm-2.643-1.147h1.5v-3.346h-1.5Z" transform="translate(-348.277 -265.011)"/>
        <path id="Path_677" data-name="Path 677" class="cls-5" d="M386.524,351.305H383V345.4h3.526Zm-2.379-1.147h1.233v-3.612h-1.231Z" transform="translate(-310.259 -294.099)"/>
        <path id="Path_678" data-name="Path 678" class="cls-5" d="M410.043,351.305H406.51V345.4h3.533Zm-2.379-1.147H408.9v-3.612h-1.233Z" transform="translate(-329.276 -294.099)"/>
        <path id="Path_679" data-name="Path 679" class="cls-5" d="M433.8,351.305H430V345.4h3.79Zm-2.643-1.147h1.5v-3.612h-1.5Z" transform="translate(-348.277 -294.099)"/>
        <path id="Path_680" data-name="Path 680" class="cls-5" d="M386.524,388.391H383V382.75h3.526Zm-2.379-1.147h1.233V383.9h-1.231Z" transform="translate(-310.259 -324.311)"/>
        <path id="Path_681" data-name="Path 681" class="cls-5" d="M410.043,388.391H406.51V382.75h3.533Zm-2.379-1.147H408.9V383.9h-1.233Z" transform="translate(-329.276 -324.311)"/>
        <path id="Path_682" data-name="Path 682" class="cls-5" d="M433.8,388.391H430V382.75h3.79Zm-2.643-1.147h1.5V383.9h-1.5Z" transform="translate(-348.277 -324.311)"/>
        <path id="Path_683" data-name="Path 683" class="cls-5" d="M386.524,425.741H383V420.1h3.526Zm-2.379-1.147h1.233v-3.348h-1.231Z" transform="translate(-310.259 -354.523)"/>
        <path id="Path_684" data-name="Path 684" class="cls-5" d="M410.043,425.741H406.51V420.1h3.533Zm-2.379-1.147H408.9v-3.348h-1.233Z" transform="translate(-329.276 -354.523)"/>
        <path id="Path_685" data-name="Path 685" class="cls-5" d="M433.8,425.741H430V420.1h3.79Zm-2.643-1.147h1.5v-3.348h-1.5Z" transform="translate(-348.277 -354.523)"/>
        <path id="Path_686" data-name="Path 686" class="cls-5" d="M386.524,461.711H383V456.07h3.526Zm-2.379-1.147h1.233v-3.348h-1.231Z" transform="translate(-310.259 -383.619)"/>
        <path id="Path_687" data-name="Path 687" class="cls-5" d="M410.043,461.711H406.51V456.07h3.533Zm-2.379-1.147H408.9v-3.348h-1.233Z" transform="translate(-329.276 -383.619)"/>
        <path id="Path_688" data-name="Path 688" class="cls-5" d="M433.8,461.711H430V456.07h3.79Zm-2.643-1.147h1.5v-3.348h-1.5Z" transform="translate(-348.277 -383.619)"/>
        <path id="Path_689" data-name="Path 689" class="cls-5" d="M386.524,499.061H383V493.42h3.526Zm-2.379-1.147h1.233v-3.348h-1.231Z" transform="translate(-310.259 -413.832)"/>
        <path id="Path_690" data-name="Path 690" class="cls-5" d="M410.043,499.061H406.51V493.42h3.533Zm-2.379-1.147H408.9v-3.348h-1.233Z" transform="translate(-329.276 -413.832)"/>
        <path id="Path_691" data-name="Path 691" class="cls-5" d="M433.8,499.061H430V493.42h3.79Zm-2.643-1.147h1.5v-3.348h-1.5Z" transform="translate(-348.277 -413.832)"/>
        <path id="Path_692" data-name="Path 692" class="cls-5" d="M386.524,535.029H383V529.39h3.526Zm-2.379-1.147h1.233v-3.346h-1.231Z" transform="translate(-310.259 -442.928)"/>
        <path id="Path_693" data-name="Path 693" class="cls-5" d="M410.043,535.029H406.51V529.39h3.533Zm-2.379-1.147H408.9v-3.346h-1.233Z" transform="translate(-329.276 -442.928)"/>
        <path id="Path_694" data-name="Path 694" class="cls-5" d="M433.8,535.029H430V529.39h3.79Zm-2.643-1.147h1.5v-3.346h-1.5Z" transform="translate(-348.277 -442.928)"/>
        <path id="Path_695" data-name="Path 695" class="cls-5" d="M500.348,384.049H483.34V338.49h17.008ZM484.487,382.9H499.2V339.637H484.487Z" transform="translate(-391.423 -288.509)"/>
        <path id="Path_696" data-name="Path 696" class="cls-5" d="M504,361.259H499.94V355.09H504Zm-2.909-1.147h1.762v-3.876h-1.762Z" transform="translate(-404.851 -301.937)"/>
        <path id="Path_697" data-name="Path 697" class="cls-5" d="M537.459,361.259H533.14V355.09h4.319Zm-3.172-1.147h2.026v-3.876h-2.026Z" transform="translate(-431.707 -301.937)"/>
        <path id="Path_698" data-name="Path 698" class="cls-5" d="M504,399.989H499.94V393.82H504Zm-2.909-1.147h1.762v-3.876h-1.762Z" transform="translate(-404.851 -333.265)"/>
        <path id="Path_699" data-name="Path 699" class="cls-5" d="M537.459,399.989H533.14V393.82h4.319Zm-3.172-1.147h2.026v-3.876h-2.026Z" transform="translate(-431.707 -333.265)"/>
        <path id="Path_700" data-name="Path 700" class="cls-5" d="M504,438.455H499.94V432.55H504Zm-2.909-1.147h1.762V433.7h-1.762Z" transform="translate(-404.851 -364.594)"/>
        <path id="Path_701" data-name="Path 701" class="cls-5" d="M537.459,438.455H533.14V432.55h4.319Zm-3.172-1.147h2.026V433.7h-2.026Z" transform="translate(-431.707 -364.594)"/>
        <path id="Path_702" data-name="Path 702" class="cls-5" d="M504,476.071H499.94V469.9H504Zm-2.909-1.147h1.762v-3.877h-1.762Z" transform="translate(-404.851 -394.806)"/>
        <path id="Path_703" data-name="Path 703" class="cls-5" d="M537.459,476.071H533.14V469.9h4.319Zm-3.172-1.147h2.026v-3.877h-2.026Z" transform="translate(-431.707 -394.806)"/>
        <path id="Path_704" data-name="Path 704" class="cls-5" d="M504,514.545H499.94V508.64H504Zm-2.909-1.147h1.762v-3.612h-1.762Z" transform="translate(-404.851 -426.143)"/>
        <path id="Path_705" data-name="Path 705" class="cls-5" d="M537.459,514.545H533.14V508.64h4.319Zm-3.172-1.147h2.026v-3.612h-2.026Z" transform="translate(-431.707 -426.143)"/>
      </g>
    </g>
  </g>
</svg>
