<svg xmlns="http://www.w3.org/2000/svg" xmlns:xlink="http://www.w3.org/1999/xlink" viewBox="-817 458.06 108 108">
  <defs>
    <style>
      .cls-1 {
        fill: none;
      }

      .cls-2 {
        clip-path: url(#clip-path);
      }

      .cls-3 {
        fill: #fff;
      }

      .cls-4 {
        fill: #fac35b;
      }

      .cls-5 {
        fill: #231f20;
      }
    </style>
    <clipPath id="clip-path">
      <circle id="Ellipse_11" data-name="Ellipse 11" class="cls-1" cx="54" cy="54" r="54"/>
    </clipPath>
  </defs>
  <g id="delhi" transform="translate(-823.55 455.06)">
    <g id="Capa_1" data-name="Capa 1" transform="translate(6.55 3)">
      <g id="Group_321" data-name="Group 321" class="cls-2" transform="translate(0 0)">
        <circle id="Ellipse_10" data-name="Ellipse 10" class="cls-3" cx="54" cy="54" r="54" transform="translate(-0.568 -0.568)"/>
        <g id="_Group_" data-name="&lt;Group&gt;" transform="translate(-1.21 24.834)">
          <path id="Path_270" data-name="Path 270" class="cls-4" d="M493.524,227.13l.11,4.617h-1.927a.582.582,0,0,0,.015-.131v-2.141a.585.585,0,0,0-1.169,0v2.141a.589.589,0,0,0,.015.131H488.64l.112-4.617Z" transform="translate(-396.097 -209.501)"/>
          <path id="Path_271" data-name="Path 271" class="cls-4" d="M495,213.08H490.83a2.114,2.114,0,0,1,4.168,0Z" transform="translate(-397.872 -196.689)"/>
          <path id="Path_272" data-name="Path 272" class="cls-4" d="M426.175,238.379h-3.5a1.792,1.792,0,0,1,3.5,0Z" transform="translate(-342.625 -217.471)"/>
          <path id="Path_273" data-name="Path 273" class="cls-4" d="M424.857,250.94l.095,3.92h-1.542a.324.324,0,0,0,0-.044v-1.883a.584.584,0,1,0-1.167,0v1.883a.324.324,0,0,0,0,.044H420.7l.095-3.92Z" transform="translate(-341.028 -228.8)"/>
          <path id="Path_274" data-name="Path 274" class="cls-4" d="M120.049,250.94l.095,3.92H118.6a.322.322,0,0,0,0-.044v-1.883a.585.585,0,1,0-1.169,0v1.883a.32.32,0,0,0,0,.044H115.89l.095-3.92Z" transform="translate(-93.966 -228.8)"/>
          <path id="Path_275" data-name="Path 275" class="cls-4" d="M48.89,227.13,49,231.747H47.073a.587.587,0,0,0,.015-.131v-2.141a.585.585,0,0,0-1.169,0v2.141a.587.587,0,0,0,.015.131H44l.112-4.617Z" transform="translate(-35.695 -209.501)"/>
          <path id="Path_276" data-name="Path 276" class="cls-4" d="M50.4,213.081H46.23a2.114,2.114,0,0,1,4.168,0Z" transform="translate(-37.503 -196.689)"/>
          <path id="Path_277" data-name="Path 277" class="cls-4" d="M121.383,238.4h-3.5a1.792,1.792,0,0,1,3.5,0Z" transform="translate(-95.579 -217.49)"/>
          <path id="Path_278" data-name="Path 278" class="cls-4" d="M188.809,293.41a.053.053,0,0,0,0,.017v3.833H182.1v-3.833a.053.053,0,0,0,0-.017Z" transform="translate(-147.632 -263.224)"/>
          <path id="Path_279" data-name="Path 279" class="cls-4" d="M186.3,269.652a4.113,4.113,0,0,1-.051.648H178.1a4.128,4.128,0,0,1,1.612-3.96h4.926A4.128,4.128,0,0,1,186.3,269.652Z" transform="translate(-144.349 -241.283)"/>
          <path id="Path_280" data-name="Path 280" class="cls-4" d="M191.4,250.079H186.28a18.116,18.116,0,0,0,2.554-2.359A17.915,17.915,0,0,0,191.4,250.079Z" transform="translate(-151.02 -226.191)"/>
          <path id="Path_281" data-name="Path 281" class="cls-5" d="M529.408,419.31a.585.585,0,0,1,0,1.169H522.23a.584.584,0,0,0,.583-.584v-.064l-.013-.521Z" transform="translate(-423.323 -365.272)"/>
          <path id="Path_282" data-name="Path 282" class="cls-5" d="M526.609,303.746a.585.585,0,1,1,0,1.169h-.379a.585.585,0,0,0,0-1.169Z" transform="translate(-426.565 -271.601)"/>
          <path id="Path_283" data-name="Path 283" class="cls-5" d="M524.68,360.73a.584.584,0,0,1,0,1.167h-.8l-.028-1.167Z" transform="translate(-424.636 -317.79)"/>
          <path id="Path_284" data-name="Path 284" class="cls-5" d="M523.148,303.75a.585.585,0,0,1,0,1.169h-.69l-.028-1.169Z" transform="translate(-423.485 -271.605)"/>
          <path id="Path_285" data-name="Path 285" class="cls-5" d="M521.869,251.5a.584.584,0,0,1,0,1.167H521.2l-.028-1.167Z" transform="translate(-422.464 -229.254)"/>
          <path id="Path_286" data-name="Path 286" class="cls-5" d="M520.03,220.6a.584.584,0,1,1,0,1.167h-.682l-.013-.527a.582.582,0,0,0-.261-.474.705.705,0,0,0-.013-.167Z" transform="translate(-420.754 -204.208)"/>
          <path id="Path_287" data-name="Path 287" class="cls-5" d="M487.25,419.839v.064a.583.583,0,0,1-.583.583h-7.724a.582.582,0,0,1-.584-.6l.013-.568h8.865Z" transform="translate(-387.763 -365.28)"/>
          <path id="Path_288" data-name="Path 288" class="cls-5" d="M518.959,366.89l.239,9.931h-1.167l-.241-9.931Z" transform="translate(-419.724 -322.783)"/>
          <path id="Path_289" data-name="Path 289" class="cls-5" d="M518.817,360.73l.028,1.167h-1.169l-.027-1.167Z" transform="translate(-419.611 -317.79)"/>
          <path id="Path_290" data-name="Path 290" class="cls-5" d="M517.587,309.92l.233,9.626h-1.167l-.233-9.626Z" transform="translate(-418.614 -276.606)"/>
          <path id="Path_291" data-name="Path 291" class="cls-5" d="M517.437,303.75l.028,1.169H516.3l-.028-1.169Z" transform="translate(-418.492 -271.605)"/>
          <path id="Path_292" data-name="Path 292" class="cls-5" d="M516.327,257.66l.21,8.732H515.37l-.21-8.732Z" transform="translate(-417.592 -234.247)"/>
          <path id="Path_293" data-name="Path 293" class="cls-5" d="M516.177,251.5l.028,1.167h-1.167l-.028-1.167Z" transform="translate(-417.471 -229.254)"/>
          <path id="Path_294" data-name="Path 294" class="cls-5" d="M515.587,226.76l.112,4.687h-1.167l-.112-4.617v-.07Z" transform="translate(-416.993 -209.201)"/>
          <path id="Path_295" data-name="Path 295" class="cls-5" d="M490.163,221.56l.013.527H483.07l.013-.527a.58.58,0,0,1,.26-.472v.18a.585.585,0,1,0,1.169,0,1.933,1.933,0,0,1,.019-.279h4.193a1.924,1.924,0,0,1,.019.279.585.585,0,1,0,1.169,0q0-.091,0-.189A.582.582,0,0,1,490.163,221.56Z" transform="translate(-391.582 -204.525)"/>
          <path id="Path_296" data-name="Path 296" class="cls-5" d="M514.048,221.1v.189a.585.585,0,1,1-1.169,0,1.942,1.942,0,0,0-.019-.279h.86A.582.582,0,0,1,514.048,221.1Z" transform="translate(-415.728 -204.54)"/>
          <path id="Path_297" data-name="Path 297" class="cls-5" d="M514.01,220.6c0,.055.011.112.013.167a.582.582,0,0,0-.322-.1h-.86a.454.454,0,0,0-.011-.07Z" transform="translate(-415.704 -204.208)"/>
          <path id="Path_298" data-name="Path 298" class="cls-5" d="M505.094,208.272h-1.18a2.116,2.116,0,0,0-2.084-1.766v-.318a.584.584,0,0,0,.584-.584v-.214A3.289,3.289,0,0,1,505.094,208.272Z" transform="translate(-406.788 -191.88)"/>
          <path id="Path_299" data-name="Path 299" class="cls-5" d="M491.883,360.73l.027,1.167H485.86l.028-1.167Z" transform="translate(-393.843 -317.79)"/>
          <path id="Path_300" data-name="Path 300" class="cls-5" d="M492.74,303.75l.028,1.169H487.24l.026-1.169Z" transform="translate(-394.962 -271.605)"/>
          <path id="Path_301" data-name="Path 301" class="cls-5" d="M493.512,251.5l.028,1.167H488.49l.028-1.167h1.929a.584.584,0,0,0,1.137,0Z" transform="translate(-395.975 -229.254)"/>
          <path id="Path_302" data-name="Path 302" class="cls-5" d="M488.531,226.76v.07h-4.772l-.112,4.617H482.48l.112-4.687Z" transform="translate(-391.104 -209.201)"/>
          <path id="Path_303" data-name="Path 303" class="cls-5" d="M494.953,220.7H490.76a.446.446,0,0,1,.011-.07h4.168A.455.455,0,0,1,494.953,220.7Z" transform="translate(-397.815 -204.233)"/>
          <path id="Path_304" data-name="Path 304" class="cls-5" d="M499.917,237.148v2.141a.586.586,0,0,1-.015.131h-1.137a.589.589,0,0,1-.015-.131v-2.141a.585.585,0,0,1,1.169,0Z" transform="translate(-404.291 -217.174)"/>
          <path id="Path_305" data-name="Path 305" class="cls-5" d="M499.909,205.163v.214a.585.585,0,0,1-1.169,0v-.214A3.246,3.246,0,0,1,499.909,205.163Z" transform="translate(-404.283 -191.653)"/>
          <path id="Path_306" data-name="Path 306" class="cls-5" d="M499.909,197.168v1.11a3.246,3.246,0,0,0-1.169,0v-1.11a.585.585,0,0,1,1.169,0Z" transform="translate(-404.283 -184.768)"/>
          <path id="Path_307" data-name="Path 307" class="cls-5" d="M498.82,251.5h1.137a.584.584,0,0,1-1.137,0Z" transform="translate(-404.348 -229.254)"/>
          <path id="Path_308" data-name="Path 308" class="cls-5" d="M487.864,206.188v.318a2.116,2.116,0,0,0-2.084,1.766H484.6a3.291,3.291,0,0,1,2.681-2.882v.214A.583.583,0,0,0,487.864,206.188Z" transform="translate(-392.822 -191.88)"/>
          <path id="Path_309" data-name="Path 309" class="cls-5" d="M484.525,220.6h1.18a.447.447,0,0,0-.011.07h-.858a.58.58,0,0,0-.326.1C484.514,220.712,484.519,220.657,484.525,220.6Z" transform="translate(-392.749 -204.208)"/>
          <path id="Path_310" data-name="Path 310" class="cls-5" d="M484.816,221h.858a1.924,1.924,0,0,0-.019.279.585.585,0,1,1-1.169,0v-.18A.58.58,0,0,1,484.816,221Z" transform="translate(-392.729 -204.533)"/>
          <path id="Path_311" data-name="Path 311" class="cls-5" d="M483.525,251.5l-.028,1.167H482.33l.028-1.167Z" transform="translate(-390.982 -229.254)"/>
          <path id="Path_312" data-name="Path 312" class="cls-5" d="M482.6,257.66l-.21,8.732H481.22l.21-8.732Z" transform="translate(-390.082 -234.247)"/>
          <path id="Path_313" data-name="Path 313" class="cls-5" d="M482.265,303.75l-.027,1.169H481.07l.028-1.169Z" transform="translate(-389.961 -271.605)"/>
          <path id="Path_314" data-name="Path 314" class="cls-5" d="M481.242,309.92l-.233,9.626H479.84l.233-9.626Z" transform="translate(-388.964 -276.606)"/>
          <path id="Path_315" data-name="Path 315" class="cls-5" d="M480.9,360.73l-.028,1.167H479.7l.026-1.167Z" transform="translate(-388.85 -317.79)"/>
          <path id="Path_316" data-name="Path 316" class="cls-5" d="M479.838,366.89l-.239,9.931H478.43l.241-9.931Z" transform="translate(-387.821 -322.783)"/>
          <path id="Path_317" data-name="Path 317" class="cls-5" d="M476.974,220.6h.97c0,.057-.011.112-.015.169a.58.58,0,0,0-.26.472l-.013.527h-.682a.584.584,0,1,1,0-1.167Z" transform="translate(-386.168 -204.208)"/>
          <path id="Path_318" data-name="Path 318" class="cls-5" d="M476.993,251.5l-.028,1.167h-.671a.584.584,0,0,1,0-1.167Z" transform="translate(-385.616 -229.254)"/>
          <path id="Path_319" data-name="Path 319" class="cls-5" d="M455.851,420.479H449.87a.584.584,0,0,0,.593-.584v-.064l-.013-.521h4.842l-.013.568a.582.582,0,0,0,.584.6Z" transform="translate(-364.672 -365.272)"/>
          <path id="Path_320" data-name="Path 320" class="cls-5" d="M475.786,303.75l-.028,1.169h-.69a.585.585,0,0,1,0-1.169Z" transform="translate(-384.648 -271.605)"/>
          <path id="Path_321" data-name="Path 321" class="cls-5" d="M473.761,360.73l-.026,1.167h-.811a.584.584,0,1,1,0-1.167Z" transform="translate(-382.885 -317.79)"/>
          <path id="Path_322" data-name="Path 322" class="cls-5" d="M473.058,303.75h.379a.585.585,0,0,0,0,1.169h-.379a.585.585,0,0,1,0-1.169Z" transform="translate(-383.019 -271.605)"/>
          <path id="Path_323" data-name="Path 323" class="cls-5" d="M453.717,317.616a.585.585,0,0,1,0,1.169h-.337a.585.585,0,1,0,0-1.169Z" transform="translate(-367.517 -282.844)"/>
          <path id="Path_324" data-name="Path 324" class="cls-5" d="M452.3,367.76a.584.584,0,0,1,0,1.167h-.64l-.028-1.167Z" transform="translate(-366.098 -323.488)"/>
          <path id="Path_325" data-name="Path 325" class="cls-5" d="M450.981,317.616a.585.585,0,1,1,0,1.169h-.532l-.028-1.169Z" transform="translate(-365.118 -282.844)"/>
          <path id="Path_326" data-name="Path 326" class="cls-5" d="M449.856,271.63a.585.585,0,0,1,0,1.169h-.517l-.028-1.169Z" transform="translate(-364.218 -245.571)"/>
          <path id="Path_327" data-name="Path 327" class="cls-5" d="M448.2,244.408a.585.585,0,1,1,0,1.169h-.529l-.013-.536a.568.568,0,0,0-.233-.451,1.113,1.113,0,0,0-.017-.189Z" transform="translate(-362.678 -223.499)"/>
          <path id="Path_328" data-name="Path 328" class="cls-5" d="M418.872,419.839v.064a.583.583,0,0,1-.583.583h-6.794a.585.585,0,0,1-.585-.6l.013-.568h7.94Z" transform="translate(-333.092 -365.28)"/>
          <path id="Path_329" data-name="Path 329" class="cls-5" d="M446.779,373.92l.207,8.6h-1.169l-.207-8.6Z" transform="translate(-361.219 -328.481)"/>
          <path id="Path_330" data-name="Path 330" class="cls-5" d="M446.629,367.76l.028,1.167h-1.169l-.028-1.167Z" transform="translate(-361.097 -323.488)"/>
          <path id="Path_331" data-name="Path 331" class="cls-5" d="M445.569,323.79l.2,8.33H444.6l-.2-8.33Z" transform="translate(-360.238 -287.849)"/>
          <path id="Path_332" data-name="Path 332" class="cls-5" d="M445.419,317.62l.028,1.169h-1.169l-.028-1.169Z" transform="translate(-360.117 -282.848)"/>
          <path id="Path_333" data-name="Path 333" class="cls-5" d="M444.459,277.8l.182,7.544h-1.169l-.182-7.544Z" transform="translate(-359.338 -250.572)"/>
          <path id="Path_334" data-name="Path 334" class="cls-5" d="M444.309,271.63l.028,1.169h-1.169l-.028-1.169Z" transform="translate(-359.217 -245.571)"/>
          <path id="Path_335" data-name="Path 335" class="cls-5" d="M443.807,250.61l.1,3.982h-1.169l-.095-3.92v-.062Z" transform="translate(-358.812 -228.533)"/>
          <path id="Path_336" data-name="Path 336" class="cls-5" d="M421.39,245.316l.013.536H415l.013-.536a.568.568,0,0,1,.231-.449v.189a.585.585,0,0,0,1.169,0,1.741,1.741,0,0,1,.028-.316h3.528a1.741,1.741,0,0,1,.028.316.584.584,0,0,0,1.167,0v-.189a.568.568,0,0,1,.225.449Z" transform="translate(-336.408 -223.775)"/>
          <path id="Path_337" data-name="Path 337" class="cls-5" d="M442.385,244.857v.189a.584.584,0,1,1-1.167,0,1.735,1.735,0,0,0-.028-.316h.837a.569.569,0,0,1,.358.127Z" transform="translate(-357.636 -223.767)"/>
          <path id="Path_338" data-name="Path 338" class="cls-5" d="M442.352,244.44q.011.091.017.189a.568.568,0,0,0-.35-.119h-.837l-.011-.062Z" transform="translate(-357.62 -223.532)"/>
          <path id="Path_339" data-name="Path 339" class="cls-5" d="M434.855,233.644h-1.182a1.8,1.8,0,0,0-1.752-1.413v-.28a.584.584,0,0,0,.583-.584v-.246A2.965,2.965,0,0,1,434.855,233.644Z" transform="translate(-350.123 -212.735)"/>
          <path id="Path_340" data-name="Path 340" class="cls-5" d="M423.389,367.76l.028,1.167H418.23l.028-1.167Z" transform="translate(-339.026 -323.488)"/>
          <path id="Path_341" data-name="Path 341" class="cls-5" d="M424.14,317.62l.028,1.169H419.44l.028-1.169Z" transform="translate(-340.007 -282.848)"/>
          <path id="Path_342" data-name="Path 342" class="cls-5" d="M424.83,271.63l.028,1.169H420.55l.028-1.169h1.544a.584.584,0,0,0,1.163,0Z" transform="translate(-340.907 -245.571)"/>
          <path id="Path_343" data-name="Path 343" class="cls-5" d="M419.856,250.61v.063h-4.062l-.095,3.92H414.53l.1-3.982Z" transform="translate(-336.027 -228.533)"/>
          <path id="Path_344" data-name="Path 344" class="cls-5" d="M426.138,244.5H422.61l.011-.063h3.5Z" transform="translate(-342.576 -223.532)"/>
          <path id="Path_345" data-name="Path 345" class="cls-5" d="M430.02,258.964v1.883a.325.325,0,0,1,0,.044h-1.163a.306.306,0,0,1,0-.044v-1.883a.583.583,0,1,1,1.167,0Z" transform="translate(-347.639 -234.831)"/>
          <path id="Path_346" data-name="Path 346" class="cls-5" d="M430.007,230.869v.246a.583.583,0,1,1-1.167,0v-.246A2.929,2.929,0,0,1,430.007,230.869Z" transform="translate(-347.626 -212.484)"/>
          <path id="Path_347" data-name="Path 347" class="cls-5" d="M430.007,223.774v.919a2.93,2.93,0,0,0-1.167,0v-.919a.584.584,0,1,1,1.167,0Z" transform="translate(-347.626 -206.308)"/>
          <path id="Path_348" data-name="Path 348" class="cls-5" d="M428.85,271.63h1.165a.584.584,0,0,1-1.163,0Z" transform="translate(-347.634 -245.571)"/>
          <path id="Path_349" data-name="Path 349" class="cls-5" d="M419.357,231.966v.284a1.8,1.8,0,0,0-1.752,1.413H416.42a2.963,2.963,0,0,1,2.353-2.524v.246A.584.584,0,0,0,419.357,231.966Z" transform="translate(-337.559 -212.752)"/>
          <path id="Path_350" data-name="Path 350" class="cls-5" d="M416.347,244.44h1.184l-.011.063h-.837a.569.569,0,0,0-.352.121C416.332,244.561,416.339,244.5,416.347,244.44Z" transform="translate(-337.486 -223.532)"/>
          <path id="Path_351" data-name="Path 351" class="cls-5" d="M416.65,244.77h.837a1.738,1.738,0,0,0-.028.316.585.585,0,0,1-1.169,0c0-.066,0-.131,0-.189A.568.568,0,0,1,416.65,244.77Z" transform="translate(-337.454 -223.799)"/>
          <path id="Path_352" data-name="Path 352" class="cls-5" d="M415.577,271.63l-.028,1.169H414.38l.028-1.169Z" transform="translate(-335.906 -245.571)"/>
          <path id="Path_353" data-name="Path 353" class="cls-5" d="M414.771,277.8l-.182,7.544H413.42l.182-7.544Z" transform="translate(-335.127 -250.572)"/>
          <path id="Path_354" data-name="Path 354" class="cls-5" d="M414.467,317.62l-.028,1.169H413.27l.028-1.169Z" transform="translate(-335.006 -282.848)"/>
          <path id="Path_355" data-name="Path 355" class="cls-5" d="M413.58,323.79l-.2,8.33H412.21l.2-8.33Z" transform="translate(-334.147 -287.849)"/>
          <path id="Path_356" data-name="Path 356" class="cls-5" d="M413.257,367.76l-.028,1.167H412.06l.028-1.167Z" transform="translate(-334.025 -323.488)"/>
          <path id="Path_357" data-name="Path 357" class="cls-5" d="M412.337,373.92l-.208,8.6H410.96l.208-8.6Z" transform="translate(-333.134 -328.481)"/>
          <path id="Path_358" data-name="Path 358" class="cls-5" d="M409.878,244.44h.792c0,.061-.015.121-.017.189a.568.568,0,0,0-.231.449l-.013.536h-.53a.585.585,0,0,1,0-1.169Z" transform="translate(-331.809 -223.532)"/>
          <path id="Path_359" data-name="Path 359" class="cls-5" d="M409.549,271.626l-.028,1.169H409a.585.585,0,1,1,0-1.169Z" transform="translate(-331.046 -245.567)"/>
          <path id="Path_360" data-name="Path 360" class="cls-5" d="M393,420.479H388.09a.584.584,0,0,0,.584-.584v-.585h3.757l-.013.568a.585.585,0,0,0,.585.6Z" transform="translate(-314.596 -365.272)"/>
          <path id="Path_361" data-name="Path 361" class="cls-5" d="M408.651,317.62l-.028,1.169h-.534a.585.585,0,0,1,0-1.169Z" transform="translate(-330.358 -282.848)"/>
          <path id="Path_362" data-name="Path 362" class="cls-5" d="M406.852,367.76l-.028,1.167h-.64a.584.584,0,0,1,0-1.167Z" transform="translate(-328.789 -323.488)"/>
          <path id="Path_363" data-name="Path 363" class="cls-5" d="M406.318,317.62h.335a.585.585,0,0,0,0,1.169h-.335a.585.585,0,0,1,0-1.169Z" transform="translate(-328.923 -282.848)"/>
          <path id="Path_364" data-name="Path 364" class="cls-5" d="M377.326,419.31v.585a.584.584,0,0,1-.583.584H374.09v-.134a.585.585,0,0,0,.585-.585v-.449h2.652Z" transform="translate(-303.249 -365.272)"/>
          <path id="Path_365" data-name="Path 365" class="cls-5" d="M351,314.405v19.4H349.83V314.991h-8.184v18.815h-.036V314.94a.587.587,0,0,0,.189.032h7.874a.584.584,0,0,0,.583-.584v-.568h.157a.583.583,0,0,1,.585.585Z" transform="translate(-276.922 -279.768)"/>
          <path id="Path_366" data-name="Path 366" class="cls-5" d="M346.916,269.652a5.256,5.256,0,0,1-.189,1.385.582.582,0,0,1-.568.432h-.03a.582.582,0,0,0-1.163,0h-6.7a18.568,18.568,0,0,1-1.356-.919h-.379v-2.363a5.289,5.289,0,0,1,.947-1.847h1.667a4.128,4.128,0,0,0-1.612,3.96h8.146a4.128,4.128,0,0,0-1.612-3.96h1.667A5.287,5.287,0,0,1,346.916,269.652Z" transform="translate(-272.805 -241.283)"/>
          <path id="Path_367" data-name="Path 367" class="cls-5" d="M368.106,245.445a.584.584,0,0,1-.337,1.061h-.237a5.373,5.373,0,0,0-1.152-1.067.583.583,0,0,0-.33-.1h-.1a17.914,17.914,0,0,1-2.554-2.359v-.3a.583.583,0,0,0,.583-.584v-.222l.169.189a17.025,17.025,0,0,0,2.99,2.7Z" transform="translate(-294.584 -221.449)"/>
          <path id="Path_368" data-name="Path 368" class="cls-5" d="M350.267,313.83v.568a.584.584,0,0,1-.583.583h-7.874a.586.586,0,0,1-.189-.032v-1.118h8.649Z" transform="translate(-276.93 -279.776)"/>
          <path id="Path_369" data-name="Path 369" class="cls-5" d="M353.574,293.427v3.852H345.7v-.019h6.707v-3.833a.053.053,0,0,1,0-.017h1.163A.053.053,0,0,1,353.574,293.427Z" transform="translate(-280.237 -263.224)"/>
          <path id="Path_370" data-name="Path 370" class="cls-5" d="M382.273,290.922H381.11a.582.582,0,0,1,1.163,0Z" transform="translate(-308.939 -260.736)"/>
          <path id="Path_371" data-name="Path 371" class="cls-5" d="M349.854,261.395H341.59a5.231,5.231,0,0,1,.493-.534h.294a.584.584,0,0,0,.568-.43l.049-.189a.4.4,0,0,1,.081,0h5.3a.584.584,0,0,1,.33.1A5.373,5.373,0,0,1,349.854,261.395Z" transform="translate(-276.906 -236.338)"/>
          <path id="Path_372" data-name="Path 372" class="cls-4" d="M349.9,269.652a4.109,4.109,0,0,1-.051.648H341.7a4.128,4.128,0,0,1,1.612-3.96h4.926A4.132,4.132,0,0,1,349.9,269.652Z" transform="translate(-276.954 -241.283)"/>
          <path id="Path_373" data-name="Path 373" class="cls-4" d="M352.409,293.41a.053.053,0,0,0,0,.017v3.833H345.7v-3.833a.053.053,0,0,0,0-.017Z" transform="translate(-280.237 -263.224)"/>
          <path id="Path_374" data-name="Path 374" class="cls-5" d="M354.854,419.31v.449a.585.585,0,0,1-.585.585h-4.043a.585.585,0,0,1-.585-.585v-.449Z" transform="translate(-283.431 -365.272)"/>
          <path id="Path_375" data-name="Path 375" class="cls-5" d="M354.854,383.806v4.63H349.64v-4.63a2.59,2.59,0,0,1,2.586-2.586h.042A2.59,2.59,0,0,1,354.854,383.806Zm-1.167,4.5v-4.5a1.419,1.419,0,0,0-1.417-1.417h-.042a1.419,1.419,0,0,0-1.417,1.417v4.5Z" transform="translate(-283.431 -334.398)"/>
          <path id="Path_376" data-name="Path 376" class="cls-5" d="M354.854,331.776v5.081a.584.584,0,0,1-.585.583h-4.043a.583.583,0,0,1-.585-.583v-5.081a2.59,2.59,0,0,1,2.586-2.586h.042A2.59,2.59,0,0,1,354.854,331.776Zm-1.167,4.5v-4.5a1.419,1.419,0,0,0-1.417-1.417h-.042a1.419,1.419,0,0,0-1.417,1.417v4.5Z" transform="translate(-283.431 -292.226)"/>
          <path id="Path_377" data-name="Path 377" class="cls-4" d="M355,250.079H349.88a18.014,18.014,0,0,0,2.554-2.359A17.913,17.913,0,0,0,355,250.079Z" transform="translate(-283.625 -226.19)"/>
          <path id="Path_378" data-name="Path 378" class="cls-5" d="M345.336,420.353v.134H338.62a.582.582,0,0,0,.568-.582v-.585H340.7v.449a.585.585,0,0,0,.585.585Z" transform="translate(-274.499 -365.28)"/>
          <path id="Path_379" data-name="Path 379" class="cls-5" d="M361.487,240.281v.214a.584.584,0,1,1-1.167,0v-.222l.142-.163a.585.585,0,0,1,.883,0Z" transform="translate(-292.087 -219.86)"/>
          <path id="Path_380" data-name="Path 380" class="cls-5" d="M361.487,231.444v1.5l-.142-.163a.585.585,0,0,0-.883,0l-.142.163v-1.5a.584.584,0,0,1,1.167,0Z" transform="translate(-292.087 -212.525)"/>
          <path id="Path_381" data-name="Path 381" class="cls-5" d="M351.712,242.667v.3a18.015,18.015,0,0,1-2.554,2.359h-.1a.4.4,0,0,0-.081,0,12.236,12.236,0,0,0,.3-1.614,16.569,16.569,0,0,0,1.677-1.665l.169-.189v.216a.584.584,0,0,0,.584.591Z" transform="translate(-282.896 -221.441)"/>
          <path id="Path_382" data-name="Path 382" class="cls-5" d="M316.443,196.966a12.642,12.642,0,0,1-.1,1.608,16.642,16.642,0,0,1-1.313,1.031l-.059.042a11.9,11.9,0,0,0-6.631-13.487h2.37a13.061,13.061,0,0,1,5.725,10.8Z" transform="translate(-249.955 -176.293)"/>
          <path id="Path_383" data-name="Path 383" class="cls-5" d="M339.782,251.69a12.246,12.246,0,0,1-.3,1.614.568.568,0,0,0-.248.095,5.292,5.292,0,0,0-.659.532H337.26a.582.582,0,0,1,.244-.527l.9-.64h0l.059-.042a16.63,16.63,0,0,0,1.315-1.033Z" transform="translate(-273.395 -229.408)"/>
          <path id="Path_384" data-name="Path 384" class="cls-5" d="M345.1,260.21c-.015.066-.032.131-.049.189a.583.583,0,0,1-.568.43h-.294a5.286,5.286,0,0,1,.659-.532A.569.569,0,0,1,345.1,260.21Z" transform="translate(-279.013 -236.314)"/>
          <path id="Path_385" data-name="Path 385" class="cls-5" d="M342.385,297.26v.019h-.775V293.41h.773a.053.053,0,0,1,0,.017Z" transform="translate(-276.922 -263.224)"/>
          <path id="Path_386" data-name="Path 386" class="cls-5" d="M342.253,290.977h-.773v-.335a.607.607,0,0,0-.03-.189.582.582,0,0,1,.8.523Z" transform="translate(-276.792 -260.791)"/>
          <path id="Path_387" data-name="Path 387" class="cls-5" d="M337.27,263.52h1.311a5.231,5.231,0,0,0-.493.534h-.237a.585.585,0,0,1-.557-.407A.485.485,0,0,1,337.27,263.52Z" transform="translate(-273.404 -238.997)"/>
          <path id="Path_388" data-name="Path 388" class="cls-4" d="M243.2,196.991a11.9,11.9,0,0,1-.305,2.681H219.7a12.022,12.022,0,0,1-.3-2.683,11.837,11.837,0,0,1,6.928-10.8h9.922a11.841,11.841,0,0,1,6.945,10.8Z" transform="translate(-177.865 -176.318)"/>
          <path id="Path_389" data-name="Path 389" class="cls-5" d="M343.332,257.35v0h0Z" transform="translate(-278.316 -233.996)"/>
          <path id="Path_390" data-name="Path 390" class="cls-5" d="M251.26,257.36l-.9.64a.581.581,0,0,0-.244.527h-.138v-.466a.585.585,0,0,0-1.169,0v.466H230.325v-.466a.585.585,0,0,0-.585-.584v-.117Z" transform="translate(-186.246 -234.004)"/>
          <path id="Path_391" data-name="Path 391" class="cls-5" d="M336.747,419.31v.585a.568.568,0,0,1-1.137,0v-.585Z" transform="translate(-272.059 -365.272)"/>
          <path id="Path_392" data-name="Path 392" class="cls-5" d="M336.747,314.948v18.866H335.61v-19.4a.584.584,0,0,1,.584-.584h.157v.568A.585.585,0,0,0,336.747,314.948Z" transform="translate(-272.059 -279.776)"/>
          <path id="Path_393" data-name="Path 393" class="cls-5" d="M339.932,313.822v1.118a.585.585,0,0,1-.392-.551v-.568Z" transform="translate(-275.244 -279.768)"/>
          <path id="Path_394" data-name="Path 394" class="cls-5" d="M339.929,293.41v3.869h-.392v-3.852a.05.05,0,0,1,0-.017Z" transform="translate(-275.241 -263.224)"/>
          <path id="Path_395" data-name="Path 395" class="cls-5" d="M339.94,290.838v.335h-.39a.582.582,0,0,1,.36-.523A.61.61,0,0,1,339.94,290.838Z" transform="translate(-275.252 -260.987)"/>
          <path id="Path_396" data-name="Path 396" class="cls-5" d="M336.577,288.56a.585.585,0,0,1,.553.4.582.582,0,0,0-.36.523h-.03a.582.582,0,0,1-.568-.432c-.019-.068-.036-.136-.051-.207a.606.606,0,0,0,.074-.28Z" transform="translate(-272.472 -259.293)"/>
          <path id="Path_397" data-name="Path 397" class="cls-5" d="M245.616,289.479a.054.054,0,0,0,0,.017v3.852h-.157a.583.583,0,0,0-.583.583v19.4h-.034v-23.6H224.435v23.6H224.4v-19.4a.584.584,0,0,0-.584-.583h-.157V289.5a.054.054,0,0,0,0-.017h.03a.582.582,0,0,0,.568-.432c.019-.068.036-.136.051-.207a.585.585,0,0,0,1.1-.28h18.479a.585.585,0,0,0,1.1.28c.015.07.032.138.051.207a.582.582,0,0,0,.568.432Z" transform="translate(-181.318 -259.293)"/>
          <path id="Path_398" data-name="Path 398" class="cls-5" d="M338.71,425.48Z" transform="translate(-274.572 -370.273)"/>
          <path id="Path_399" data-name="Path 399" class="cls-5" d="M327.58,420.469H325a.583.583,0,0,0,.583-.584V419.3h1.427v.585A.582.582,0,0,0,327.58,420.469Z" transform="translate(-263.459 -365.264)"/>
          <path id="Path_400" data-name="Path 400" class="cls-5" d="M335.656,276.09v2.363h-.131A5.32,5.32,0,0,1,335.656,276.09Z" transform="translate(-271.929 -249.186)"/>
          <path id="Path_401" data-name="Path 401" class="cls-5" d="M331.539,263.52V265.9a5.32,5.32,0,0,0-.131,2.362H330.37v-4.736Z" transform="translate(-267.812 -238.997)"/>
          <path id="Path_402" data-name="Path 402" class="cls-5" d="M331.539,258.7v.466H330.37V258.7a.585.585,0,0,1,1.169,0Z" transform="translate(-267.812 -234.641)"/>
          <path id="Path_403" data-name="Path 403" class="cls-5" d="M335.85,288.56h.131a.606.606,0,0,1-.074.28A2.368,2.368,0,0,1,335.85,288.56Z" transform="translate(-272.253 -259.293)"/>
          <path id="Path_404" data-name="Path 404" class="cls-5" d="M331.408,288.56c.017.095.034.189.057.28a.585.585,0,0,1-1.1-.28Z" transform="translate(-267.812 -259.293)"/>
          <path id="Path_405" data-name="Path 405" class="cls-4" d="M251.309,268.266H232.83V263.53h18.479Z" transform="translate(-188.751 -239.005)"/>
          <path id="Path_406" data-name="Path 406" class="cls-5" d="M314.045,419.31v.585a.584.584,0,0,1-.583.584h-2.7a.584.584,0,0,0,.583-.584v-.585Z" transform="translate(-251.917 -365.272)"/>
          <path id="Path_407" data-name="Path 407" class="cls-5" d="M253.676,302.723v21.615h-1.167V303.309H237.447v21.029H236.28V302.723a.584.584,0,0,1,.584-.583h16.225a.584.584,0,0,1,.587.583Z" transform="translate(-191.547 -270.3)"/>
          <path id="Path_408" data-name="Path 408" class="cls-5" d="M290.183,155.9a.584.584,0,0,1-.313,1.078h-.324a12.942,12.942,0,0,0-2.128-1.167h.443a30.346,30.346,0,0,1-5.515-4.448l-.127-.129v-.254a.583.583,0,0,0,.583-.584v-.239l.379.39a29.294,29.294,0,0,0,5.3,4.284Z" transform="translate(-228.784 -147.114)"/>
          <path id="Path_409" data-name="Path 409" class="cls-5" d="M258.154,181.167h-2.37c-.131-.061-.265-.117-.4-.174h-9.122c-.135.057-.269.114-.4.174H243.49A12.94,12.94,0,0,1,245.618,180h10.409A12.938,12.938,0,0,1,258.154,181.167Z" transform="translate(-197.391 -171.3)"/>
          <path id="Path_410" data-name="Path 410" class="cls-5" d="M262.532,419.31v.585a.584.584,0,0,1-.584.584H251.124a.584.584,0,0,1-.584-.584v-.585Z" transform="translate(-203.106 -365.272)"/>
          <path id="Path_411" data-name="Path 411" class="cls-5" d="M262.532,325.2v13.012h-1.167V325.2a4.78,4.78,0,0,0-4.774-4.774h-.108a4.78,4.78,0,0,0-4.776,4.774v13.012H250.54V325.2a5.949,5.949,0,0,1,5.943-5.943h.108A5.949,5.949,0,0,1,262.532,325.2Z" transform="translate(-203.106 -284.177)"/>
          <path id="Path_412" data-name="Path 412" class="cls-4" d="M263.7,160.417h-.438c-.1-.045-.2-.089-.309-.131a.583.583,0,0,0-.22-.044h-9.357a.583.583,0,0,0-.22.044c-.1.042-.207.085-.309.131h-.438a30.283,30.283,0,0,0,5.515-4.448l.127-.129.127.129a30.345,30.345,0,0,0,5.521,4.448Z" transform="translate(-204.621 -151.717)"/>
          <path id="Path_413" data-name="Path 413" class="cls-5" d="M265.129,179.254H254.72c.1-.045.2-.089.309-.131a.584.584,0,0,1,.22-.044H264.6a.584.584,0,0,1,.22.044C264.924,179.163,265.026,179.207,265.129,179.254Z" transform="translate(-206.494 -170.555)"/>
          <path id="Path_414" data-name="Path 414" class="cls-5" d="M265.924,185.414H256c.131-.061.265-.117.4-.174h9.122C265.662,185.3,265.793,185.354,265.924,185.414Z" transform="translate(-207.531 -175.548)"/>
          <path id="Path_415" data-name="Path 415" class="cls-5" d="M280.277,148.667v.239a.584.584,0,0,1-1.167,0v-.239l.165-.169a.582.582,0,0,1,.837,0Z" transform="translate(-226.263 -145.623)"/>
          <path id="Path_416" data-name="Path 416" class="cls-5" d="M280.277,134.664v2.463l-.165-.169a.582.582,0,0,0-.837,0l-.165.169v-2.463a.584.584,0,0,1,1.167,0Z" transform="translate(-226.263 -134.08)"/>
          <path id="Path_417" data-name="Path 417" class="cls-5" d="M246.935,150.98v.254l-.127.129a30.28,30.28,0,0,1-5.515,4.45h.438a12.941,12.941,0,0,0-2.128,1.169h-.322a.584.584,0,0,1-.313-1.078l1.69-1.07a29.229,29.229,0,0,0,5.3-4.284l.379-.39v.239a.584.584,0,0,0,.593.582Z" transform="translate(-193.505 -147.114)"/>
          <path id="Path_418" data-name="Path 418" class="cls-5" d="M218.989,186.16h2.37a11.837,11.837,0,0,0-6.928,10.8,12.021,12.021,0,0,0,.3,2.683h1.648v.129a.584.584,0,0,0-.584.584v.466h-.138a.585.585,0,0,0-.244-.527l-.964-.684c-.366-.26-.72-.53-1.061-.817a13.057,13.057,0,0,1,5.6-12.629Z" transform="translate(-172.89 -176.293)"/>
          <path id="Path_419" data-name="Path 419" class="cls-5" d="M239.565,420.479h-2.7a.584.584,0,0,1-.584-.584v-.585h2.7v.585A.584.584,0,0,0,239.565,420.479Z" transform="translate(-191.547 -365.272)"/>
          <path id="Path_420" data-name="Path 420" class="cls-5" d="M227.38,420.487h-2.8a.582.582,0,0,0,.568-.582v-.585h1.65v.585A.584.584,0,0,0,227.38,420.487Z" transform="translate(-182.064 -365.28)"/>
          <path id="Path_421" data-name="Path 421" class="cls-5" d="M227.829,263.52v4.736h-1.038a5.32,5.32,0,0,0-.131-2.362V263.52Z" transform="translate(-183.75 -238.997)"/>
          <path id="Path_422" data-name="Path 422" class="cls-5" d="M227.829,258.7v.466H226.66V258.7a.585.585,0,0,1,1.169,0Z" transform="translate(-183.75 -234.641)"/>
          <path id="Path_423" data-name="Path 423" class="cls-5" d="M227.107,288.56h1.038a.585.585,0,0,1-1.1.28C227.073,288.748,227.09,288.655,227.107,288.56Z" transform="translate(-184.066 -259.293)"/>
          <path id="Path_424" data-name="Path 424" class="cls-5" d="M222.707,419.31v.585a.568.568,0,0,1-1.137,0v-.585Z" transform="translate(-179.624 -365.272)"/>
          <path id="Path_425" data-name="Path 425" class="cls-5" d="M222.707,314.405v19.4H221.57V314.94a.585.585,0,0,0,.392-.551v-.568h.157a.584.584,0,0,1,.587.585Z" transform="translate(-179.624 -279.768)"/>
          <path id="Path_426" data-name="Path 426" class="cls-5" d="M226.867,277.554a5.275,5.275,0,0,1-.076.9h-.131V276.09a5.251,5.251,0,0,1,.206,1.465Z" transform="translate(-183.75 -249.186)"/>
          <path id="Path_427" data-name="Path 427" class="cls-5" d="M226.66,288.56h.131c-.017.095-.034.189-.057.28A.606.606,0,0,1,226.66,288.56Z" transform="translate(-183.75 -259.293)"/>
          <path id="Path_428" data-name="Path 428" class="cls-5" d="M222.73,288.8c-.015.07-.032.138-.051.207a.582.582,0,0,1-.568.432h-.03a.582.582,0,0,0-.36-.523.6.6,0,0,1,.568-.4h.379A.606.606,0,0,0,222.73,288.8Z" transform="translate(-179.746 -259.261)"/>
          <path id="Path_429" data-name="Path 429" class="cls-5" d="M215.385,270.536h-.379a.591.591,0,0,0-.379.133l-.263-.379a4.126,4.126,0,0,0-1.614-3.96h1.669a5.289,5.289,0,0,1,.947,1.847Z" transform="translate(-172.475 -241.275)"/>
          <path id="Path_430" data-name="Path 430" class="cls-5" d="M215.975,254.32a.585.585,0,0,1,.244.527h-1.313a5.291,5.291,0,0,0-.659-.532h0a12.5,12.5,0,0,1-.3-1.495c.341.286.7.557,1.061.817Z" transform="translate(-173.448 -230.324)"/>
          <path id="Path_431" data-name="Path 431" class="cls-5" d="M219,263.52h1.311a.6.6,0,0,1-.025.127.585.585,0,0,1-.557.407h-.237A5.232,5.232,0,0,0,219,263.52Z" transform="translate(-177.541 -238.997)"/>
          <path id="Path_432" data-name="Path 432" class="cls-5" d="M224.67,425.48Z" transform="translate(-182.137 -370.273)"/>
          <path id="Path_433" data-name="Path 433" class="cls-5" d="M213.143,420.469H210.47v-.134a.584.584,0,0,0,.584-.585V419.3h1.516v.585a.582.582,0,0,0,.574.584Z" transform="translate(-170.627 -365.264)"/>
          <path id="Path_434" data-name="Path 434" class="cls-5" d="M221.982,313.83v.568a.585.585,0,0,1-.392.551v-1.118Z" transform="translate(-179.64 -279.776)"/>
          <path id="Path_435" data-name="Path 435" class="cls-5" d="M221.982,293.427v3.852h-.392V293.41h.39A.053.053,0,0,1,221.982,293.427Z" transform="translate(-179.64 -263.224)"/>
          <path id="Path_436" data-name="Path 436" class="cls-5" d="M221.98,291.165h-.39v-.335a.607.607,0,0,1,.03-.189.582.582,0,0,1,.36.525Z" transform="translate(-179.64 -260.979)"/>
          <path id="Path_437" data-name="Path 437" class="cls-5" d="M181.211,270.3l.263.379a.526.526,0,0,1-.729.314.582.582,0,0,0-.264.473h-6.7a.584.584,0,0,0-1.165,0h-.028a.585.585,0,0,1-.568-.432A5.3,5.3,0,0,1,173,266.34h1.669a4.128,4.128,0,0,0-1.612,3.96Z" transform="translate(-139.313 -241.283)"/>
          <path id="Path_438" data-name="Path 438" class="cls-5" d="M218.313,290.47a.607.607,0,0,0-.03.189v.335h-.773a.582.582,0,0,1,.8-.523Z" transform="translate(-176.333 -260.807)"/>
          <path id="Path_439" data-name="Path 439" class="cls-5" d="M186.262,261.339H178a5.339,5.339,0,0,1,1.154-1.067.584.584,0,0,1,.33-.1h5.3a.583.583,0,0,1,.328.1.407.407,0,0,0,.027.1.585.585,0,0,0,.568.43h.057A5.243,5.243,0,0,1,186.262,261.339Z" transform="translate(-144.309 -236.282)"/>
          <path id="Path_440" data-name="Path 440" class="cls-5" d="M181.4,314.948v18.866h-.036V315h-8.186v18.815H172v-19.4a.584.584,0,0,1,.584-.584h.155v.568a.584.584,0,0,0,.587.582H181.2A.588.588,0,0,0,181.4,314.948Z" transform="translate(-139.445 -279.776)"/>
          <path id="Path_441" data-name="Path 441" class="cls-5" d="M184.564,313.822v1.118a.587.587,0,0,1-.189.032H176.5a.584.584,0,0,1-.585-.584v-.568h8.65Z" transform="translate(-142.615 -279.768)"/>
          <path id="Path_442" data-name="Path 442" class="cls-5" d="M189.582,293.41v3.869H182.1v-.019h6.707v-3.833a.055.055,0,0,1,0-.017Z" transform="translate(-147.632 -263.224)"/>
          <path id="Path_443" data-name="Path 443" class="cls-5" d="M216.155,261.242h-.07a.585.585,0,0,1-.568-.43.508.508,0,0,0-.027-.1h0A5.293,5.293,0,0,1,216.155,261.242Z" transform="translate(-174.696 -236.719)"/>
          <path id="Path_444" data-name="Path 444" class="cls-5" d="M202.778,245.447a.584.584,0,0,0-.328-.1h-.1a17.912,17.912,0,0,1-2.554-2.359v-.3a.584.584,0,0,0,.583-.584v-.22l.169.189a16.456,16.456,0,0,0,1.938,1.883A12.485,12.485,0,0,0,202.778,245.447Z" transform="translate(-161.979 -221.457)"/>
          <path id="Path_445" data-name="Path 445" class="cls-5" d="M191.252,419.31v.449a.583.583,0,0,1-.584.585h-4.045a.584.584,0,0,1-.584-.585v-.449Z" transform="translate(-150.825 -365.272)"/>
          <path id="Path_446" data-name="Path 446" class="cls-5" d="M191.219,383.806v4.63H186v-4.63a2.588,2.588,0,0,1,2.586-2.586h.04a2.588,2.588,0,0,1,2.594,2.586Zm-1.167,4.5v-4.5a1.419,1.419,0,0,0-1.419-1.417h-.04a1.417,1.417,0,0,0-1.417,1.417v4.5Z" transform="translate(-150.793 -334.398)"/>
          <path id="Path_447" data-name="Path 447" class="cls-5" d="M191.252,331.776v5.081a.584.584,0,0,1-.584.583h-4.045a.583.583,0,0,1-.584-.583v-5.081a2.59,2.59,0,0,1,2.586-2.586h.04A2.59,2.59,0,0,1,191.252,331.776Zm-1.167,4.5v-4.5a1.421,1.421,0,0,0-1.419-1.417h-.04a1.419,1.419,0,0,0-1.417,1.417v4.5Z" transform="translate(-150.825 -292.226)"/>
          <path id="Path_448" data-name="Path 448" class="cls-5" d="M179.288,420.344v.134h-6.7A.584.584,0,0,1,172,419.9v-.585h2.652v.449a.583.583,0,0,0,.584.585Z" transform="translate(-139.445 -365.272)"/>
          <path id="Path_449" data-name="Path 449" class="cls-5" d="M197.879,240.355v.212a.585.585,0,0,1-1.169,0v-.218l.144-.167a.6.6,0,0,1,.881.017Z" transform="translate(-159.474 -219.932)"/>
          <path id="Path_450" data-name="Path 450" class="cls-5" d="M197.879,231.618v1.5l-.144-.165a.593.593,0,0,0-.881.009l-.144.167v-1.506a.585.585,0,0,1,1.169,0Z" transform="translate(-159.474 -212.7)"/>
          <path id="Path_451" data-name="Path 451" class="cls-5" d="M178.614,242.7v.3a18.115,18.115,0,0,1-2.554,2.359h-.1a.583.583,0,0,0-.33.1,5.337,5.337,0,0,0-1.154,1.067h-.235a.585.585,0,0,1-.339-1.061l.966-.684a17.023,17.023,0,0,0,2.99-2.7l.167-.189v.208a.585.585,0,0,0,.585.591Z" transform="translate(-140.792 -221.473)"/>
          <path id="Path_452" data-name="Path 452" class="cls-5" d="M177.1,297.26v.019h-1.169v-3.852a.053.053,0,0,1,0-.017h1.165a.053.053,0,0,1,0,.017Z" transform="translate(-142.628 -263.224)"/>
          <path id="Path_453" data-name="Path 453" class="cls-5" d="M177.105,291.056H175.94a.584.584,0,0,1,1.165,0Z" transform="translate(-142.639 -260.87)"/>
          <path id="Path_454" data-name="Path 454" class="cls-5" d="M150.794,420.487H145.11a.568.568,0,0,0,.417-.176.585.585,0,0,0,.167-.422l-.013-.568H150.2v.585a.583.583,0,0,0,.589.582Z" transform="translate(-117.65 -365.28)"/>
          <path id="Path_455" data-name="Path 455" class="cls-5" d="M148.925,317.616a.585.585,0,1,1,0,1.169h-.335a.585.585,0,0,0,0-1.169Z" transform="translate(-120.47 -282.844)"/>
          <path id="Path_456" data-name="Path 456" class="cls-5" d="M147.515,367.76a.584.584,0,1,1,0,1.167h-.637l-.028-1.167Z" transform="translate(-119.06 -323.488)"/>
          <path id="Path_457" data-name="Path 457" class="cls-5" d="M146.183,317.62a.585.585,0,0,1,0,1.169h-.534l-.028-1.169Z" transform="translate(-118.063 -282.848)"/>
          <path id="Path_458" data-name="Path 458" class="cls-5" d="M145.066,271.63a.585.585,0,0,1,0,1.169h-.519l-.027-1.169Z" transform="translate(-117.172 -245.571)"/>
          <path id="Path_459" data-name="Path 459" class="cls-5" d="M143.4,244.408a.585.585,0,0,1,0,1.169h-.53l-.013-.536a.568.568,0,0,0-.233-.451,1.111,1.111,0,0,0-.017-.189Z" transform="translate(-115.623 -223.499)"/>
          <path id="Path_460" data-name="Path 460" class="cls-5" d="M114.066,419.888a.585.585,0,0,1-.167.422.568.568,0,0,1-.417.176h-6.8a.568.568,0,0,1-.417-.176.585.585,0,0,1-.167-.422l.013-.568h7.94Z" transform="translate(-86.03 -365.28)"/>
          <path id="Path_461" data-name="Path 461" class="cls-5" d="M141.979,373.92l.208,8.6h-1.169l-.208-8.6Z" transform="translate(-114.164 -328.481)"/>
          <path id="Path_462" data-name="Path 462" class="cls-5" d="M141.829,367.76l.028,1.167h-1.169l-.028-1.167Z" transform="translate(-114.043 -323.488)"/>
          <path id="Path_463" data-name="Path 463" class="cls-5" d="M140.769,323.79l.2,8.33H139.8l-.2-8.33Z" transform="translate(-113.184 -287.849)"/>
          <path id="Path_464" data-name="Path 464" class="cls-5" d="M140.619,317.62l.028,1.169h-1.169l-.028-1.169Z" transform="translate(-113.062 -282.848)"/>
          <path id="Path_465" data-name="Path 465" class="cls-5" d="M139.659,277.8l.182,7.544h-1.169l-.182-7.544Z" transform="translate(-112.284 -250.572)"/>
          <path id="Path_466" data-name="Path 466" class="cls-5" d="M139.511,271.63l.027,1.169h-1.169l-.028-1.169Z" transform="translate(-112.162 -245.571)"/>
          <path id="Path_467" data-name="Path 467" class="cls-5" d="M139.009,250.61l.1,3.982h-1.171l-.095-3.92v-.062Z" transform="translate(-111.757 -228.533)"/>
          <path id="Path_468" data-name="Path 468" class="cls-5" d="M116.625,245.308l.013.536h-6.4l.013-.536a.568.568,0,0,1,.233-.451v.189a.585.585,0,0,0,1.169,0,1.738,1.738,0,0,1,.028-.316h3.526a1.74,1.74,0,0,1,.028.316.585.585,0,0,0,1.169,0v-.189A.568.568,0,0,1,116.625,245.308Z" transform="translate(-89.386 -223.767)"/>
          <path id="Path_469" data-name="Path 469" class="cls-5" d="M137.587,244.857v.189a.585.585,0,0,1-1.169,0,1.74,1.74,0,0,0-.028-.316h.837A.586.586,0,0,1,137.587,244.857Z" transform="translate(-110.582 -223.767)"/>
          <path id="Path_470" data-name="Path 470" class="cls-5" d="M137.554,244.44q.011.091.017.189a.586.586,0,0,0-.352-.119h-.837l-.011-.062Z" transform="translate(-110.566 -223.532)"/>
          <path id="Path_471" data-name="Path 471" class="cls-5" d="M130.065,233.644h-1.184a1.8,1.8,0,0,0-1.751-1.413v-.28a.584.584,0,0,0,.583-.584v-.246a2.965,2.965,0,0,1,2.351,2.524Z" transform="translate(-103.076 -212.735)"/>
          <path id="Path_472" data-name="Path 472" class="cls-5" d="M118.6,367.76l.028,1.167H113.44l.028-1.167Z" transform="translate(-91.98 -323.488)"/>
          <path id="Path_473" data-name="Path 473" class="cls-5" d="M119.348,317.62l.028,1.169H114.65l.028-1.169Z" transform="translate(-92.961 -282.848)"/>
          <path id="Path_474" data-name="Path 474" class="cls-5" d="M120.038,271.63l.028,1.169H115.76l.028-1.169h1.542a.584.584,0,0,0,1.165,0Z" transform="translate(-93.86 -245.571)"/>
          <path id="Path_475" data-name="Path 475" class="cls-5" d="M115.056,250.61v.063H111l-.095,3.92H109.73l.1-3.982Z" transform="translate(-88.973 -228.533)"/>
          <path id="Path_476" data-name="Path 476" class="cls-5" d="M121.346,244.5H117.82l.011-.063h3.5Z" transform="translate(-95.53 -223.532)"/>
          <path id="Path_477" data-name="Path 477" class="cls-5" d="M125.221,258.813V260.7a.324.324,0,0,1,0,.044h-1.165a.32.32,0,0,1,0-.044v-1.883a.585.585,0,1,1,1.169,0Z" transform="translate(-100.584 -234.68)"/>
          <path id="Path_478" data-name="Path 478" class="cls-5" d="M125.209,230.869v.246a.585.585,0,0,1-1.169,0v-.246A2.939,2.939,0,0,1,125.209,230.869Z" transform="translate(-100.572 -212.484)"/>
          <path id="Path_479" data-name="Path 479" class="cls-5" d="M125.209,223.908v.919a2.938,2.938,0,0,0-1.169,0v-.919a.585.585,0,0,1,1.169,0Z" transform="translate(-100.572 -206.442)"/>
          <path id="Path_480" data-name="Path 480" class="cls-5" d="M124.05,271.63h1.165a.584.584,0,0,1-1.165,0Z" transform="translate(-100.58 -245.571)"/>
          <path id="Path_481" data-name="Path 481" class="cls-5" d="M114.567,231.95v.284a1.8,1.8,0,0,0-1.752,1.413H111.63a2.965,2.965,0,0,1,2.344-2.527v.246a.584.584,0,0,0,.593.584Z" transform="translate(-90.513 -212.735)"/>
          <path id="Path_482" data-name="Path 482" class="cls-5" d="M111.557,244.44h1.184l-.011.063h-.837a.585.585,0,0,0-.352.119Q111.546,244.531,111.557,244.44Z" transform="translate(-90.44 -223.532)"/>
          <path id="Path_483" data-name="Path 483" class="cls-5" d="M111.86,244.77h.837a1.737,1.737,0,0,0-.028.316.585.585,0,0,1-1.169,0V244.9A.585.585,0,0,1,111.86,244.77Z" transform="translate(-90.407 -223.799)"/>
          <path id="Path_484" data-name="Path 484" class="cls-5" d="M110.787,271.63l-.028,1.169H109.59l.027-1.169Z" transform="translate(-88.859 -245.571)"/>
          <path id="Path_485" data-name="Path 485" class="cls-5" d="M109.981,277.8l-.182,7.544H108.63l.182-7.544Z" transform="translate(-88.081 -250.572)"/>
          <path id="Path_486" data-name="Path 486" class="cls-5" d="M109.677,317.62l-.028,1.169H108.48l.028-1.169Z" transform="translate(-87.959 -282.848)"/>
          <path id="Path_487" data-name="Path 487" class="cls-5" d="M108.79,323.79l-.2,8.33H107.42l.2-8.33Z" transform="translate(-87.1 -287.849)"/>
          <path id="Path_488" data-name="Path 488" class="cls-5" d="M108.467,367.76l-.028,1.167H107.27l.028-1.167Z" transform="translate(-86.979 -323.488)"/>
          <path id="Path_489" data-name="Path 489" class="cls-5" d="M107.547,373.92l-.208,8.6H106.17l.208-8.6Z" transform="translate(-86.087 -328.481)"/>
          <path id="Path_490" data-name="Path 490" class="cls-5" d="M105.088,244.44h.792q-.011.091-.017.189a.568.568,0,0,0-.233.451l-.013.536h-.529a.585.585,0,0,1,0-1.169Z" transform="translate(-84.763 -223.532)"/>
          <path id="Path_491" data-name="Path 491" class="cls-5" d="M105.033,271.63l-.027,1.169h-.519a.585.585,0,0,1,0-1.169Z" transform="translate(-84.276 -245.571)"/>
          <path id="Path_492" data-name="Path 492" class="cls-5" d="M83.591,420.487H77.61a.568.568,0,0,0,.417-.176.585.585,0,0,0,.167-.422l-.013-.568h4.841l-.013.568a.585.585,0,0,0,.167.422A.568.568,0,0,0,83.591,420.487Z" transform="translate(-62.938 -365.28)"/>
          <path id="Path_493" data-name="Path 493" class="cls-5" d="M103.86,317.62l-.028,1.169H103.3a.585.585,0,0,1,0-1.169Z" transform="translate(-83.312 -282.848)"/>
          <path id="Path_494" data-name="Path 494" class="cls-5" d="M102.062,367.76l-.028,1.167h-.64a.584.584,0,1,1,0-1.167Z" transform="translate(-81.743 -323.488)"/>
          <path id="Path_495" data-name="Path 495" class="cls-5" d="M101.243,317.616h.335a.585.585,0,0,0,0,1.169h-.335a.585.585,0,1,1,0-1.169Z" transform="translate(-81.592 -282.844)"/>
          <path id="Path_496" data-name="Path 496" class="cls-5" d="M82,303.746a.585.585,0,1,1,0,1.169H81.62a.585.585,0,0,0,0-1.169Z" transform="translate(-66.188 -271.601)"/>
          <path id="Path_497" data-name="Path 497" class="cls-5" d="M80.037,360.73a.584.584,0,1,1,0,1.167h-.809L79.2,360.73Z" transform="translate(-64.227 -317.79)"/>
          <path id="Path_498" data-name="Path 498" class="cls-5" d="M78.562,303.75a.585.585,0,0,1,0,1.169h-.684l-.028-1.169Z" transform="translate(-63.132 -271.605)"/>
          <path id="Path_499" data-name="Path 499" class="cls-5" d="M77.259,251.5a.584.584,0,1,1,0,1.167h-.671L76.56,251.5Z" transform="translate(-62.087 -229.254)"/>
          <path id="Path_500" data-name="Path 500" class="cls-5" d="M75.42,220.6a.584.584,0,1,1,0,1.167h-.676l-.019-.523a.58.58,0,0,0-.26-.472.636.636,0,0,0-.015-.169Z" transform="translate(-60.377 -204.208)"/>
          <path id="Path_501" data-name="Path 501" class="cls-5" d="M42.642,419.888a.585.585,0,0,1-.167.422.568.568,0,0,1-.417.176H34.332a.582.582,0,0,1-.584-.6l.013-.568h8.866Z" transform="translate(-27.386 -365.28)"/>
          <path id="Path_502" data-name="Path 502" class="cls-5" d="M74.349,366.89l.241,9.931H73.421l-.241-9.931Z" transform="translate(-59.347 -322.783)"/>
          <path id="Path_503" data-name="Path 503" class="cls-5" d="M74.207,360.73l.028,1.167H73.067l-.027-1.167Z" transform="translate(-59.234 -317.79)"/>
          <path id="Path_504" data-name="Path 504" class="cls-5" d="M72.979,309.92l.231,9.626H72.043l-.233-9.626Z" transform="translate(-58.237 -276.606)"/>
          <path id="Path_505" data-name="Path 505" class="cls-5" d="M72.829,303.75l.028,1.169H71.688l-.028-1.169Z" transform="translate(-58.115 -271.605)"/>
          <path id="Path_506" data-name="Path 506" class="cls-5" d="M71.717,257.66l.212,8.732H70.76l-.21-8.732Z" transform="translate(-57.215 -234.247)"/>
          <path id="Path_507" data-name="Path 507" class="cls-5" d="M71.567,251.5l.028,1.167H70.428L70.4,251.5Z" transform="translate(-57.094 -229.254)"/>
          <path id="Path_508" data-name="Path 508" class="cls-5" d="M70.977,226.76l.112,4.687H69.922l-.112-4.617v-.07Z" transform="translate(-56.616 -209.201)"/>
          <path id="Path_509" data-name="Path 509" class="cls-5" d="M45.553,221.56l.013.527H38.46l.013-.527a.589.589,0,0,1,.26-.472v.18a.585.585,0,1,0,1.169,0,1.929,1.929,0,0,1,.019-.278h4.191a1.93,1.93,0,0,1,.019.279.584.584,0,1,0,1.167,0v-.18A.58.58,0,0,1,45.553,221.56Z" transform="translate(-31.205 -204.525)"/>
          <path id="Path_510" data-name="Path 510" class="cls-5" d="M69.456,221.068v.18a.584.584,0,0,1-1.167,0,1.929,1.929,0,0,0-.019-.279h.858A.578.578,0,0,1,69.456,221.068Z" transform="translate(-55.367 -204.508)"/>
          <path id="Path_511" data-name="Path 511" class="cls-5" d="M69.408,220.6c0,.057.011.112.015.169a.578.578,0,0,0-.324-.1h-.858a.45.45,0,0,0-.011-.07Z" transform="translate(-55.335 -204.208)"/>
          <path id="Path_512" data-name="Path 512" class="cls-5" d="M60.492,208.272H59.314a2.116,2.116,0,0,0-2.084-1.766v-.318a.584.584,0,0,0,.584-.584v-.214A3.289,3.289,0,0,1,60.492,208.272Z" transform="translate(-46.419 -191.88)"/>
          <path id="Path_513" data-name="Path 513" class="cls-5" d="M47.281,360.73l.027,1.167H41.26l.027-1.167Z" transform="translate(-33.475 -317.79)"/>
          <path id="Path_514" data-name="Path 514" class="cls-5" d="M48.13,303.75l.028,1.169H42.63l.028-1.169Z" transform="translate(-34.585 -271.605)"/>
          <path id="Path_515" data-name="Path 515" class="cls-5" d="M48.912,251.5l.028,1.167H43.89l.021-1.167h1.934a.584.584,0,0,0,1.137,0Z" transform="translate(-35.606 -229.254)"/>
          <path id="Path_516" data-name="Path 516" class="cls-5" d="M43.921,226.76v.07h-4.77l-.112,4.617H37.87l.112-4.687Z" transform="translate(-30.727 -209.201)"/>
          <path id="Path_517" data-name="Path 517" class="cls-5" d="M50.345,220.7H46.15a.45.45,0,0,1,.011-.07h4.168A.45.45,0,0,1,50.345,220.7Z" transform="translate(-37.438 -204.233)"/>
          <path id="Path_518" data-name="Path 518" class="cls-5" d="M55.307,237.148v2.141a.587.587,0,0,1-.015.131H54.155a.587.587,0,0,1-.015-.131v-2.141a.585.585,0,0,1,1.169,0Z" transform="translate(-43.914 -217.174)"/>
          <path id="Path_519" data-name="Path 519" class="cls-5" d="M55.3,205.163v.214a.585.585,0,0,1-1.169,0v-.214A3.247,3.247,0,0,1,55.3,205.163Z" transform="translate(-43.906 -191.653)"/>
          <path id="Path_520" data-name="Path 520" class="cls-5" d="M55.3,197.168v1.11a3.247,3.247,0,0,0-1.169,0v-1.11a.585.585,0,0,1,1.169,0Z" transform="translate(-43.906 -184.768)"/>
          <path id="Path_521" data-name="Path 521" class="cls-5" d="M54.21,251.5h1.137a.584.584,0,0,1-1.137,0Z" transform="translate(-43.971 -229.254)"/>
          <path id="Path_522" data-name="Path 522" class="cls-5" d="M43.262,206.188v.318a2.116,2.116,0,0,0-2.084,1.766H40a3.291,3.291,0,0,1,2.681-2.882v.214a.584.584,0,0,0,.582.584Z" transform="translate(-32.453 -191.88)"/>
          <path id="Path_523" data-name="Path 523" class="cls-5" d="M39.919,220.6H41.1a.45.45,0,0,0-.011.07h-.862a.58.58,0,0,0-.326.1C39.9,220.712,39.919,220.657,39.919,220.6Z" transform="translate(-32.372 -204.208)"/>
          <path id="Path_524" data-name="Path 524" class="cls-5" d="M40.206,221h.858a1.929,1.929,0,0,0-.019.279.585.585,0,1,1-1.169,0v-.18A.58.58,0,0,1,40.206,221Z" transform="translate(-32.352 -204.533)"/>
          <path id="Path_525" data-name="Path 525" class="cls-5" d="M38.917,251.5l-.028,1.167H37.72l.028-1.167Z" transform="translate(-30.605 -229.254)"/>
          <path id="Path_526" data-name="Path 526" class="cls-5" d="M37.989,257.66l-.21,8.732H36.61l.21-8.732Z" transform="translate(-29.705 -234.247)"/>
          <path id="Path_527" data-name="Path 527" class="cls-5" d="M37.657,303.75l-.028,1.169H36.46l.028-1.169Z" transform="translate(-29.584 -271.605)"/>
          <path id="Path_528" data-name="Path 528" class="cls-5" d="M36.632,309.92l-.233,9.626H35.23l.233-9.626Z" transform="translate(-28.587 -276.606)"/>
          <path id="Path_529" data-name="Path 529" class="cls-5" d="M36.285,360.73l-.027,1.167H35.09l.027-1.167Z" transform="translate(-28.473 -317.79)"/>
          <path id="Path_530" data-name="Path 530" class="cls-5" d="M35.23,366.89l-.241,9.931H33.82l.241-9.931Z" transform="translate(-27.444 -322.783)"/>
          <path id="Path_531" data-name="Path 531" class="cls-5" d="M32.364,220.6h.974c0,.057-.011.112-.015.169a.589.589,0,0,0-.263.476l-.013.527h-.682a.584.584,0,0,1,0-1.167Z" transform="translate(-25.791 -204.208)"/>
          <path id="Path_532" data-name="Path 532" class="cls-5" d="M32.383,251.5l-.028,1.167h-.671a.584.584,0,1,1,0-1.167Z" transform="translate(-25.239 -229.254)"/>
          <path id="Path_533" data-name="Path 533" class="cls-5" d="M7.112,420.479H.718a.585.585,0,0,1,0-1.169H6.542l-.013.568a.582.582,0,0,0,.584.6Z" transform="translate(-0.166 -365.272)"/>
          <path id="Path_534" data-name="Path 534" class="cls-5" d="M31.176,303.75l-.028,1.169h-.69a.585.585,0,0,1,0-1.169Z" transform="translate(-24.271 -271.605)"/>
          <path id="Path_535" data-name="Path 535" class="cls-5" d="M29.151,360.73l-.027,1.167h-.811a.584.584,0,1,1,0-1.167Z" transform="translate(-22.508 -317.79)"/>
          <path id="Path_536" data-name="Path 536" class="cls-5" d="M28.448,303.75h.379a.585.585,0,0,0,0,1.169h-.379a.585.585,0,0,1,0-1.169Z" transform="translate(-22.642 -271.605)"/>
        </g>
      </g>
    </g>
  </g>
</svg>
