<svg xmlns="http://www.w3.org/2000/svg" xmlns:xlink="http://www.w3.org/1999/xlink" viewBox="-1114 176.3 107.76 107.76">
  <defs>
    <style>
      .cls-1 {
        fill: none;
      }

      .cls-2 {
        clip-path: url(#clip-path);
      }

      .cls-3 {
        fill: #f9f9fa;
      }

      .cls-4 {
        fill: #fac35b;
      }

      .cls-5 {
        fill: #fff;
      }

      .cls-6 {
        fill: #3a2823;
      }
    </style>
    <clipPath id="clip-path">
      <circle id="Ellipse_3" data-name="Ellipse 3" class="cls-1" cx="53.88" cy="53.88" r="53.88"/>
    </clipPath>
  </defs>
  <g id="london" transform="translate(-1115.58 177.53)">
    <g id="Capa_1" data-name="Capa 1" transform="translate(1.58 -1.23)">
      <g id="Group_305" data-name="Group 305" class="cls-2" transform="translate(0 0)">
        <circle id="Ellipse_1" data-name="Ellipse 1" class="cls-3" cx="53.685" cy="53.685" r="53.685" transform="translate(-0.299 0.233)"/>
        <rect id="Rectangle_162" data-name="Rectangle 162" class="cls-4" width="37.05" height="36.294" transform="translate(34.483 48.247)"/>
        <circle id="Ellipse_2" data-name="Ellipse 2" class="cls-5" cx="13.705" cy="13.705" r="13.705" transform="translate(39.02 52.595)"/>
        <path id="Path_89" data-name="Path 89" class="cls-6" d="M228.924,543.913H199.84a1.04,1.04,0,0,1-1.04-1.04V445.42a1.04,1.04,0,0,1,1.04-1.04h29.085a1.04,1.04,0,0,1,1.04,1.04v97.454A1.04,1.04,0,0,1,228.924,543.913Zm-28.045-2.079h27.005V446.459H200.879Z" transform="translate(-161.519 -360.378)"/>
        <path id="Path_90" data-name="Path 90" class="cls-6" d="M228.924,220.513H199.84a1.04,1.04,0,0,1-1.04-1.04V212.29a1.04,1.04,0,0,1,1.04-1.04h29.085a1.04,1.04,0,0,1,1.04,1.04v7.183A1.04,1.04,0,0,1,228.924,220.513Zm-28.045-2.079h27.005v-5.1H200.879Z" transform="translate(-161.519 -171.317)"/>
        <path id="Path_91" data-name="Path 91" class="cls-6" d="M228.926,182.563H199.838a1.04,1.04,0,0,1-.921-1.524l3.781-7.183a1.04,1.04,0,0,1,.921-.556h21.531a1.04,1.04,0,0,1,.921.556l3.737,7.1a1.04,1.04,0,0,1-.877,1.6Zm-27.366-2.079h25.631l-2.682-5.1H204.242Z" transform="translate(-161.517 -140.541)"/>
        <path id="Path_92" data-name="Path 92" class="cls-6" d="M242.493,144.613H221.66a1.04,1.04,0,0,1-1.04-1.04V136.39a1.04,1.04,0,0,1,1.04-1.04h20.833a1.04,1.04,0,0,1,1.04,1.04v7.183A1.04,1.04,0,0,1,242.493,144.613ZM222.7,142.533h18.754v-5.1H222.7Z" transform="translate(-179.214 -109.764)"/>
        <path id="Path_93" data-name="Path 93" class="cls-6" d="M242.512,52.66H221.675a1.04,1.04,0,0,1-.922-1.512l10.259-19.771a1.04,1.04,0,0,1,.922-.567h.314a1.04,1.04,0,0,1,.922.567l10.221,19.7a1.04,1.04,0,0,1-.881,1.594Zm-19.124-2.079H240.8l-8.7-16.771Z" transform="translate(-179.23 -24.986)"/>
        <path id="Path_94" data-name="Path 94" class="cls-6" d="M216.614,289.594H180.05a1.04,1.04,0,0,1-1.04-1.04V251.99a1.04,1.04,0,0,1,1.04-1.04h36.565a1.04,1.04,0,0,1,1.04,1.04v36.565A1.04,1.04,0,0,1,216.614,289.594Zm-35.527-2.079h34.487V253.039H181.087Z" transform="translate(-145.47 -203.512)"/>
        <path id="Path_95" data-name="Path 95" class="cls-6" d="M249.21,561.572a1.04,1.04,0,0,1-1.04-1.04V473.81a1.04,1.04,0,0,1,2.079,0v86.715a1.04,1.04,0,0,1-1.04,1.047Z" transform="translate(-201.556 -383.401)"/>
        <path id="Path_96" data-name="Path 96" class="cls-6" d="M304.33,561.572a1.04,1.04,0,0,1-1.04-1.04V473.81a1.04,1.04,0,0,1,2.079,0v86.715a1.04,1.04,0,0,1-1.04,1.047Z" transform="translate(-246.257 -383.401)"/>
        <path id="Path_97" data-name="Path 97" class="cls-6" d="M217.82,304.429h-.284a14.694,14.694,0,0,1-14.677-14.678v-.276A14.694,14.694,0,0,1,217.537,274.8h.284A14.694,14.694,0,0,1,232.5,289.478v.276A14.694,14.694,0,0,1,217.82,304.429Zm-.284-27.55a12.612,12.612,0,0,0-12.6,12.6v.276a12.612,12.612,0,0,0,12.6,12.6h.284a12.612,12.612,0,0,0,12.59-12.6v-.276a12.612,12.612,0,0,0-12.59-12.6Z" transform="translate(-164.812 -222.854)"/>
        <path id="Path_98" data-name="Path 98" class="cls-6" d="M285.076,313.312a1.034,1.034,0,0,1-.611-.2l-8.3-6.043a1.04,1.04,0,0,1-.427-.841V298.29a1.04,1.04,0,1,1,2.079,0v7.42l7.873,5.731a1.04,1.04,0,0,1-.612,1.881Z" transform="translate(-223.915 -241.06)"/>
      </g>
    </g>
  </g>
</svg>
