<svg xmlns="http://www.w3.org/2000/svg" xmlns:xlink="http://www.w3.org/1999/xlink" viewBox="-863 850.06 111 111">
  <defs>
    <style>
      .cls-1 {
        fill: none;
      }

      .cls-2 {
        clip-path: url(#clip-path);
      }

      .cls-3 {
        fill: #fff;
      }

      .cls-4 {
        fill: #fac35b;
      }

      .cls-5 {
        fill: #3a2823;
      }
    </style>
    <clipPath id="clip-path">
      <circle id="Ellipse_18" data-name="Ellipse 18" class="cls-1" cx="55.5" cy="55.5" r="55.5"/>
    </clipPath>
  </defs>
  <g id="new_york_2" transform="translate(-865.92 848.99)">
    <g id="Capa_1" data-name="Capa 1" transform="translate(2.92 1.07)">
      <g id="Group_332" data-name="Group 332" class="cls-2" transform="translate(0 0)">
        <circle id="Ellipse_17" data-name="Ellipse 17" class="cls-3" cx="55.5" cy="55.5" r="55.5" transform="translate(-0.569 -0.208)"/>
        <g id="_Group_" data-name="&lt;Group&gt;" transform="translate(34.357 4.168)">
          <path id="Path_715" data-name="Path 715" class="cls-4" d="M362.833,369.979c0,.52,1.3,2.013,1.234,2.337a1.491,1.491,0,0,1-.043.195H364l-1.558,2.755-2.36,4.157-3.612-2.076h-.039c-.631-3.349-1.363-7.158-2.023-10.637l3.894-7.177.956-1.752,9.444,5.939-1.266,2.4-.5.148a1.261,1.261,0,0,0-.734.014C364.65,366.735,362.833,369.461,362.833,369.979Z" transform="translate(-320.326 -292.491)"/>
          <path id="Path_716" data-name="Path 716" class="cls-4" d="M241.832,303.925l-.055.277c.064,3.439-.693,26.215-4.543,36.151-4.8,12.4-11.3,23.3-18.564,25.444,1.168-2.142,1.1-19.407.779-22.651a1.06,1.06,0,0,0,.037-.117l.224.051c4.412-.648,6.749-4.868,7.463-7.463,1.817-.195,2.79-1.558,4.414-5.583,4.089-.518,8.7-17,8.957-25.831l-.343-.039c.064-.171.115-.31.148-.417l.012-.165A3.791,3.791,0,0,1,241.832,303.925Z" transform="translate(-211.017 -248.844)"/>
          <path id="Path_717" data-name="Path 717" class="cls-4" d="M245.366,303.587a7.175,7.175,0,0,1,1.116-.037l-.012.165c-.033.107-.084.245-.148.417-1.336,3.45-9.1,19.293-14.976,20.159-1.819,3.569-4.739,3.764-4.739,3.764h-.175c-.043-2.518.3-6.79.3-8.83a24.535,24.535,0,0,0-.465-4.245l.206-.039c12.185-2.765,17.8-9.356,18.693-11.19.029-.062.053-.117.072-.167Z" transform="translate(-217.137 -248.815)"/>
          <path id="Path_718" data-name="Path 718" class="cls-4" d="M244.192,173.166c-.356,1.782-2.839,3.961-5.573,4.307h-.263c.031-1.665.086-3.205.166-3.842l-5.61-.52c-.019-.218-.041-.434-.058-.65l5.863-1.168-6.377-4.332.043.014,7.892,2.664-3.018-8.275,5.647,6.961,1.655-8.714,1.022,8.811,6.377-6.864-3.943,8.324,8.908-2.629-7.253,4.623,8.422,1.509-7.867.516c.027,1.12.01,2.455-.027,3.855-3.548-.806-5.168-2.783-5.923-4.582Z" transform="translate(-222.025 -132.908)"/>
          <path id="Path_719" data-name="Path 719" class="cls-3" d="M193.305,83.1h.409s-.454,5.711-4.543,6.62c0,.611.107,3.4.119,3.719a.687.687,0,0,0-.066-.047h0a3.864,3.864,0,0,0-2.128-1.2v-.06c-.066-2.216-.321-2.471-.321-2.471-3.115-.52-4.284-3.376-4.414-6.556h2.981C188.055,83.166,192.3,83.242,193.305,83.1Z" transform="translate(-181.777 -71.295)"/>
          <path id="Path_720" data-name="Path 720" class="cls-4" d="M192.224,27.377c2.078,1.819,4.025,6.687,2.531,9.218-.016.025-.09.047-.214.064h-7.968c-1.363-.033-2.337-.064-2.337-.064-.974-1.883.325-5.841,1.493-6.426.454,1.363.13,3.7,1.363,4.737,2.078-2.4.454-8.762-.648-9.477,3.439,2.078,4.348,7.01,4.348,7.01C191.576,29.844,192.549,30.493,192.224,27.377Z" transform="translate(-183.013 -24.855)"/>
          <path id="Path_721" data-name="Path 721" class="cls-3" d="M197.65,83.1h7.968C204.617,83.242,200.368,83.166,197.65,83.1Z" transform="translate(-194.09 -71.295)"/>
          <path id="Path_722" data-name="Path 722" class="cls-3" d="M217.718,136.007v.029l-.068-.076A.689.689,0,0,1,217.718,136.007Z" transform="translate(-210.196 -113.863)"/>
          <path id="Path_723" data-name="Path 723" class="cls-5" d="M184.144,34.862c-1.363-.033-2.337-.064-2.337-.064a.584.584,0,0,1-.5-.315c-.829-1.6-.179-3.924.041-4.6.206-.633.779-2.157,1.712-2.621a.584.584,0,0,1,.816.339,8.813,8.813,0,0,1,.314,1.772,6.947,6.947,0,0,0,.454,2.142,7.888,7.888,0,0,0,.337-4.245,7.669,7.669,0,0,0-1.26-3.733.584.584,0,0,1,.619-.989,10.737,10.737,0,0,1,4.161,5.729c.1-.171.195-.319.277-.46.411-.66.637-1.024.456-2.761a.584.584,0,0,1,.974-.5c2.2,1.935,4.342,7.082,2.638,9.954a.816.816,0,0,1-.633.347l-.16-1.141a.53.53,0,0,0-.195.195c1.094-1.854.043-5.236-1.408-7.31a3.715,3.715,0,0,1-.672,1.838,6.552,6.552,0,0,0-.824,1.791.584.584,0,0,1-1.133-.062,13,13,0,0,0-1.976-4.609,15.136,15.136,0,0,1,.3,1.536c.212,1.492.362,4.231-1.007,5.816a.584.584,0,0,1-.818.064c-.989-.833-1.145-2.233-1.281-3.47-.018-.156-.035-.308-.053-.458a6.561,6.561,0,0,0-.516,1.2,5.957,5.957,0,0,0-.238,3.394c.4.012,1.1.031,1.947.053ZM192.11,33.694Z" transform="translate(-180.598 -22.475)"/>
          <path id="Path_724" data-name="Path 724" class="cls-5" d="M333.449,313.821c-.833-.736-1.969-2.964-3.48-6.036-.415-.841-.806-1.634-1.127-2.247-.195-.376-.37-.742-.537-1.094-.543-1.153-.974-2.064-1.871-2.5a3.22,3.22,0,0,0-1.248-.288,6.671,6.671,0,0,0-1.024.035l-.121-1.168a7.758,7.758,0,0,1,1.207-.039,4.353,4.353,0,0,1,1.694.4,5.607,5.607,0,0,1,2.42,3.051c.162.343.329.7.514,1.048.331.627.724,1.427,1.143,2.274,1.048,2.124,2.481,5.033,3.205,5.674Z" transform="translate(-295.87 -246.347)"/>
          <path id="Path_725" data-name="Path 725" class="cls-5" d="M352.4,363.713l-1.024-.561.08-.146,5.148-9.487,10.429,6.56-1.517,2.88-1.034-.545,1.013-1.924-8.458-5.318Z" transform="translate(-317.886 -289.06)"/>
          <path id="Path_726" data-name="Path 726" class="cls-5" d="M395.148,408.365a2.233,2.233,0,0,1-.347-.025l.181-1.155a1.262,1.262,0,0,0,.378,0c.1-.411.419-1.752.545-2.3l.016-.068c-.078-.158-.288-.475-.432-.7a3.552,3.552,0,0,1-.789-1.641c0-.89,2.068-3.754,3.8-4.26a1.842,1.842,0,0,1,1.071-.012c1.081.335,1.715,1.692,1.883,4.035.093,1.291-1.273,3.036-2.473,4.138C398.293,407,396.634,408.365,395.148,408.365Zm.724-5.888a6.9,6.9,0,0,0,.584.991c.489.74.7,1.083.629,1.455l-.045.206c-.078.341-.228.974-.356,1.515a9.161,9.161,0,0,0,1.5-1.129c1.418-1.3,2.142-2.619,2.1-3.193-.144-2.015-.643-2.872-1.061-3a.694.694,0,0,0-.4.018c-1.248.362-2.779,2.6-2.948,3.141Z" transform="translate(-352.771 -324.985)"/>
          <path id="Path_727" data-name="Path 727" class="cls-5" d="M367.622,439.941l-4.112-2.368.584-1.013,3.092,1.782,3.635-6.4,1.016.578Z" transform="translate(-327.654 -352.211)"/>
          <path id="Path_728" data-name="Path 728" class="cls-5" d="M320.088,245.12a3.071,3.071,0,0,1-.113-.584,62.106,62.106,0,0,1,.041-7.029c.021-.594.041-1.2.06-1.8.016-.452.029-.9.041-1.344.043-1.595.051-2.847.027-3.826,0-.195-.012-.389-.019-.561l1.168-.051c0,.195.014.38.019.584.025,1,.016,2.272-.027,3.894-.012.446-.025.9-.041,1.351-.019.6-.041,1.2-.06,1.8a64.161,64.161,0,0,0-.049,6.846,2.027,2.027,0,0,0,.066.358Z" transform="translate(-292.527 -189.535)"/>
          <path id="Path_729" data-name="Path 729" class="cls-5" d="M264.4,232.746l-.146-1.168c2.488-.315,4.771-2.325,5.074-3.842a1.455,1.455,0,0,0,.031-.206l1.168.1a2.477,2.477,0,0,1-.055.349C270.074,229.917,267.484,232.355,264.4,232.746Z" transform="translate(-247.722 -187.602)"/>
          <path id="Path_730" data-name="Path 730" class="cls-5" d="M297.314,233.56H297.3a.584.584,0,0,1-.125-.014,8.389,8.389,0,0,1-6.332-4.924l1.077-.452a7.28,7.28,0,0,0,5.514,4.239h0l.055.014-.175.543Z" transform="translate(-269.135 -188.118)"/>
          <path id="Path_731" data-name="Path 731" class="cls-5" d="M228.9,181.248a.584.584,0,0,1-.475-.245,17.2,17.2,0,0,0-3.386-3.672.824.824,0,0,0-.29-.121h0l-.066-1.168a.987.987,0,0,1,.214.01,1.947,1.947,0,0,1,.73.269,12.188,12.188,0,0,1,2.644,2.57v-1.622c0-.709.014-1.493.027-2.266.019-1.077.055-2.416.115-3.31l-7.306-.676a.584.584,0,0,1-.06-1.155l6.712-1.334-5.222-3.548a.584.584,0,0,1,.506-1.04l.043.014,6.749,2.278-2.6-7.132a.584.584,0,0,1,1-.569l4.854,5.984,1.419-7.477a.584.584,0,0,1,1.155.041l.876,7.553,5.514-5.935a.584.584,0,0,1,.956.648l-3.384,7.144,7.658-2.249a.584.584,0,0,1,.479,1.053l-5.991,3.814,6.949,1.246a.584.584,0,0,1-.064,1.159l-8.03.535-.084-1.168.171-.019,3.115-.195L240.1,170a.584.584,0,0,1-.21-1.067l3.766-2.4-4.942,1.458a.584.584,0,0,1-.693-.81l2.323-4.9-3.8,4.089a.584.584,0,0,1-1.009-.331l-.584-5.014-.942,4.957a.584.584,0,0,1-1.028.259l-3.454-4.255,1.823,5a.584.584,0,0,1-.736.754l-3.881-1.31,2.839,1.928a.584.584,0,0,1-.214,1.055l-4.134.822,3.879.36a.584.584,0,0,1,.526.654c-.068.547-.127,1.889-.162,3.779-.014.769-.023,1.548-.027,2.251,0,1.671,0,2.979.045,3.332a.584.584,0,0,1-.584.641Z" transform="translate(-212.551 -130.451)"/>
          <path id="Path_732" data-name="Path 732" class="cls-5" d="M186.872,91.621a.567.567,0,0,1-.432-.195l-.055-.06a3.352,3.352,0,0,0-1.766-1.02.584.584,0,0,1-.518-.584c0-.023,0-.041,0-.06a11.5,11.5,0,0,0-.175-1.963c-2.784-.631-4.4-3.115-4.558-7.041a.584.584,0,0,1,.584-.608H191.31a.584.584,0,0,1,.584.631c-.019.241-.5,5.736-4.533,7.01.012.495.043,1.423.107,3.135v.1a.639.639,0,0,1,0,.066.6.6,0,0,1-.389.541.614.614,0,0,1-.206.045Zm-.144-.584-.132.123.134-.123Zm-1.478-1.752a3.942,3.942,0,0,1,1,.465c-.047-1.33-.072-2.152-.072-2.453a.584.584,0,0,1,.458-.571c2.864-.637,3.76-4.04,4-5.466H180.569c.195,2.325,1.075,4.926,3.894,5.4a.584.584,0,0,1,.317.164C184.882,86.926,185.159,87.2,185.25,89.284Zm-.565.448Z" transform="translate(-179.368 -68.871)"/>
          <path id="Path_733" data-name="Path 733" class="cls-5" d="M219.307,145.255l-1.168-.033c.072-2.51-1.053-10.17-2.636-11.377l-.053-.037a.632.632,0,0,0-.082-.045v-.018l-.018-.018.043-.039.446-.989a1.786,1.786,0,0,1,.269.15h.014a1.169,1.169,0,0,1,.1.07C218.462,134.634,219.359,143.392,219.307,145.255Z" transform="translate(-208.344 -111.237)"/>
          <path id="Path_734" data-name="Path 734" class="cls-5" d="M232.347,210.9a.679.679,0,0,1-.123-.035c-.6-.195-1.221-.939-1.752-6.468l-.021-.226c-.014-.144-.027-.288-.039-.432-.138-1.53-.234-3.034-.3-4.027-.037-.561-.064-1-.084-1.2l1.168-.117c.021.216.049.646.088,1.242.064.989.16,2.483.3,4,.012.144.025.284.037.424l.021.226c.434,4.506.905,5.347,1.032,5.495l.056.027-.055-.027.016.018a.2.2,0,0,0-.049-.029l-.06-.018Z" transform="translate(-220.165 -164.137)"/>
          <path id="Path_735" data-name="Path 735" class="cls-5" d="M195.575,161.121a.584.584,0,0,1-.537-.354,13.994,13.994,0,0,1-.631-2.23c-.232-1.051-.456-2.239-.65-3.287-.152-.806-.282-1.5-.376-1.918a77.845,77.845,0,0,1-.532-10.561,33.761,33.761,0,0,0-.985-7.9c-2.309-.261-2.469-2.006-2.65-4.005a4.436,4.436,0,0,1,.909-3.433,3.047,3.047,0,0,1,2.337-.958v1.168a1.889,1.889,0,0,0-1.46.584,3.3,3.3,0,0,0-.609,2.531c.206,2.268.339,2.921,1.967,2.973a.584.584,0,0,1,.547.436,35.038,35.038,0,0,1,1.122,8.694,78.415,78.415,0,0,0,.5,10.213c.1.436.232,1.143.389,1.961.195,1.04.415,2.216.643,3.248q.166.751.31,1.264c2.547-2.191,3.762-4.514,3.612-6.916v-.037a.373.373,0,0,0,0,.041l1.155-.162a.824.824,0,0,1,0,.1c.179,3-1.4,5.832-4.7,8.421A.584.584,0,0,1,195.575,161.121Z" transform="translate(-187.273 -106.219)"/>
          <path id="Path_736" data-name="Path 736" class="cls-5" d="M207.122,418.391l-.142-1.168c4.545-.555,10.143-4.352,13.613-9.235,3.616-5.088,4-5.216,4.184-5.279l.142-.049.148.027c1.961.356,5.4-1.973,8.64-9.712l.175-.421.45.068a3.86,3.86,0,0,0,3.156-1.412l.035-.041c1.838-1.9,3.166-3.271.948-14.8-.267-1.505-.691-3.8-1.336-7.23-.537-2.855-1.2-6.334-2.023-10.635-1.046-5.452-1.9-9.86-2.093-10.816l1.145-.23c.195.958,1.048,5.37,2.093,10.828.824,4.3,1.486,7.789,2.023,10.639.645,3.435,1.069,5.732,1.338,7.234,2.22,11.537,1.051,13.463-1.236,15.817a5.137,5.137,0,0,1-3.764,1.852c-4.04,9.424-7.968,10.17-9.457,10.055a56.713,56.713,0,0,0-3.614,4.788C217.9,413.8,211.969,417.8,207.122,418.391Z" transform="translate(-201.603 -284.18)"/>
          <path id="Path_737" data-name="Path 737" class="cls-5" d="M205.242,707.028l-.9-.21V705.77h1.529Z" transform="translate(-199.477 -572.721)"/>
          <path id="Path_738" data-name="Path 738" class="cls-5" d="M205.582,369.938l-1.1-.389.551.195-.561-.162c.156-.606,2.658-14.43,2.2-16.385l-.051-.218.107-.195c1.034-1.895,1.073-18.7.711-22.313l-.014-.134.047-.127a.484.484,0,0,0,.018-.055,99.238,99.238,0,0,0,.857-13.776c-.025-.277-.041-.608-.047-1.011-.023-1.435.078-3.458.167-5.242.07-1.4.136-2.726.136-3.6a23.791,23.791,0,0,0-.456-4.14c-.195-1.055-.452-2.214-.759-3.443a4.028,4.028,0,0,0-1.2-2.118,5.218,5.218,0,0,1-1.24-1.834c-.974-2.5,1.558-6.552,1.86-7.01l.142-.214.974.643-.144.216c-1.258,1.947-2.265,4.615-1.752,5.937a4.058,4.058,0,0,0,1,1.455,5.179,5.179,0,0,1,1.492,2.64c.314,1.252.584,2.434.779,3.5a24.922,24.922,0,0,1,.475,4.352c0,.907-.066,2.243-.138,3.657-.09,1.766-.195,3.768-.166,5.164,0,.376.019.678.043.927.195,2.142-.389,12.4-.892,14.179v.025c.292,3.3.417,19.666-.765,22.663C208.228,356.073,205.619,369.835,205.582,369.938Z" transform="translate(-199.582 -236.113)"/>
          <path id="Path_739" data-name="Path 739" class="cls-5" d="M226.929,314.8l-.259-1.139c12.178-2.763,17.524-9.28,18.288-10.873.021-.045.039-.086.055-.127l1.09.423c-.023.062-.053.129-.088.2C245.2,305,239.566,311.936,226.929,314.8Z" transform="translate(-217.459 -248.103)"/>
          <path id="Path_740" data-name="Path 740" class="cls-5" d="M227.888,328.619l-.078-1.168c.1,0,2.625-.243,4.256-3.446l.136-.269.3-.045c5.37-.793,13.046-15.982,14.516-19.793.06-.16.107-.286.134-.378l1.116.345c-.037.119-.088.261-.16.45-.974,2.5-8.731,19.059-15.137,20.476A6.761,6.761,0,0,1,227.888,328.619Z" transform="translate(-218.377 -248.796)"/>
          <path id="Path_741" data-name="Path 741" class="cls-5" d="M223.749,346.119l-.169-1.157c4.151-.609,6.344-4.712,6.984-7.041l.105-.389.389-.043c1.482-.16,2.366-1.33,3.935-5.22l.129-.317.341-.043c3.411-.432,8.178-16.039,8.447-25.268l1.168.035a65.055,65.055,0,0,1-3.071,16.193c-1.363,4.27-3.5,9.389-6.036,10.125-1.423,3.487-2.465,5.2-4.383,5.6C230.6,341.759,228.021,345.492,223.749,346.119Z" transform="translate(-214.971 -251.309)"/>
          <path id="Path_742" data-name="Path 742" class="cls-5" d="M218.151,368.9l-.331-1.122c6.159-1.815,12.618-10.727,18.185-25.1,3.894-10.051,4.554-33.176,4.5-35.929l1.168-.021c.053,2.781-.623,26.152-4.582,36.373C233.062,353.514,226.5,366.432,218.151,368.9Z" transform="translate(-210.333 -251.381)"/>
          <path id="Path_743" data-name="Path 743" class="cls-5" d="M270.319,267.308l-.6-.045a19.787,19.787,0,0,1-6.081-2.214l-.3-.167v-.343c0-.053,0-1.116.021-1.992-1.168-.627-3.006-2.492-3.006-3.818h1.168c0,.837,1.885,2.695,2.58,2.876l.454.119-.018.469c-.023.621-.029,1.515-.031,2A21.156,21.156,0,0,0,269.2,266a25.378,25.378,0,0,0-.113-3.3l-.053-.411.372-.195a5.245,5.245,0,0,0,2.726-4.058c.016-.113.023-.218.031-.325l1.168.076c-.01.16-.021.28-.037.389a6.527,6.527,0,0,1-3.01,4.761,31.006,31.006,0,0,1,.06,3.754Z" transform="translate(-244.581 -211.906)"/>
        </g>
      </g>
    </g>
  </g>
</svg>
