<svg xmlns="http://www.w3.org/2000/svg" xmlns:xlink="http://www.w3.org/1999/xlink" viewBox="-1105 850 110.5 110.5">
  <defs>
    <style>
      .cls-1 {
        fill: none;
      }

      .cls-2 {
        clip-path: url(#clip-path);
      }

      .cls-3 {
        fill: #fff;
      }

      .cls-4 {
        fill: #3a2823;
      }

      .cls-5 {
        fill: #fac35b;
      }
    </style>
    <clipPath id="clip-path">
      <circle id="Ellipse_16" data-name="Ellipse 16" class="cls-1" cx="55.25" cy="55.25" r="55.25"/>
    </clipPath>
  </defs>
  <g id="rio_de_janeiro" data-name="rio de janeiro" transform="translate(-1111 847)">
    <g id="Capa_1" data-name="Capa 1" transform="translate(6 3)">
      <g id="Group_331" data-name="Group 331" class="cls-2" transform="translate(0 0)">
        <circle id="Ellipse_15" data-name="Ellipse 15" class="cls-3" cx="55.25" cy="55.25" r="55.25" transform="translate(-1.163 -0.582)"/>
        <g id="_Group_" data-name="&lt;Group&gt;" transform="translate(9.188 21.904)">
          <path id="Path_706" data-name="Path 706" class="cls-4" d="M295.373,133.568a.6.6,0,0,1,.128.5c-.033.174-.894,4.3-8.157,4.3a24.937,24.937,0,0,1-3.774-.316l-5.949,7.548a.591.591,0,0,1-.312.207l-14.949,4.131v5.776l-.308-.172a.6.6,0,0,0-.6,0l-.312-.428v-5.635a.609.609,0,0,1,.444-.582l15.2-4.206,6.054-7.672a.6.6,0,0,1,.582-.221,24.214,24.214,0,0,0,3.929.355c4.416,0,6.063-1.617,6.656-2.6l-3.683.014a.581.581,0,0,1-.428-.174.6.6,0,0,1-.178-.426v-.537a4.265,4.265,0,0,0-.8-.074c-2.533,0-5.428,1.917-5.451,1.938a.6.6,0,0,1-.481.085c-5.009-1.235-19.649-2.448-27.932-3.061a.6.6,0,0,1-.56-.6l-.037-9.727a4.8,4.8,0,0,0-4.79-4.78h-.023a4.8,4.8,0,0,0-4.78,4.811l.033,9.731a.6.6,0,0,1-.556.6c-.645.05-1.334.107-2.047.169l-.775.066-.657.056-.1.017c-.041-.225-.083-.45-.128-.673a.6.6,0,0,0-.613-.485l1.392-.12.775-.068,1.5-.124-.033-9.169a6.009,6.009,0,0,1,5.966-6.03h.027a6.009,6.009,0,0,1,6,5.986l.035,9.167c8.267.618,22.127,1.783,27.331,2.989a12.6,12.6,0,0,1,5.9-1.995,5.118,5.118,0,0,1,1.6.24.607.607,0,0,1,.417.582v.388l4-.016A.607.607,0,0,1,295.373,133.568Z" transform="translate(-203.846 -116)"/>
          <path id="Path_707" data-name="Path 707" class="cls-5" d="M267.735,242.977l.775,34.476h-1.084l-.039-.027a39.256,39.256,0,0,1-15.055-15.507c-4.642-8.771-6.143-19.9-4.458-33.069v-.079a.611.611,0,0,0-.039-.213,28.645,28.645,0,0,1-1.206-6.067A47.863,47.863,0,0,0,266.8,242.5a.559.559,0,0,0,.173.054Z" transform="translate(-209.175 -201.848)"/>
          <path id="Path_708" data-name="Path 708" class="cls-4" d="M351.034,506.53v.717h-.405a.607.607,0,0,1-.581-.423.627.627,0,0,1-.027-.18.6.6,0,0,1,.6-.6h.151A.6.6,0,0,1,351.034,506.53Z" transform="translate(-292.524 -430.435)"/>
          <path id="Path_709" data-name="Path 709" class="cls-4" d="M350.207,319.842v.4a.6.6,0,0,1-.6.6.45.45,0,0,1-.1-.01l-.194-.109a.6.6,0,0,1-.231-.822.582.582,0,0,1,.227-.229.6.6,0,0,1,.6,0Z" transform="translate(-291.701 -280.13)"/>
          <path id="Path_710" data-name="Path 710" class="cls-4" d="M352.025,321.781a.6.6,0,0,0,.287-.514v-.4l.946.531a.6.6,0,0,1,.308.514l.8,35.44a.6.6,0,0,1-.6.616h-1.448v-.717a.6.6,0,0,0-.254-.49h1.084l-.775-34.476-.76-.426a.45.45,0,0,0,.1.01A.6.6,0,0,0,352.025,321.781Z" transform="translate(-293.806 -281.158)"/>
          <path id="Path_711" data-name="Path 711" class="cls-4" d="M264.457,225.913A47.862,47.862,0,0,1,244.292,205.9c-.01-.079-.021-.161-.031-.24-.157-1.227-.32-2.489-.541-3.722l.1-.017a40.107,40.107,0,0,0,5.79,10.014,46.042,46.042,0,0,0,14.521,12.443l.3.432a.582.582,0,0,0-.227.229.6.6,0,0,0,.231.822l.194.109A.558.558,0,0,1,264.457,225.913Z" transform="translate(-206.829 -185.265)"/>
          <path id="Path_712" data-name="Path 712" class="cls-4" d="M88.99,196.763c.045.143.093.3.147.456l-.06.017c-8.382.729-18.981,1.8-23.115,2.851a.614.614,0,0,1-.483-.081,12.072,12.072,0,0,0-5.427-1.9,4.318,4.318,0,0,0-.841.079v.537a.609.609,0,0,1-.174.428.62.62,0,0,1-.428.178H54.925c.582.969,2.223,2.551,6.548,2.551a23.919,23.919,0,0,0,4.053-.388.607.607,0,0,1,.582.219l6.1,7.635,15.236,4.1a.6.6,0,0,1,.446.582l.05,7.333L88,230.28l.289,41.177,11.421-.039h.417l10.586-.035V256.905l.225-.047a.607.607,0,0,0,.582.423h.405v14.691a.6.6,0,0,1-.6.6l-11.185.037h-.419l-12.018.041h0a.6.6,0,0,1-.6-.6l-.308-41.766-.064-8.917-.047-6.874L71.7,210.469a.593.593,0,0,1-.314-.205l-6.009-7.505a24.751,24.751,0,0,1-3.91.343c-7.139,0-8.017-4.071-8.052-4.243a.6.6,0,0,1,.582-.721l4-.012v-.405a.6.6,0,0,1,.411-.582,5.158,5.158,0,0,1,1.64-.252,12.688,12.688,0,0,1,5.869,1.952c4.47-1.074,15.255-2.15,23.6-2.869a.6.6,0,0,0-.45.262A.614.614,0,0,0,88.99,196.763Z" transform="translate(-53.402 -180.469)"/>
          <path id="Path_713" data-name="Path 713" class="cls-4" d="M259.9,261.225a.6.6,0,0,0-.6.6.625.625,0,0,0,.027.18l-.225.047a40.307,40.307,0,0,1-15.209-15.81c-4.743-8.963-6.294-20.281-4.608-33.643a31.568,31.568,0,0,1-1.252-6.437c-.161-1.25-.328-2.539-.554-3.78l.06-.017a28.886,28.886,0,0,0,1.723,3.877,28.89,28.89,0,0,0,1.206,6.067.61.61,0,0,1,.039.213v.079c-1.684,13.181-.194,24.3,4.458,33.069a39.144,39.144,0,0,0,15.055,15.507l.039.027Z" transform="translate(-201.79 -185.628)"/>
          <path id="Path_714" data-name="Path 714" class="cls-4" d="M238.754,200.957c.01.079.021.161.031.24a28.88,28.88,0,0,1-1.723-3.877c-.054-.159-.1-.312-.147-.456a.614.614,0,0,1,.078-.516.6.6,0,0,1,.45-.262h.031a.6.6,0,0,1,.613.485c.045.223.087.448.128.673C238.434,198.468,238.6,199.73,238.754,200.957Z" transform="translate(-201.322 -180.564)"/>
        </g>
      </g>
    </g>
  </g>
</svg>
