<svg xmlns="http://www.w3.org/2000/svg" xmlns:xlink="http://www.w3.org/1999/xlink" viewBox="-818 176 110.76 110.76">
  <defs>
    <style>
      .cls-1 {
        fill: none;
      }

      .cls-2 {
        clip-path: url(#clip-path);
      }

      .cls-3 {
        fill: #fff;
      }

      .cls-4 {
        fill: #fac35b;
      }

      .cls-5 {
        fill: #3a2823;
      }
    </style>
    <clipPath id="clip-path">
      <circle id="Ellipse_5" data-name="Ellipse 5" class="cls-1" cx="55.38" cy="55.38" r="55.38"/>
    </clipPath>
  </defs>
  <g id="rim" transform="translate(-825.98 170.77)">
    <g id="Capa_1" data-name="Capa 1" transform="translate(7.98 5.23)">
      <g id="Group_312" data-name="Group 312" class="cls-2" transform="translate(0 0)">
        <circle id="Ellipse_4" data-name="Ellipse 4" class="cls-3" cx="55.581" cy="55.581" r="55.581" transform="translate(-0.082 -1.02)"/>
        <g id="_Group_" data-name="&lt;Group&gt;" transform="translate(-1.559 31.857)">
          <path id="Path_100" data-name="Path 100" class="cls-4" d="M75.269,446.233l1.7,9.894H70.184v-8.82a5.941,5.941,0,0,0-1.4-3.9,4.614,4.614,0,0,0-3.51-1.681h-.082a4.594,4.594,0,0,0-3.257,1.394,5.92,5.92,0,0,0-1.663,4.183v8.822H55.381l-.02-8.775a5.805,5.805,0,0,0-1.675-4.138,4.51,4.51,0,0,0-3.27-1.33h-.084c-2.7.06-4.893,2.568-4.875,5.591l.033,8.652H40.585l-.043-8.52a5.552,5.552,0,0,0-1.652-4,4.485,4.485,0,0,0-3.315-1.268h-.084a5.352,5.352,0,0,0-4.85,5.5l.043,8.272h-4.9l-.037-8.046a5.154,5.154,0,0,0-1.587-3.752,4.469,4.469,0,0,0-3.373-1.2h-.084a5.329,5.329,0,0,0-4.824,5.32l.019,7.679H13.246l-.016-14.346a555.537,555.537,0,0,1,60.959-2.34q.56,3.206,1.111,6.392a.388.388,0,0,1-.021.082A.805.805,0,0,0,75.269,446.233Z" transform="translate(-10.647 -386.561)"/>
          <path id="Path_101" data-name="Path 101" class="cls-4" d="M375.473,442.252l-.014,14.336h-2.482l.014-7.675a5.333,5.333,0,0,0-4.828-5.316h-.08A4.469,4.469,0,0,0,364.7,444.8a5.146,5.146,0,0,0-1.587,3.746l-.035,8.034h-4.891l.041-8.256a5.351,5.351,0,0,0-4.85-5.5H353.3a4.485,4.485,0,0,0-3.315,1.268,5.54,5.54,0,0,0-1.652,3.99l-.043,8.514h-4.9l.035-8.648c.012-3.021-2.176-5.528-4.875-5.591h-.082a4.575,4.575,0,0,0-3.533,1.607q-.351-2.012-.7-4.035Q354.9,440.318,375.473,442.252Z" transform="translate(-269.052 -387.021)"/>
          <path id="Path_102" data-name="Path 102" class="cls-4" d="M317.658,345.241c-1.211-6.952-2.434-13.972-3.658-20.931a257.033,257.033,0,0,1,45.2,5.175l-.018,18.086Q338.506,345.631,317.658,345.241Zm-.4-3.442a.8.8,0,0,0,.78.8c2.759.064,5.557.156,8.317.269h.033a.8.8,0,0,0,.8-.8l.035-9.149c.012-3.019-2.172-5.591-4.875-5.735h-.082c-2.769-.144-4.984,2.262-4.99,5.355Zm39.507-5.809a5.9,5.9,0,0,0-4.731-5.7l-.08-.012a4.536,4.536,0,0,0-.722-.059,4.4,4.4,0,0,0-4.3,4.641l-.039,8.6a.8.8,0,0,0,.727.8c2.742.244,5.515.515,8.237.809h.086a.8.8,0,0,0,.8-.8Zm-14.713-1.864a5.736,5.736,0,0,0-4.8-5.77h-.084a4.436,4.436,0,0,0-.47-.025,4.784,4.784,0,0,0-4.551,5.041l-.043,9.013a.8.8,0,0,0,.755.8c2.753.156,5.542.335,8.288.54h.059a.8.8,0,0,0,.542-.213.792.792,0,0,0,.257-.585Z" transform="translate(-252.767 -293.947)"/>
          <path id="Path_103" data-name="Path 103" class="cls-4" d="M70.175,323.936c1.221,6.969,2.441,13.978,3.654,20.935a556.854,556.854,0,0,0-60.682,2.34l-.018-18.1a257.154,257.154,0,0,1,45.31-5.164h.107C62.4,323.87,66.312,323.86,70.175,323.936Zm-.043,8.112a5.963,5.963,0,0,0-1.4-3.9,4.647,4.647,0,0,0-3.533-1.706h-.086a4.612,4.612,0,0,0-3.266,1.4,5.94,5.94,0,0,0-1.671,4.194v9.3a.8.8,0,0,0,.8.8h0c1.336-.012,2.689-.02,4.023-.02,1.427,0,2.878,0,4.306.02h0a.8.8,0,0,0,.8-.8Zm-15.664,10.2a.8.8,0,0,0,.78-.8l-.023-9.259c0-3.009-2.1-5.366-4.762-5.366h-.312c-2.7.142-4.875,2.714-4.875,5.733l.035,9.153a.8.8,0,0,0,.8.8h.031c2.765-.1,5.573-.193,8.328-.257Zm-14.82.585a.8.8,0,0,0,.757-.8L40.362,333a4.789,4.789,0,0,0-4.557-5.051,4.407,4.407,0,0,0-.468.025h-.082a5.724,5.724,0,0,0-4.8,5.77l.045,8.816h0a.8.8,0,0,0,.8.8h.059c2.744-.2,5.538-.38,8.289-.538Zm-14.762,1.061a.8.8,0,0,0,.729-.8l-.041-8.611a4.4,4.4,0,0,0-4.309-4.649,4.6,4.6,0,0,0-.712.057l-.086.014a5.889,5.889,0,0,0-4.729,5.7l.021,8.293a.785.785,0,0,0,.8.78.705.705,0,0,0,.084,0c2.73-.283,5.5-.552,8.241-.794Z" transform="translate(-10.567 -293.604)"/>
          <path id="Path_104" data-name="Path 104" class="cls-4" d="M55.607,213.65c.645,6.612,1.293,13.307,1.938,20a258.537,258.537,0,0,0-44.522,5.107L13,221.384a171.907,171.907,0,0,1,42.608-7.734ZM54.33,231.374a.8.8,0,0,0,.764-.8l-.023-9.249c0-2.954-2.059-5.265-4.68-5.265a2.765,2.765,0,0,0-.359.016h-.084c-2.693.22-4.875,2.855-4.863,5.875l.035,9.153a.8.8,0,0,0,.8.8h.064c2.771-.23,5.575-.4,8.346-.525ZM39.481,232.5a.8.8,0,0,0,.714-.8l-.043-9.028c-.014-2.763-1.884-4.846-4.349-4.846a4.538,4.538,0,0,0-.721.059L35,217.9a6.135,6.135,0,0,0-4.752,6.031l.045,8.818a.8.8,0,0,0,.8.8.871.871,0,0,0,.113,0c2.738-.4,5.524-.751,8.28-1.045Zm-14.73,2.057a.8.8,0,0,0,.665-.792l-.041-8.611a4.055,4.055,0,0,0-3.98-4.36,4.52,4.52,0,0,0-1.1.14l-.082.019a6.554,6.554,0,0,0-4.633,6.088l.023,8.293a.8.8,0,0,0,.8.8.76.76,0,0,0,.164-.018C19.267,235.558,22.021,235.026,24.751,234.556Z" transform="translate(-10.462 -204.866)"/>
          <path id="Path_105" data-name="Path 105" class="cls-4" d="M54.907,177q.271,2.765.544,5.556A173.314,173.314,0,0,0,13,190.205V185.58A155.664,155.664,0,0,1,54.907,177Z" transform="translate(-10.462 -175.362)"/>
          <path id="Path_106" data-name="Path 106" class="cls-5" d="M552.291,344.651a.8.8,0,0,1-.78.634.232.232,0,0,1-.049,0v-.975a.8.8,0,0,0-.622-.78l.835.175A.8.8,0,0,1,552.291,344.651Z" transform="translate(-443.423 -309.419)"/>
          <path id="Path_107" data-name="Path 107" class="cls-5" d="M554.782,445.273a.8.8,0,0,1-.8.721h-.057v-1.6l.133.012a.8.8,0,0,1,.72.872Z" transform="translate(-445.911 -390.611)"/>
          <path id="Path_108" data-name="Path 108" class="cls-5" d="M547.4,344.238v.975a.691.691,0,0,1-.119-.016l-1.48-.308v-.651a.8.8,0,0,1,.8-.8.728.728,0,0,1,.148.016h.031a.8.8,0,0,1,.622.78Z" transform="translate(-439.366 -309.346)"/>
          <path id="Path_109" data-name="Path 109" class="cls-5" d="M547.327,351.176l-.018,17.913-1.6-.152.018-18.086,1.48.308A.676.676,0,0,0,547.327,351.176Z" transform="translate(-439.294 -315.311)"/>
          <path id="Path_110" data-name="Path 110" class="cls-5" d="M547.347,443.752v1.6h-.02l-1.578-.15V443.6Z" transform="translate(-439.326 -389.975)"/>
          <path id="Path_111" data-name="Path 111" class="cls-5" d="M547.273,451.942l-.014,14.235a.727.727,0,0,0-.29-.06H545.66l.014-14.336,1.578.15Z" transform="translate(-439.253 -396.56)"/>
          <path id="Path_112" data-name="Path 112" class="cls-5" d="M547.275,525.442v.585a.8.8,0,0,1-.8.8h0a.8.8,0,0,1-.8-.8v-.636h1.308A.727.727,0,0,1,547.275,525.442Z" transform="translate(-439.269 -455.816)"/>
          <path id="Path_113" data-name="Path 113" class="cls-5" d="M549.762,527.013a.8.8,0,0,0,.8-.8v-.585a.727.727,0,0,1-.291,1.394h-.509Z" transform="translate(-442.554 -456.009)"/>
          <path id="Path_114" data-name="Path 114" class="cls-5" d="M374.3,433.94v1.6q-20.543-1.934-41.25-2.34l-.279-1.6Q353.588,432,374.3,433.94Z" transform="translate(-267.877 -380.315)"/>
          <path id="Path_115" data-name="Path 115" class="cls-5" d="M487.78,354.648a5.9,5.9,0,0,1,4.731,5.7l-.021,8.282a.8.8,0,0,1-.8.8H491.6c-2.73-.294-5.5-.566-8.237-.809a.8.8,0,0,1-.727-.8l.039-8.6a4.4,4.4,0,0,1,4.3-4.641,4.534,4.534,0,0,1,.721.058Zm3.13,5.7a4.31,4.31,0,0,0-3.381-4.122l-.078-.014a3.063,3.063,0,0,0-.472-.039,2.806,2.806,0,0,0-2.7,3.05l-.035,7.866c2.215.195,4.448.421,6.653.651Z" transform="translate(-388.522 -318.314)"/>
          <path id="Path_116" data-name="Path 116" class="cls-5" d="M487.259,458.686a5.31,5.31,0,0,1,4.822,5.308l-.019,7.665h-1.6l.02-7.671a3.711,3.711,0,0,0-3.335-3.717h-.078a2.9,2.9,0,0,0-2.19.78,3.551,3.551,0,0,0-1.076,2.584l-.035,8.026h-1.6l.035-8.034a5.146,5.146,0,0,1,1.587-3.746,4.469,4.469,0,0,1,3.381-1.207Z" transform="translate(-388.144 -402.101)"/>
          <path id="Path_117" data-name="Path 117" class="cls-5" d="M526.345,525.35v.616a.8.8,0,0,1-.8.8h0a.8.8,0,0,1-.8-.8v-.61Z" transform="translate(-422.421 -455.784)"/>
          <path id="Path_118" data-name="Path 118" class="cls-5" d="M532.911,526.787h0v.019H528.83v-.043a.8.8,0,0,0,.8-.8v-.616h2.482v.636a.8.8,0,0,0,.8.8Z" transform="translate(-425.705 -455.784)"/>
          <path id="Path_119" data-name="Path 119" class="cls-5" d="M483.8,525.35v.585a.8.8,0,1,1-1.6,0v-.568Z" transform="translate(-388.168 -455.784)"/>
          <path id="Path_120" data-name="Path 120" class="cls-5" d="M486.26,526.681a.8.8,0,0,0,.8-.8V525.3h6.694v.61a.8.8,0,0,0,.8.8h0v.043h-8.3Z" transform="translate(-391.436 -455.744)"/>
          <path id="Path_121" data-name="Path 121" class="cls-5" d="M412,344.879a5.73,5.73,0,0,1,4.8,5.77l-.045,8.81a.791.791,0,0,1-.257.585.8.8,0,0,1-.542.213h-.058c-2.746-.2-5.534-.39-8.288-.54a.8.8,0,0,1-.755-.8l.043-9.025a4.781,4.781,0,0,1,4.551-5.041,4.427,4.427,0,0,1,.47.025Zm3.2,5.762a4.158,4.158,0,0,0-3.37-4.173h-.082a2.66,2.66,0,0,0-.3-.018c-1.675,0-2.943,1.484-2.952,3.452l-.041,8.264c2.231.129,4.485.275,6.706.435Z" transform="translate(-327.511 -310.482)"/>
          <path id="Path_122" data-name="Path 122" class="cls-5" d="M411.434,454.718a5.344,5.344,0,0,1,4.85,5.5l-.041,8.262h-1.6l.043-8.272a3.748,3.748,0,0,0-3.315-3.9h-.08a2.908,2.908,0,0,0-2.145.827,3.939,3.939,0,0,0-1.156,2.841l-.041,8.5h-1.6l.043-8.514a5.54,5.54,0,0,1,1.644-3.988,4.485,4.485,0,0,1,3.315-1.267Z" transform="translate(-327.109 -398.919)"/>
          <path id="Path_123" data-name="Path 123" class="cls-5" d="M450.505,525.35v.546a.8.8,0,0,1-.8.8h0a.8.8,0,0,1-.8-.805v-.538Z" transform="translate(-361.37 -455.784)"/>
          <path id="Path_124" data-name="Path 124" class="cls-5" d="M453,526.693a.8.8,0,0,0,.8-.8v-.546h4.894v.567a.8.8,0,0,0,.8.8v.084H453Z" transform="translate(-364.662 -455.784)"/>
          <path id="Path_125" data-name="Path 125" class="cls-5" d="M407.927,525.342v.517a.8.8,0,0,1-.8.8h0a.8.8,0,0,1-.8-.8v-.511Z" transform="translate(-327.093 -455.776)"/>
          <path id="Path_126" data-name="Path 126" class="cls-5" d="M418.7,526.685h0v.111H410.41v-.14a.8.8,0,0,0,.8-.8v-.521h6.7v.538A.8.8,0,0,0,418.7,526.685Z" transform="translate(-330.377 -455.776)"/>
          <path id="Path_127" data-name="Path 127" class="cls-5" d="M335.819,339.045c2.7.144,4.875,2.716,4.875,5.735l-.035,9.149a.8.8,0,0,1-.8.8h-.033c-2.759-.115-5.557-.207-8.317-.269a.8.8,0,0,1-.78-.8l.021-9.257c0-3.093,2.221-5.5,4.99-5.355Zm3.274,5.727c0-2.178-1.5-4.033-3.356-4.132h-.232c-1.767,0-3.155,1.654-3.157,3.765l-.02,8.477c2.239.057,4.5.131,6.733.22Z" transform="translate(-266.235 -305.803)"/>
          <path id="Path_128" data-name="Path 128" class="cls-5" d="M341.407,452.34a5.329,5.329,0,0,1,4.875,5.591l-.035,8.648h-1.591l.033-8.654a3.739,3.739,0,0,0-3.315-3.984h-.082a3.308,3.308,0,0,0-3.081,2.432l-.421-2.424a4.574,4.574,0,0,1,3.533-1.607Z" transform="translate(-271.918 -397.011)"/>
          <path id="Path_129" data-name="Path 129" class="cls-5" d="M374.605,525.35v.5a.8.8,0,0,1-.8.8h0a.8.8,0,0,1-.8-.8v-.5Z" transform="translate(-300.27 -455.784)"/>
          <path id="Path_130" data-name="Path 130" class="cls-5" d="M377.09,526.639a.8.8,0,0,0,.8-.8v-.5h4.9v.519a.8.8,0,0,0,.8.8h0v.14h-6.5Z" transform="translate(-303.554 -455.776)"/>
          <path id="Path_131" data-name="Path 131" class="cls-5" d="M342.31,525.717a.8.8,0,0,1-1.189.827h0a.78.78,0,0,1-.244-.447l-.127-.727h1.5Z" transform="translate(-274.301 -455.8)"/>
          <path id="Path_132" data-name="Path 132" class="cls-5" d="M333.122,463.166l1.722,10h-1.5l-.1-.567q-.84-4.83-1.693-9.734a5.6,5.6,0,0,1,1.219-2.34q.211,1.215.421,2.424Q333.151,463.057,333.122,463.166Z" transform="translate(-266.895 -403.596)"/>
          <path id="Path_133" data-name="Path 133" class="cls-5" d="M341.3,482.328l.144.84h-.119l-1.722-10q.031-.109.066-.213Q340.487,477.681,341.3,482.328Z" transform="translate(-273.375 -413.61)"/>
          <path id="Path_134" data-name="Path 134" class="cls-5" d="M351.576,526.639h0v.156H345.4v-.066a.769.769,0,0,0,.138-.012.8.8,0,0,0,.649-.922l-.08-.454h4.68v.5A.8.8,0,0,0,351.576,526.639Z" transform="translate(-278.044 -455.776)"/>
          <path id="Path_135" data-name="Path 135" class="cls-5" d="M343.976,525.8a.8.8,0,0,1-.649.922.8.8,0,0,1-.677-.2.8.8,0,0,0,1.189-.827l-.06-.351h.109Z" transform="translate(-275.83 -455.784)"/>
          <path id="Path_136" data-name="Path 136" class="cls-5" d="M340.577,526.524a.78.78,0,0,1-.39-.552l-.107-.622h.119l.127.727A.78.78,0,0,0,340.577,526.524Z" transform="translate(-273.761 -455.784)"/>
          <path id="Path_137" data-name="Path 137" class="cls-5" d="M327.468,439.808q.351,2.02.7,4.035a5.6,5.6,0,0,0-1.219,2.34Q326.4,443,325.84,439.79Z" transform="translate(-262.298 -386.908)"/>
          <path id="Path_138" data-name="Path 138" class="cls-5" d="M326.038,431.537l.279,1.6-1.628-.029-.279-1.6C324.952,431.518,325.5,431.528,326.038,431.537Z" transform="translate(-261.147 -380.243)"/>
          <path id="Path_139" data-name="Path 139" class="cls-5" d="M331.362,472.52q.854,4.9,1.693,9.734l.1.567h-.119l-1.7-9.894a.806.806,0,0,1,.01-.324C331.346,472.577,331.354,472.547,331.362,472.52Z" transform="translate(-266.709 -413.256)"/>
          <path id="Path_140" data-name="Path 140" class="cls-5" d="M73.91,431.214l.279,1.6a555.565,555.565,0,0,0-60.959,2.34v-1.6a556.849,556.849,0,0,1,60.68-2.338Z" transform="translate(-10.647 -379.947)"/>
          <path id="Path_141" data-name="Path 141" class="cls-5" d="M255.427,316.424l.168.956q-6.679-.175-13.363,0a.8.8,0,0,1-.71-.718c-.027-.287-.057-.571-.082-.86q.8-.025,1.6-.039h0c3.859-.084,7.761-.082,11.614,0A.8.8,0,0,1,255.427,316.424Z" transform="translate(-194.356 -287.017)"/>
          <path id="Path_142" data-name="Path 142" class="cls-5" d="M263.064,338.7a5.963,5.963,0,0,1,1.4,3.9v9.3a.8.8,0,0,1-.8.8h0c-1.427-.014-2.878-.019-4.306-.019-1.336,0-2.689,0-4.023.019h0a.8.8,0,0,1-.8-.8v-9.3a5.939,5.939,0,0,1,1.671-4.194,4.612,4.612,0,0,1,3.235-1.4h.086A4.647,4.647,0,0,1,263.064,338.7Zm-.195,3.9a4.362,4.362,0,0,0-1.026-2.857,3.065,3.065,0,0,0-2.324-1.135h-.086a3.024,3.024,0,0,0-2.124.926,4.333,4.333,0,0,0-1.2,3.061v8.5c1.076,0,2.161-.012,3.231-.012,1.17,0,2.34,0,3.51.014Z" transform="translate(-204.9 -304.162)"/>
          <path id="Path_143" data-name="Path 143" class="cls-5" d="M263.03,453.193a5.941,5.941,0,0,1,1.4,3.9v8.82h-1.6v-8.822a4.348,4.348,0,0,0-1-2.857,3.044,3.044,0,0,0-2.309-1.125h-.082a2.82,2.82,0,0,0-1.129.24,3.239,3.239,0,0,0-.994.684,4.309,4.309,0,0,0-1.2,3.052v8.824h-1.6v-8.822a5.92,5.92,0,0,1,1.654-4.183,4.594,4.594,0,0,1,3.257-1.394h.082A4.614,4.614,0,0,1,263.03,453.193Z" transform="translate(-204.883 -396.343)"/>
          <path id="Path_144" data-name="Path 144" class="cls-5" d="M298.7,525.35v.48a.8.8,0,1,1-1.6,0v-.478Z" transform="translate(-239.162 -455.784)"/>
          <path id="Path_145" data-name="Path 145" class="cls-5" d="M301.2,526.627a.8.8,0,0,0,.8-.8v-.48h6.788l.107.622a.78.78,0,0,0,.39.552h0a.781.781,0,0,0,.538.211v.066H301.2Z" transform="translate(-242.463 -455.784)"/>
          <path id="Path_146" data-name="Path 146" class="cls-5" d="M261.274,315.726c-3.853-.084-7.757-.086-11.614,0h0a259.634,259.634,0,0,1,58.7,5.364.727.727,0,0,0-.148-.016.8.8,0,0,0-.8.8v.651a257.038,257.038,0,0,0-45.2-5.177l-.168-.955A.8.8,0,0,0,261.274,315.726Z" transform="translate(-200.973 -286.983)"/>
          <path id="Path_147" data-name="Path 147" class="cls-5" d="M256.137,525.35v.478a.8.8,0,0,1-.8.8h0a.8.8,0,0,1-.8-.8v-.48Z" transform="translate(-204.902 -455.784)"/>
          <path id="Path_148" data-name="Path 148" class="cls-5" d="M258.64,526.627a.8.8,0,0,0,.8-.8v-.478h6.7v.478a.8.8,0,0,0,.8.8v.177h-8.3Z" transform="translate(-208.202 -455.784)"/>
          <path id="Path_149" data-name="Path 149" class="cls-5" d="M257.233,323.933c-3.863-.076-7.773-.066-11.626.031H245.5q6.681-.168,13.363,0c1.219,6.96,2.441,13.98,3.652,20.931-.542-.01-1.086-.02-1.628-.027C259.675,337.91,258.454,330.9,257.233,323.933Z" transform="translate(-197.624 -293.601)"/>
          <path id="Path_150" data-name="Path 150" class="cls-5" d="M240.117,205.752a.8.8,0,0,1-.764.833l-.3.014c-.053-.532-.1-1.061-.156-1.591l.39-.02A.8.8,0,0,1,240.117,205.752Z" transform="translate(-192.311 -197.892)"/>
          <path id="Path_151" data-name="Path 151" class="cls-5" d="M235.041,233.286q-.8.012-1.6.039c-.645-6.689-1.293-13.383-1.938-20,.532-.031,1.065-.057,1.6-.08C233.742,219.876,234.394,226.586,235.041,233.286Z" transform="translate(-186.354 -204.544)"/>
          <path id="Path_152" data-name="Path 152" class="cls-5" d="M57.732,317.05a.8.8,0,0,0,.71.718,257.148,257.148,0,0,0-45.312,5.162V321.3a258.54,258.54,0,0,1,44.52-5.107C57.676,316.479,57.705,316.763,57.732,317.05Z" transform="translate(-10.567 -287.41)"/>
          <path id="Path_153" data-name="Path 153" class="cls-5" d="M232.3,205.08c.053.53.1,1.061.156,1.591-.532.023-1.065.049-1.6.08q-.078-.8-.156-1.591Q231.5,205.115,232.3,205.08Z" transform="translate(-185.71 -197.967)"/>
          <path id="Path_154" data-name="Path 154" class="cls-5" d="M49.824,169.315q.312,3.182.626,6.4-.8.033-1.6.08-.273-2.79-.544-5.556A155.663,155.663,0,0,0,6.4,178.819v4.633q-.8.248-1.6.509v-5.7a.8.8,0,0,1,.532-.755,157.377,157.377,0,0,1,43.649-8.9A.8.8,0,0,1,49.824,169.315Z" transform="translate(-3.861 -168.602)"/>
          <path id="Path_155" data-name="Path 155" class="cls-5" d="M55.452,205.49q.076.8.156,1.591A171.907,171.907,0,0,0,13,214.815V213.14a173.313,173.313,0,0,1,42.452-7.65Z" transform="translate(-10.462 -198.297)"/>
          <path id="Path_156" data-name="Path 156" class="cls-5" d="M222.815,525.842a.8.8,0,0,1-.8.8h0a.8.8,0,0,1-.8-.8v-.485h1.6Z" transform="translate(-178.079 -455.792)"/>
          <path id="Path_157" data-name="Path 157" class="cls-5" d="M231.807,526.627h0v.177h-6.5v-.17a.8.8,0,0,0,.8-.8v-.484h4.9v.48A.8.8,0,0,0,231.807,526.627Z" transform="translate(-181.372 -455.784)"/>
          <path id="Path_158" data-name="Path 158" class="cls-5" d="M188.372,457.79l.02,8.775h-1.6l-.02-8.775a4.21,4.21,0,0,0-1.188-2.991,2.925,2.925,0,0,0-2.12-.874h-.084a3.742,3.742,0,0,0-3.315,3.986l.033,8.66h-1.6l-.041-8.652c-.012-3.023,2.176-5.53,4.875-5.591h.084a4.511,4.511,0,0,1,3.27,1.33A5.805,5.805,0,0,1,188.372,457.79Z" transform="translate(-143.657 -397.001)"/>
          <path id="Path_159" data-name="Path 159" class="cls-5" d="M187.97,353.605a.8.8,0,0,1-.78.8c-2.765.062-5.563.154-8.319.267h-.031a.8.8,0,0,1-.8-.8L178,344.723c-.012-3.019,2.174-5.591,4.875-5.733h.312c2.664,0,4.754,2.358,4.762,5.366Zm-1.6-.78-.02-8.477c0-2.114-1.394-3.771-3.163-3.771h-.228a3.923,3.923,0,0,0-3.356,4.13l.031,8.325c2.235-.078,4.493-.148,6.735-.195Z" transform="translate(-143.287 -305.764)"/>
          <path id="Path_160" data-name="Path 160" class="cls-5" d="M187.581,240.474a.8.8,0,0,1-.764.8c-2.769.121-5.575.294-8.338.517h-.064a.8.8,0,0,1-.8-.8l-.035-9.153c-.012-3.019,2.17-5.655,4.863-5.875h.084c.119-.01.242-.016.359-.016,2.613,0,4.664,2.315,4.68,5.265Zm-1.6-.76-.019-8.494c0-2.059-1.355-3.67-3.073-3.67h-.314c-1.849.152-3.4,2.11-3.395,4.274l.031,8.293c2.246-.156,4.516-.3,6.768-.4Z" transform="translate(-142.949 -214.767)"/>
          <path id="Path_161" data-name="Path 161" class="cls-5" d="M180.247,525.845a.8.8,0,0,1-.8.8h0a.8.8,0,0,1-.8-.8v-.5h1.6Z" transform="translate(-143.81 -455.784)"/>
          <path id="Path_162" data-name="Path 162" class="cls-5" d="M183.546,525.35h6.7v.486a.8.8,0,0,0,.8.8h0v.17h-8.3v-.156a.8.8,0,0,0,.8-.8Z" transform="translate(-147.111 -455.784)"/>
          <path id="Path_163" data-name="Path 163" class="cls-5" d="M155.934,526.639h0v.156H149.44v-.142a.8.8,0,0,0,.8-.8v-.509h4.9v.5A.8.8,0,0,0,155.934,526.639Z" transform="translate(-120.296 -455.776)"/>
          <path id="Path_164" data-name="Path 164" class="cls-5" d="M146.943,525.891a.8.8,0,0,1-.8.8h0a.8.8,0,0,1-.8-.8v-.519h1.6Z" transform="translate(-117.004 -455.808)"/>
          <path id="Path_165" data-name="Path 165" class="cls-5" d="M112.412,459.925l.043,8.52h-1.6l-.043-8.514a3.945,3.945,0,0,0-1.158-2.843,2.906,2.906,0,0,0-2.145-.827h-.086a3.737,3.737,0,0,0-3.315,3.9l.043,8.28h-1.6l-.043-8.272a5.342,5.342,0,0,1,4.85-5.5h.084a4.485,4.485,0,0,1,3.315,1.268A5.552,5.552,0,0,1,112.412,459.925Z" transform="translate(-82.517 -398.879)"/>
          <path id="Path_166" data-name="Path 166" class="cls-5" d="M111.945,358.829a.8.8,0,0,1-.757.8c-2.755.154-5.546.333-8.288.534h-.058a.8.8,0,0,1-.8-.8h0L102,350.555a5.731,5.731,0,0,1,4.8-5.77h.082a4.391,4.391,0,0,1,.468-.025,4.792,4.792,0,0,1,4.557,5.051Zm-1.6-.751-.039-8.272a3.169,3.169,0,0,0-2.956-3.457,2.951,2.951,0,0,0-.3.018h-.086a4.1,4.1,0,0,0-3.368,4.173l.041,7.964c2.221-.154,4.469-.3,6.7-.425Z" transform="translate(-82.107 -310.409)"/>
          <path id="Path_167" data-name="Path 167" class="cls-5" d="M111.381,248.9a.8.8,0,0,1-.714.8c-2.755.294-5.542.645-8.28,1.037a.863.863,0,0,1-.113,0,.8.8,0,0,1-.8-.8l-.045-8.818a6.135,6.135,0,0,1,4.752-6.031l.086-.016a4.535,4.535,0,0,1,.721-.059c2.465,0,4.335,2.083,4.349,4.846Zm-1.6-.712-.049-8.311a2.972,2.972,0,0,0-2.75-3.255,2.883,2.883,0,0,0-.462.039l-.086.014a4.54,4.54,0,0,0-3.412,4.448l.039,7.9c2.233-.31,4.483-.591,6.72-.838Z" transform="translate(-81.648 -222.068)"/>
          <path id="Path_168" data-name="Path 168" class="cls-5" d="M115.179,526.8h-8.3v-.113a.8.8,0,0,0,.8-.8v-.538h6.7v.517a.8.8,0,0,0,.8.8h0Z" transform="translate(-86.035 -455.784)"/>
          <path id="Path_169" data-name="Path 169" class="cls-5" d="M104.423,525.888a.8.8,0,0,1-.8.8h0a.8.8,0,0,1-.8-.8v-.546h1.6Z" transform="translate(-82.775 -455.784)"/>
          <path id="Path_170" data-name="Path 170" class="cls-5" d="M80.053,526.692h0v.113H73.56v-.086a.8.8,0,0,0,.8-.8v-.566h4.9v.546A.8.8,0,0,0,80.053,526.692Z" transform="translate(-59.213 -455.784)"/>
          <path id="Path_171" data-name="Path 171" class="cls-5" d="M71.057,525.916a.8.8,0,0,1-.8.8h0a.8.8,0,0,1-.8-.8v-.573h1.6Z" transform="translate(-55.912 -455.784)"/>
          <path id="Path_172" data-name="Path 172" class="cls-5" d="M36.667,463.622l.037,8.046H35.1l-.035-8.036a3.557,3.557,0,0,0-1.078-2.592,2.9,2.9,0,0,0-2.186-.78h-.082a3.718,3.718,0,0,0-3.333,3.734l.02,7.683h-1.6l-.021-7.683a5.335,5.335,0,0,1,4.824-5.32H31.7a4.469,4.469,0,0,1,3.379,1.207A5.154,5.154,0,0,1,36.667,463.622Z" transform="translate(-21.563 -402.102)"/>
          <path id="Path_173" data-name="Path 173" class="cls-5" d="M36.385,367.636a.8.8,0,0,1-.729.8c-2.742.242-5.513.511-8.239.8a.7.7,0,0,1-.084,0,.785.785,0,0,1-.8-.78l-.023-8.3a5.9,5.9,0,0,1,4.727-5.706l.086-.014a4.594,4.594,0,0,1,.712-.057,4.409,4.409,0,0,1,4.309,4.649Zm-1.6-.727-.037-7.876a2.809,2.809,0,0,0-2.71-3.058,2.881,2.881,0,0,0-.462.039l-.086.014a4.3,4.3,0,0,0-3.379,4.128l.02,7.41C30.336,367.324,32.569,367.108,34.784,366.909Z" transform="translate(-21.338 -318.153)"/>
          <path id="Path_174" data-name="Path 174" class="cls-5" d="M36.05,263.259a.8.8,0,0,1-.665.792c-2.73.47-5.483.994-8.19,1.56a.76.76,0,0,1-.164.018.8.8,0,0,1-.8-.8l-.023-8.293a6.559,6.559,0,0,1,4.633-6.088l.082-.02a4.524,4.524,0,0,1,1.1-.14A4.059,4.059,0,0,1,36,254.65Zm-1.6-.669-.035-7.937a2.486,2.486,0,0,0-2.381-2.767,2.87,2.87,0,0,0-.706.092l-.082.02a4.937,4.937,0,0,0-3.428,4.536l.019,7.313C30.022,263.4,32.239,262.979,34.447,262.591Z" transform="translate(-21.096 -234.361)"/>
          <path id="Path_175" data-name="Path 175" class="cls-5" d="M39.3,526.8H31v-.045a.8.8,0,0,0,.8-.8v-.608h6.694v.573a.8.8,0,0,0,.8.8h0Z" transform="translate(-24.952 -455.784)"/>
          <path id="Path_176" data-name="Path 176" class="cls-5" d="M28.5,525.958a.8.8,0,0,1-.8.8h0a.8.8,0,0,1-.8-.8v-.614h1.6Z" transform="translate(-21.651 -455.784)"/>
          <path id="Path_177" data-name="Path 177" class="cls-5" d="M14.811,526.77h0v.045H10.89a.8.8,0,0,0,.47-.729v-.725h2.65v.614A.8.8,0,0,0,14.811,526.77Z" transform="translate(-8.763 -455.792)"/>
          <path id="Path_178" data-name="Path 178" class="cls-5" d="M6.7,525.35v.725a.8.8,0,0,1-.47.729H5.572a.8.8,0,0,1-.472-.727v-.727Z" transform="translate(-4.102 -455.784)"/>
          <path id="Path_179" data-name="Path 179" class="cls-5" d="M6.6,451.643l.016,14.346h-1.6L5,451.61a.8.8,0,0,0,.528.135Z" transform="translate(-4.022 -396.423)"/>
          <path id="Path_180" data-name="Path 180" class="cls-5" d="M6.6,443.55v1.6l-1.073.1a.8.8,0,0,1-.53-.135V443.8a.792.792,0,0,1,.374-.136Z" transform="translate(-4.022 -389.935)"/>
          <path id="Path_181" data-name="Path 181" class="cls-5" d="M6.529,350.75l.018,18.1-1.223.115a.791.791,0,0,0-.374.136l-.02-18.271a.8.8,0,0,0,.62.127Z" transform="translate(-3.966 -315.231)"/>
          <path id="Path_182" data-name="Path 182" class="cls-5" d="M6.535,342.38v1.632l-.975.2a.8.8,0,0,1-.62-.127v-1.312a.781.781,0,0,1,.292-.125C5.663,342.559,6.1,342.468,6.535,342.38Z" transform="translate(-3.974 -308.493)"/>
          <path id="Path_183" data-name="Path 183" class="cls-5" d="M6.423,253.31l.018,17.371c-.437.088-.872.179-1.308.269a.78.78,0,0,0-.293.125l-.01-17.259a.817.817,0,0,0,.107-.027Q5.684,253.546,6.423,253.31Z" transform="translate(-3.885 -236.792)"/>
          <path id="Path_184" data-name="Path 184" class="cls-5" d="M6.391,244.72V246.4q-.747.236-1.494.48a.814.814,0,0,1-.107.027v-1.673Q5.593,244.97,6.391,244.72Z" transform="translate(-3.853 -229.877)"/>
          <path id="Path_185" data-name="Path 185" class="cls-5" d="M7.52,532.81h.657a.779.779,0,0,1-.328.07h0a.781.781,0,0,1-.33-.07Z" transform="translate(-6.051 -461.789)"/>
          <path id="Path_186" data-name="Path 186" class="cls-5" d="M2.569,526.8H2.1a.727.727,0,1,1,0-1.455v.727a.8.8,0,0,0,.472.727Z" transform="translate(-1.1 -455.784)"/>
          <path id="Path_187" data-name="Path 187" class="cls-5" d="M3.562,444.84v1.32a.8.8,0,0,1,0-1.32Z" transform="translate(-2.584 -390.973)"/>
          <path id="Path_188" data-name="Path 188" class="cls-5" d="M3.5,344.41v1.312a.78.78,0,0,1-.328-.493.8.8,0,0,1,.328-.819Z" transform="translate(-2.536 -310.127)"/>
          <path id="Path_189" data-name="Path 189" class="cls-5" d="M.927,247.33V249a.825.825,0,0,1-.144.012.8.8,0,0,1-.246-1.56Z" transform="translate(0.015 -231.978)"/>
        </g>
      </g>
    </g>
  </g>
</svg>
