<svg xmlns="http://www.w3.org/2000/svg" xmlns:xlink="http://www.w3.org/1999/xlink" viewBox="-630 850.36 110.7 110.7">
  <defs>
    <style>
      .cls-1 {
        fill: none;
      }

      .cls-2 {
        clip-path: url(#clip-path);
      }

      .cls-3 {
        fill: #fff;
      }

      .cls-4 {
        fill: #fac35b;
      }

      .cls-5 {
        fill: #3a2823;
      }
    </style>
    <clipPath id="clip-path">
      <circle id="Ellipse_20" data-name="Ellipse 20" class="cls-1" cx="55.35" cy="55.35" r="55.35"/>
    </clipPath>
  </defs>
  <g id="saint_petersburg" data-name="saint petersburg" transform="translate(-636.9 850.36)">
    <g id="Capa_1" data-name="Capa 1" transform="translate(6.9 0)">
      <g id="Group_334" data-name="Group 334" class="cls-2" transform="translate(0 0)">
        <circle id="Ellipse_19" data-name="Ellipse 19" class="cls-3" cx="55.35" cy="55.35" r="55.35"/>
        <g id="_Group_" data-name="&lt;Group&gt;" transform="translate(-1.34 30.255)">
          <path id="Path_745" data-name="Path 745" class="cls-3" d="M259.528,229.83l1.676,3.515s-2.748,1.554-6,3.5l-1.866-3.676-.159-.338Z" transform="translate(-204.015 -215.454)"/>
          <path id="Path_746" data-name="Path 746" class="cls-3" d="M204.865,257.913l2.319,4.451c-1.7,1.082-3.225,2.115-4.261,2.928l-.369.293-.085-.1-2.783-5.049-.076-.163,5.21-2.455Z" transform="translate(-160.848 -238.009)"/>
          <path id="Path_747" data-name="Path 747" class="cls-3" d="M135.986,247.121l-5.354,2.408-2.424-5.358-.029-.066,5.367-2.375,2.365,5.226Z" transform="translate(-103.289 -225.044)"/>
          <path id="Path_748" data-name="Path 748" class="cls-3" d="M238.976,199.94l2.46,5.249-2.8,1.258-2.4-5.3Z" transform="translate(-190.364 -191.369)"/>
          <path id="Path_749" data-name="Path 749" class="cls-3" d="M187.746,217.69l2.41,5.329-5.389,2.423-2.427-5.362Z" transform="translate(-146.931 -205.672)"/>
          <path id="Path_750" data-name="Path 750" class="cls-4" d="M30.56,273.64v6.148l0,.076L27,279.778V273.64h3.56Z" transform="translate(-21.757 -250.757)"/>
          <path id="Path_751" data-name="Path 751" class="cls-4" d="M581.491,275.06v6.024l-4.661.113V275.06Z" transform="translate(-464.815 -251.901)"/>
          <path id="Path_752" data-name="Path 752" class="cls-4" d="M562.06,275.254V281.2l-3.558.087,0-.076V275.06h3.56Z" transform="translate(-450.045 -251.901)"/>
          <path id="Path_753" data-name="Path 753" class="cls-4" d="M527.879,267.808v6.148H520.5v-7.9h7.379Z" transform="translate(-419.424 -244.649)"/>
          <path id="Path_754" data-name="Path 754" class="cls-4" d="M464.017,306.193l4.661-.113v14.755l-31.847,0V306.851l8.948-.216,6.843-.167,7.838-.188Z" transform="translate(-352.002 -276.897)"/>
          <path id="Path_755" data-name="Path 755" class="cls-3" d="M231.792,245.574l1.866,3.672c-1.585.944-3.29,1.983-4.855,2.979l-2.319-4.457-.045-.093,5.193-2.445Z" transform="translate(-182.468 -227.864)"/>
          <path id="Path_756" data-name="Path 756" class="cls-3" d="M181.026,275.688l.085.1c-1.577,1.258-3.107,2.6-4.48,3.93l-.194-.21-3.367-6.472-.07-.124,5.163-2.431.076.163Z" transform="translate(-139.405 -248.211)"/>
          <path id="Path_757" data-name="Path 757" class="cls-3" d="M251.321,186.26l3.008,6.311-3.416,1.594-2.33-5.307-.13.058-.452-.965Z" transform="translate(-199.841 -180.345)"/>
          <path id="Path_758" data-name="Path 758" class="cls-3" d="M215.241,206.17l2.4,5.3-5.047,2.268-2.41-5.329Z" transform="translate(-169.365 -196.389)"/>
          <path id="Path_759" data-name="Path 759" class="cls-3" d="M163.4,235.362l-5.138,2.307-.074-.165-2.365-5.226L160.97,230Z" transform="translate(-125.561 -215.591)"/>
          <path id="Path_760" data-name="Path 760" class="cls-3" d="M107.468,254.026l2.424,5.358-4.987,2.241-.155-.348-2.309-5.107,5-2.21Z" transform="translate(-82.547 -234.899)"/>
          <path id="Path_761" data-name="Path 761" class="cls-4" d="M52.709,266.388v6.148H45.33v-7.9h7.379Z" transform="translate(-36.527 -243.505)"/>
          <path id="Path_762" data-name="Path 762" class="cls-4" d="M7.661,273.834v5.944L3,279.664V273.64H7.661Z" transform="translate(-2.417 -250.757)"/>
          <path id="Path_763" data-name="Path 763" class="cls-4" d="M25.9,305.215l8.948.217v13.982H3V304.66l4.661.115,3.558.085,7.836.19Z" transform="translate(-2.417 -275.753)"/>
          <path id="Path_764" data-name="Path 764" class="cls-5" d="M33.012,292.583H0V270.64H8.544v1.165H1.165v4.872l31.847.777ZM1.165,291.418H31.847v-12.83l-30.682-.746Z" transform="translate(0 -248.34)"/>
          <rect id="Rectangle_258" data-name="Rectangle 258" class="cls-5" width="1.165" height="6.02" transform="translate(4.661 23.077)"/>
          <path id="Path_765" data-name="Path 765" class="cls-5" d="M50.874,270.7H42.33V261.64h8.544ZM43.5,269.536h6.214v-6.731H43.5Z" transform="translate(-34.11 -241.087)"/>
          <path id="Path_766" data-name="Path 766" class="cls-5" d="M83.192,217.807l-.478-1.064.13-.058,33.91-15.24L114.89,197.2,82.93,211.335l-.47-1.066,33.026-14.609,2.8,6.375Z" transform="translate(-66.447 -187.92)"/>
          <rect id="Rectangle_259" data-name="Rectangle 259" class="cls-5" width="1.165" height="5.967" transform="translate(19.211 21.182) rotate(-24.33)"/>
          <path id="Path_767" data-name="Path 767" class="cls-5" d="M128.062,258.983l-.037-.08L125.6,253.54l1.06-.48,2.458,5.432Z" transform="translate(-101.21 -234.173)"/>
          <path id="Path_768" data-name="Path 768" class="cls-5" d="M155.052,245.327l-2.462-5.439,1.064-.478.1.212,2.363,5.224Z" transform="translate(-122.958 -223.174)"/>
          <path id="Path_769" data-name="Path 769" class="cls-5" d="M181.962,234.669l-.031-.07-2.451-5.42.581-.19.5-.229,2.46,5.435Z" transform="translate(-144.627 -214.592)"/>
          <path id="Path_770" data-name="Path 770" class="cls-5" d="M209.742,221.971l-.016-.033-2.447-5.41,1.056-.487.035.076,2.423,5.358Z" transform="translate(-167.028 -204.342)"/>
          <path id="Path_771" data-name="Path 771" class="cls-5" d="M235.734,210.327l-.017-.037-2.447-5.408,1.06-.482,2.456,5.428Z" transform="translate(-187.971 -194.963)"/>
          <path id="Path_772" data-name="Path 772" class="cls-5" d="M119.875,242.845l-.5-1.051.049-.023,32.257-15.192.493,1.054-.219.1Z" transform="translate(-96.189 -212.836)"/>
          <path id="Path_773" data-name="Path 773" class="cls-5" d="M166.172,214.225l-.952-.672a39.983,39.983,0,0,1,4.738-5.311c1.418-1.359,2.981-2.736,4.521-3.965l.373-.3c.953-.75,2.4-1.748,4.305-2.961,1.427-.909,3.066-1.913,4.87-2.989,2.435-1.454,4.61-2.7,5.536-3.225l-5.723-12,1.051-.5,6.191,12.984-.466.268c-.027.016-2.779,1.565-5.985,3.478-1.794,1.068-3.424,2.068-4.841,2.969-1.87,1.192-3.288,2.167-4.214,2.9l-.363.287c-1.515,1.21-3.049,2.556-4.441,3.9A38.642,38.642,0,0,0,166.172,214.225Z" transform="translate(-133.136 -177.154)"/>
          <path id="Path_774" data-name="Path 774" class="cls-5" d="M253.264,249.96l-.076-.148-1.868-3.674,1.041-.528,1.94,3.818Z" transform="translate(-202.516 -228.17)"/>
          <rect id="Rectangle_260" data-name="Rectangle 260" class="cls-5" width="1.165" height="5.183" transform="matrix(0.887, -0.462, 0.462, 0.887, 43.499, 20.178)"/>
          <rect id="Rectangle_261" data-name="Rectangle 261" class="cls-5" width="1.165" height="5.766" transform="matrix(0.876, -0.483, 0.483, 0.876, 38.327, 22.71)"/>
          <rect id="Rectangle_262" data-name="Rectangle 262" class="cls-5" width="1.165" height="7.296" transform="translate(33.146 25.089) rotate(-27.49)"/>
          <path id="Path_775" data-name="Path 775" class="cls-5" d="M247.45,192.545l-3.4-7.251,3.934-2,.528,1.039-2.928,1.491L248.01,191l3.043-1.42.493,1.054Z" transform="translate(-196.658 -177.952)"/>
          <rect id="Rectangle_263" data-name="Rectangle 263" class="cls-5" width="1.748" height="6.643" transform="translate(46.161 0.766) rotate(-26)"/>
          <path id="Path_776" data-name="Path 776" class="cls-5" d="M466.842,294H433.83V278.868l31.847-.777v-4.866H458.3V272.06h8.544ZM435,292.838h30.682V279.263L435,280.006Z" transform="translate(-349.584 -249.484)"/>
          <rect id="Rectangle_264" data-name="Rectangle 264" class="cls-5" width="1.165" height="6.02" transform="translate(111.432 23.353)"/>
          <path id="Path_777" data-name="Path 777" class="cls-5" d="M526.044,272.121H517.5V263.06h8.544Zm-7.379-1.165h6.214v-6.731h-6.214Z" transform="translate(-417.006 -242.231)"/>
          <path id="Path_778" data-name="Path 778" class="cls-5" d="M371.98,219.234l-.132-.06-34.958-15.71,2.8-6.373,33.03,14.607-.47,1.066-31.962-14.135-1.864,4.245,34.042,15.3Z" transform="translate(-271.469 -189.072)"/>
          <rect id="Rectangle_265" data-name="Rectangle 265" class="cls-5" width="5.967" height="1.165" transform="translate(94.53 26.418) rotate(-65.66)"/>
          <path id="Path_779" data-name="Path 779" class="cls-5" d="M461.166,260.4l-1.056-.489.037-.08,2.422-5.354,1.06.48Z" transform="translate(-370.761 -235.318)"/>
          <path id="Path_780" data-name="Path 780" class="cls-5" d="M434.16,246.737l-1.06-.482,2.458-5.435,1.064.478-.1.212Z" transform="translate(-348.996 -224.31)"/>
          <path id="Path_781" data-name="Path 781" class="cls-5" d="M407.154,236.089l-1.064-.474.031-.07,2.429-5.365.507.229.581.184-.027.068Z" transform="translate(-327.231 -215.736)"/>
          <path id="Path_782" data-name="Path 782" class="cls-5" d="M379.512,223.439l-1.052-.5.016-.033,2.435-5.389,1.068.466-.033.076Z" transform="translate(-304.967 -205.535)"/>
          <path id="Path_783" data-name="Path 783" class="cls-5" d="M353.494,211.725l-1.064-.474.016-.035,2.445-5.406,1.06.482Z" transform="translate(-283.991 -196.099)"/>
          <path id="Path_784" data-name="Path 784" class="cls-5" d="M347.864,244.269l-.051-.023L315.56,229.054l.493-1.054.219.1,32.08,15.108Z" transform="translate(-254.281 -213.98)"/>
          <path id="Path_785" data-name="Path 785" class="cls-5" d="M330.335,215.677a39.085,39.085,0,0,0-4.6-5.144c-1.42-1.359-2.913-2.678-4.437-3.9l-.365-.289c-.922-.724-2.33-1.7-4.218-2.9-1.385-.882-3.012-1.882-4.841-2.969-3.206-1.919-5.956-3.472-5.983-3.472l-.474-.266,6.191-12.985,1.053.5-5.723,12c.926.526,3.107,1.771,5.536,3.225,1.839,1.093,3.478,2.1,4.872,2.989,1.909,1.218,3.359,2.214,4.309,2.961l.381.289c1.554,1.237,3.07,2.571,4.515,3.963a39.967,39.967,0,0,1,4.74,5.311Z" transform="translate(-246.11 -178.331)"/>
          <path id="Path_786" data-name="Path 786" class="cls-5" d="M338.191,251.374l-1.041-.526,1.944-3.818,1.037.528Z" transform="translate(-271.679 -229.314)"/>
          <path id="Path_787" data-name="Path 787" class="cls-5" d="M363.2,263.464l-1.033-.538,2.4-4.6,1.033.54Z" transform="translate(-291.84 -238.42)"/>
          <rect id="Rectangle_266" data-name="Rectangle 266" class="cls-5" width="5.766" height="1.165" transform="translate(75.127 27.475) rotate(-61.13)"/>
          <rect id="Rectangle_267" data-name="Rectangle 267" class="cls-5" width="7.296" height="1.165" transform="matrix(0.461, -0.887, 0.887, 0.461, 79.721, 31.31)"/>
          <path id="Path_788" data-name="Path 788" class="cls-5" d="M325.267,193.973l-4.1-1.915.5-1.053.151.072,2.886,1.348,2.425-5.177-2.93-1.493.536-1.035.109.056,3.82,1.946Z" transform="translate(-258.802 -179.104)"/>
          <rect id="Rectangle_268" data-name="Rectangle 268" class="cls-5" width="6.643" height="1.748" transform="translate(66.614 6.247) rotate(-64)"/>
        </g>
      </g>
    </g>
  </g>
</svg>
