<svg xmlns="http://www.w3.org/2000/svg" viewBox="-519 458.36 106.34 106.34">
  <defs>
    <style>
      .cls-1 {
        fill: #fff;
      }

      .cls-2 {
        fill: #3a2823;
      }

      .cls-3 {
        fill: #fac35b;
      }
    </style>
  </defs>
  <g id="sydney" transform="translate(-519 458.36)">
    <g id="Capa_1" data-name="Capa 1" transform="translate(0 0)">
      <circle id="Ellipse_12" data-name="Ellipse 12" class="cls-1" cx="53.17" cy="53.17" r="53.17" transform="translate(0 0)"/>
      <g id="_Group_" data-name="&lt;Group&gt;" transform="translate(5.596 28.651)">
        <path id="Path_537" data-name="Path 537" class="cls-2" d="M462.767,275.08a.515.515,0,0,1-.142.543l-1.56,1.421c-3.839,3.486-9.887,8.5-12.312,10.487a.5.5,0,0,1-.151.086h-1.13l-.733-.675,1.459-.287c2.479-2.041,8.394-6.949,12.17-10.374l.694-.631-.933-.088c-.847-.078-1.709-.119-2.563-.119A31.138,31.138,0,0,0,445.4,278l-.373.166-.1-.36a.507.507,0,0,0-.284-.328l-.3-.136.64-.285a32.233,32.233,0,0,1,12.6-2.651c.886,0,1.78.043,2.66.125l2.095.2A.517.517,0,0,1,462.767,275.08Z" transform="translate(-367.048 -251.872)"/>
        <path id="Path_538" data-name="Path 538" class="cls-2" d="M455.025,342.257h1.13a.389.389,0,0,1-.078.022l-1.843.362a.524.524,0,0,1-.1.009.515.515,0,0,1-.358-.144.521.521,0,0,1-.147-.272.515.515,0,0,1,.407-.6l.257-.05Z" transform="translate(-374.595 -306.512)"/>
        <path id="Path_539" data-name="Path 539" class="cls-3" d="M451.181,291.192l-1.459.287-.149-.138h.187a.515.515,0,0,0,.515-.515.539.539,0,0,0-.034-.187L448,282.718l.373-.166A31.136,31.136,0,0,1,460.549,280c.854,0,1.716.041,2.563.119l.933.088-.694.631C459.58,284.253,453.66,289.161,451.181,291.192Z" transform="translate(-370.026 -256.419)"/>
        <path id="Path_540" data-name="Path 540" class="cls-2" d="M419.782,335.646l.933.86h-7.454a.517.517,0,0,1-.479-.326l-.231-.591-.03-.078h6.913A.508.508,0,0,1,419.782,335.646Z" transform="translate(-341.164 -301.574)"/>
        <path id="Path_541" data-name="Path 541" class="cls-2" d="M236.585,339.881a.526.526,0,0,0,.1-.009l1.843-.362a.394.394,0,0,0,.078-.022h4.509v-.8a.517.517,0,0,1,.672-.492l2.4.765a.52.52,0,0,1,.265.187l3.86,5.5a.515.515,0,0,1-.42.811H186.18a.515.515,0,0,0,.515-.515v-.515H248.9l-3.188-4.542-1.567-.5v.612a.517.517,0,0,1-.515.515h-6.357a.52.52,0,0,1-.351-.136l-.7-.644A.515.515,0,0,0,236.585,339.881Z" transform="translate(-157.046 -303.74)"/>
        <path id="Path_542" data-name="Path 542" class="cls-2" d="M449.849,341.047a.515.515,0,0,0-.407.6.521.521,0,0,0,.147.272l-1.119-1.03v-.034h1.483l.149.138Z" transform="translate(-370.408 -305.926)"/>
        <path id="Path_543" data-name="Path 543" class="cls-3" d="M405.814,284.585l2.114,7.462h-6.6l-.1-.263c-.464-1.19-1.4-3.582-2.332-5.9a.487.487,0,0,0-.034-.22l-.164-.407c-.513-1.276-.942-2.33-1.282-3.147a16.287,16.287,0,0,1,2.272.373l.677.159a.5.5,0,0,0,.187,0,35.533,35.533,0,0,1,5.1,1.865Z" transform="translate(-328.873 -258.135)"/>
        <path id="Path_544" data-name="Path 544" class="cls-2" d="M443.141,290.59l.1.36-.36.16a.515.515,0,0,1-.545-.08.506.506,0,0,1-.134-.187.515.515,0,0,1,.261-.681l.1-.043.3.136A.507.507,0,0,1,443.141,290.59Z" transform="translate(-365.274 -264.651)"/>
        <path id="Path_545" data-name="Path 545" class="cls-2" d="M444.137,302.3a.507.507,0,0,0-.349-.138v-.032h.785l-2.113-7.462.123-.071a.515.515,0,0,0,.545.08l.36-.16,2.244,7.945a.54.54,0,0,1,.034.187.515.515,0,0,1-.515.515h-.187Z" transform="translate(-365.519 -268.23)"/>
        <path id="Path_546" data-name="Path 546" class="cls-2" d="M419.28,283.107a35.521,35.521,0,0,0-5.1-1.865.513.513,0,0,0,.373-.257l.343-.6a37.53,37.53,0,0,1,4.8,1.794l.093.043-.1.043a.515.515,0,0,0-.261.681.506.506,0,0,0,.134.186l-.123.071Z" transform="translate(-342.514 -256.728)"/>
        <path id="Path_547" data-name="Path 547" class="cls-2" d="M344.339,235.589a.517.517,0,0,1-.022.479l-.679,1.158c-1.007,1.716-2.412,4.19-3.416,5.969q-.507-.147-1.026-.278l.127-.224c1-1.778,2.414-4.261,3.427-5.984l.3-.515-.588-.1a24.7,24.7,0,0,0-4.675-.392c-4.059.076-8.519,1.035-14.457,3.112l-.4.164-.56-.882.591-.241h.024c6.051-2.117,10.612-3.095,14.789-3.171a25.661,25.661,0,0,1,4.869.407l1.324.226A.517.517,0,0,1,344.339,235.589Z" transform="translate(-267.831 -219.553)"/>
        <path id="Path_548" data-name="Path 548" class="cls-3" d="M345.484,240.63l-.3.515c-1.013,1.724-2.425,4.2-3.427,5.984l-.127.224a19.609,19.609,0,0,0-2.069-.4l-1.595-.211a.515.515,0,0,0-.545.707l.614,1.492c.345.836.733,1.8,1.132,2.8l-.063.116a62.993,62.993,0,0,0-2.763,5.794l-.118.289h-1.567l-9.3-14.52.4-.164c5.938-2.076,10.4-3.035,14.457-3.111a24.706,24.706,0,0,1,4.675.392Z" transform="translate(-270.263 -223.996)"/>
        <path id="Path_549" data-name="Path 549" class="cls-2" d="M395.566,277.038l-.343.6a.513.513,0,0,1-.373.257,19.466,19.466,0,0,0-2.507-.522l-.709-.093.272.66c.392.949.841,2.052,1.291,3.19a.51.51,0,0,1-.062.22l-.211.384q-.175.321-.343.636c-.164-.416-.332-.834-.5-1.248l.03-.054-.073-.187c-.685-1.7-1.22-3.009-1.593-3.878a.515.515,0,0,1,.474-.718h0a15.142,15.142,0,0,1,3.294.435l.3.071.026-.045Q395.059,276.891,395.566,277.038Z" transform="translate(-323.175 -253.401)"/>
        <path id="Path_550" data-name="Path 550" class="cls-2" d="M410.9,308.5h-6.913c-.416-1.061-1.168-2.985-1.955-4.955q.168-.317.343-.636l.211-.384a.51.51,0,0,0,.062-.22c.933,2.321,1.865,4.712,2.332,5.9l.1.263H410.9Z" transform="translate(-332.631 -274.559)"/>
        <path id="Path_551" data-name="Path 551" class="cls-2" d="M386.509,302.25c.166.414.334.832.5,1.248-1.173,2.222-2.069,4.332-2.328,4.955H383.56l.118-.289a63.01,63.01,0,0,1,2.763-5.8Z" transform="translate(-317.606 -274.518)"/>
        <path id="Path_552" data-name="Path 552" class="cls-2" d="M397.024,281.716c.339.819.77,1.865,1.282,3.147l.164.407a.486.486,0,0,1,.034.22c-.451-1.13-.9-2.239-1.291-3.19l-.272-.66.709.093a19.479,19.479,0,0,1,2.507.522.5.5,0,0,1-.187,0l-.677-.159A16.3,16.3,0,0,0,397.024,281.716Z" transform="translate(-328.49 -257.753)"/>
        <path id="Path_553" data-name="Path 553" class="cls-2" d="M390.423,275.62a.515.515,0,0,0-.474.718c.373.869.907,2.175,1.593,3.878l.073.187-.03.054c-.4-.991-.787-1.953-1.132-2.8l-.614-1.492a.515.515,0,0,1,.545-.707l1.595.211a19.594,19.594,0,0,1,2.069.4l-.026.045-.3-.071a15.144,15.144,0,0,0-3.294-.435Z" transform="translate(-322.683 -252.722)"/>
        <path id="Path_554" data-name="Path 554" class="cls-2" d="M382.946,335.51h1.119l-.043.1-.237.576a.517.517,0,0,1-.478.319.5.5,0,0,1-.187-.037.515.515,0,0,1-.282-.673Z" transform="translate(-316.989 -301.574)"/>
        <path id="Path_555" data-name="Path 555" class="cls-2" d="M391.273,336.475h5.969v.026H385.49v-.034a.517.517,0,0,0,.478-.319l.237-.576.043-.1h4.29l.03.078.231.591A.517.517,0,0,0,391.273,336.475Z" transform="translate(-319.176 -301.542)"/>
        <path id="Path_556" data-name="Path 556" class="cls-2" d="M374.087,335.993a.511.511,0,0,0-.1-.312l-.11-.172h1.567l-.118.287a.515.515,0,0,0,.282.673.5.5,0,0,0,.187.037v.026h-2.22V336.5a.515.515,0,0,0,.517-.507Z" transform="translate(-309.48 -301.574)"/>
        <path id="Path_557" data-name="Path 557" class="cls-2" d="M309.735,335.657a.515.515,0,0,1-.41.826H295.106a.515.515,0,0,1-.515-.56l.034-.444h15Z" transform="translate(-245.232 -301.55)"/>
        <path id="Path_558" data-name="Path 558" class="cls-3" d="M303.927,258.87l9.129,14.263H300.34l.032-.444a39.066,39.066,0,0,1,3.233-13.155Z" transform="translate(-249.91 -239.231)"/>
        <path id="Path_559" data-name="Path 559" class="cls-2" d="M318.9,252.94l.56.882-.621.248a.515.515,0,1,1-.388-.953Z" transform="translate(-264.371 -234.407)"/>
        <path id="Path_560" data-name="Path 560" class="cls-2" d="M299.919,250.938l-.442.186a.513.513,0,0,0-.284.672.506.506,0,0,0,.213.248h0l-.323.662a39,39,0,0,0-3.235,13.166l-.032.444v.032H294.78l.043-.56a41.3,41.3,0,0,1,2.9-12.59l.373-.187a.515.515,0,0,0,.228-.7l-.1-.187.659-1.354a.515.515,0,0,1,.9-.054Z" transform="translate(-245.387 -232.405)"/>
        <path id="Path_561" data-name="Path 561" class="cls-2" d="M303.931,257.872a.511.511,0,0,0,.45.03l.619-.252,9.3,14.52H300.34v-.032h12.717l-9.129-14.263Z" transform="translate(-249.91 -238.238)"/>
        <path id="Path_562" data-name="Path 562" class="cls-2" d="M310.56,260.347q.207-.476.431-.933l.067-.134.1.187a.515.515,0,0,1-.228.7Z" transform="translate(-258.224 -239.564)"/>
        <path id="Path_563" data-name="Path 563" class="cls-3" d="M199.579,178.045l.187.373-.373.187a73.534,73.534,0,0,0-17.645,12.685l-.56.547-.138-.77c-.56-3.085-1.8-10.03-3.054-16.71-.241-1.295-.483-2.58-.722-3.826-.826-4.345-1.591-8.208-2.074-10.3l-.14-.6.612.1a31.218,31.218,0,0,1,17.011,8.954A39.132,39.132,0,0,1,199.579,178.045Z" transform="translate(-148 -158.503)"/>
        <path id="Path_564" data-name="Path 564" class="cls-2" d="M204.706,335.51l-.841.823a.515.515,0,0,1-.867-.278l-.1-.545Z" transform="translate(-170.647 -301.574)"/>
        <path id="Path_565" data-name="Path 565" class="cls-2" d="M237.373,336.5H206.14v-.062a.519.519,0,0,0,.36-.147l.841-.823h15.336l-.034.444a.515.515,0,0,0,.515.56h14.218Z" transform="translate(-173.283 -301.541)"/>
        <path id="Path_566" data-name="Path 566" class="cls-2" d="M190.235,336.431a.52.52,0,0,0,.157.024v.054h-3.209V336a.517.517,0,0,0-.272-.455l-.131-.069h3.007l.1.545A.517.517,0,0,0,190.235,336.431Z" transform="translate(-157.534 -301.55)"/>
        <path id="Path_567" data-name="Path 567" class="cls-2" d="M172.856,169.45c1.25,6.68,2.5,13.618,3.054,16.71l.138.77.56-.547A73.142,73.142,0,0,1,194.252,173.7l.373-.187-.187-.373a39.131,39.131,0,0,0-6.889-9.34,31.157,31.157,0,0,0-17.011-8.954l-.612-.1.14.6c.483,2.093,1.248,5.951,2.074,10.3l-.334.065a.519.519,0,0,0-.3-.4c-.136-.063-.311-.14-.526-.231-.769-4.02-1.47-7.538-1.921-9.5l-.315-1.36a.513.513,0,0,1,.588-.625l1.377.235a32.235,32.235,0,0,1,17.567,9.247,40.212,40.212,0,0,1,7.068,9.577l.341.651-.067.134q-.226.463-.431.933l-.478.244a72.482,72.482,0,0,0-17.382,12.5l-.412.4h-1.811l-.213-1.181c-.528-2.94-1.679-9.385-2.876-15.761.187-.265.341-.483.472-.649a.517.517,0,0,0,.1-.433Z" transform="translate(-142.854 -153.588)"/>
        <path id="Path_568" data-name="Path 568" class="cls-2" d="M185.8,237.137a.517.517,0,0,1-.1.433c-.131.164-.289.382-.472.649-.084-.457-.17-.916-.256-1.369a.515.515,0,0,1,.826.287Z" transform="translate(-156.062 -221.225)"/>
        <path id="Path_569" data-name="Path 569" class="cls-2" d="M184.22,371.74v.515a.515.515,0,0,1-.515.515h-.05a.515.515,0,1,1,0-1.03Z" transform="translate(-154.573 -331.046)"/>
        <path id="Path_570" data-name="Path 570" class="cls-2" d="M184.24,336v.5h-.56a.516.516,0,1,1,0-1.032h.16l.131.069A.517.517,0,0,1,184.24,336Z" transform="translate(-154.593 -301.541)"/>
        <path id="Path_571" data-name="Path 571" class="cls-2" d="M182.941,218.11c.237,1.244.479,2.529.722,3.826l-.267.05a.515.515,0,0,0-.826-.287c-.187-.994-.373-1.979-.56-2.942a.517.517,0,0,0,.548-.295.522.522,0,0,0,.043-.285Z" transform="translate(-153.654 -206.074)"/>
        <path id="Path_572" data-name="Path 572" class="cls-2" d="M150.3,237.35q.129.683.256,1.369a70.8,70.8,0,0,0-7.126,14.379h-1.086a.268.268,0,0,1,0-.028,68.416,68.416,0,0,1,7.868-15.64.477.477,0,0,1,.088-.08Z" transform="translate(-121.39 -221.725)"/>
        <path id="Path_573" data-name="Path 573" class="cls-2" d="M181.583,215.719a.522.522,0,0,1-.043.285.517.517,0,0,1-.548.295l-.231-1.209c.213.091.39.168.526.231a.519.519,0,0,1,.3.4Z" transform="translate(-152.637 -203.617)"/>
        <path id="Path_574" data-name="Path 574" class="cls-3" d="M131.759,212.613a.478.478,0,0,0-.08.08,68.339,68.339,0,0,0-7.868,15.64.238.238,0,0,0,0,.028H122.6c-.272-1.865-1.067-7.393-1.774-12.312h0a.5.5,0,0,0,0-.067l-.321-2.27a.709.709,0,0,0-.019-.084c-.45-3.145-.808-5.669-.875-6.2l-.062-.492.494.028a31.981,31.981,0,0,1,11.027,2.662.466.466,0,0,0,.136.041C131.386,210.634,131.573,211.615,131.759,212.613Z" transform="translate(-102.845 -196.988)"/>
        <path id="Path_575" data-name="Path 575" class="cls-2" d="M81.638,371.856a.515.515,0,0,0,.328.914H58.13a.513.513,0,0,0,.5-.515v-.515H81.5Z" transform="translate(-52.883 -331.046)"/>
        <path id="Path_576" data-name="Path 576" class="cls-2" d="M183.447,339.82a.52.52,0,0,0,.429.226h.56v5.727h-.56a.517.517,0,0,0-.328.116l-.138-.116v-5.919Z" transform="translate(-154.793 -305.08)"/>
        <path id="Path_577" data-name="Path 577" class="cls-2" d="M126.326,205.013a.467.467,0,0,1-.136-.041,31.981,31.981,0,0,0-11.026-2.662l-.494-.028.062.492c.067.528.425,3.05.875,6.2a.513.513,0,0,0-.353-.34l-.586-.164-.187-.05c-.4-2.822-.714-5.024-.778-5.514l-.14-1.106a.515.515,0,0,1,.539-.578l1.119.063a33.35,33.35,0,0,1,10.874,2.52Z" transform="translate(-97.971 -192.331)"/>
        <path id="Path_578" data-name="Path 578" class="cls-2" d="M143.31,321.77c-.035.1-.069.2-.1.3a.515.515,0,0,1-.489.353.53.53,0,0,1-.164-.026.517.517,0,0,1-.334-.625Z" transform="translate(-121.272 -290.397)"/>
        <path id="Path_579" data-name="Path 579" class="cls-2" d="M131.417,322.124a.517.517,0,0,1-.437.584h-.075a.515.515,0,0,1-.509-.442c-.019-.132-.045-.31-.076-.526h1.041C131.38,321.9,131.4,322.024,131.417,322.124Z" transform="translate(-111.606 -290.373)"/>
        <path id="Path_580" data-name="Path 580" class="cls-2" d="M124.129,268.106h-1.041c-.276-1.91-1-6.9-1.658-11.515l.056-.03.589-.3a.517.517,0,0,0,.28-.459C123.062,260.715,123.857,266.233,124.129,268.106Z" transform="translate(-104.374 -236.733)"/>
        <path id="Path_581" data-name="Path 581" class="cls-2" d="M138.323,322.881H133.46v-.054h.075a.517.517,0,0,0,.436-.584c-.015-.1-.034-.228-.054-.373h1.2a.517.517,0,0,0,.334.625.532.532,0,0,0,.164.026.515.515,0,0,0,.489-.353c.032-.1.067-.2.1-.3h2.252a.528.528,0,0,1,.243.06l4.712,2.5h-.16a.517.517,0,0,0-.515.515.523.523,0,0,0,.088.289l-.037.03Z" transform="translate(-114.16 -290.478)"/>
        <path id="Path_582" data-name="Path 582" class="cls-2" d="M120.012,242.781h0a.517.517,0,0,1-.28.459l-.589.3-.056.03q-.078-.543-.155-1.08h0l-.222-1.573h0q-.082-.571-.16-1.119l.187.05.586.164a.513.513,0,0,1,.353.34C119.777,241.143,119.893,241.951,120.012,242.781Z" transform="translate(-102.032 -223.718)"/>
        <path id="Path_583" data-name="Path 583" class="cls-2" d="M124.865,245.138a.488.488,0,0,1,0,.067c-.119-.83-.237-1.645-.345-2.425a.709.709,0,0,1,.019.084Z" transform="translate(-106.888 -226.142)"/>
        <path id="Path_584" data-name="Path 584" class="cls-2" d="M54.326,236.77q.078.535.155,1.08a17.9,17.9,0,0,0-7.187,7.7l-.582,1.138-.537-.166a.517.517,0,0,0-.569.186l-.2.276L39.181,233.94a.517.517,0,0,1,.388-.733l1.239-.187a24.626,24.626,0,0,1,3.664-.261,37.98,37.98,0,0,1,9.471,1.321q.078.543.16,1.119l-.254-.071a36.862,36.862,0,0,0-9.377-1.332,23.637,23.637,0,0,0-3.5.243l-.56.084L46,245.823l.373-.746a18.876,18.876,0,0,1,7.693-8.176Z" transform="translate(-37.427 -217.991)"/>
        <path id="Path_585" data-name="Path 585" class="cls-2" d="M119.412,245.794l.222,1.573h0c-.076-.535-.151-1.063-.224-1.576Z" transform="translate(-102.731 -228.591)"/>
        <path id="Path_586" data-name="Path 586" class="cls-3" d="M59.914,241.268l-.259.132a18.85,18.85,0,0,0-7.686,8.174l-.373.746-5.6-11.7.56-.084a23.643,23.643,0,0,1,3.509-.248,37.011,37.011,0,0,1,9.377,1.332l.254.071C59.763,240.2,59.84,240.733,59.914,241.268Z" transform="translate(-43.015 -222.489)"/>
        <path id="Path_587" data-name="Path 587" class="cls-2" d="M74.076,306.6l-.272.535a.515.515,0,0,1-.388.276h-.071a.515.515,0,0,1-.457-.295l-.118-.22.2-.272a.517.517,0,0,1,.569-.187Z" transform="translate(-64.792 -277.907)"/>
        <path id="Path_588" data-name="Path 588" class="cls-2" d="M76.634,307.945l.272-.535,8.6,2.679h.83c.03.216.056.394.076.526a.515.515,0,0,0,.509.442v.063H85.428a.5.5,0,0,1-.153-.022l-8.859-2.761h0l-.166-.121A.515.515,0,0,0,76.634,307.945Z" transform="translate(-67.622 -278.716)"/>
        <path id="Path_589" data-name="Path 589" class="cls-2" d="M59.246,309.512h.071l.166.121-1.431,1.957a.517.517,0,0,1-.416.213H56.485V320.7h-.037v-4.887a.515.515,0,0,0-.522-.515H55.45v-4.007a.517.517,0,0,1,.515-.515h1.408l1.306-1.781.108.228a.515.515,0,0,0,.459.295Z" transform="translate(-50.703 -280.001)"/>
        <path id="Path_590" data-name="Path 590" class="cls-2" d="M56.448,348.182v.515a.5.5,0,0,1-1,0V342.78h.476a.515.515,0,0,1,.515.515Z" transform="translate(-50.703 -307.488)"/>
        <path id="Path_591" data-name="Path 591" class="cls-2" d="M35.223,349.212H30.507A.517.517,0,0,1,30,348.7v-5.4a.517.517,0,0,1,.515-.515h4.233V348.7a.513.513,0,0,0,.5.515Zm-.515-5.4H31.024v4.371h3.694Z" transform="translate(-30 -307.488)"/>
        <rect id="Rectangle_180" data-name="Rectangle 180" class="cls-3" width="3.694" height="4.371" transform="translate(1.024 36.324)"/>
      </g>
    </g>
  </g>
</svg>
