<svg xmlns="http://www.w3.org/2000/svg" xmlns:xlink="http://www.w3.org/1999/xlink" viewBox="0 0 570.06 579.17"><defs><style>.cls-1{fill:none;}.cls-2{clip-path:url(#clip-path);}.cls-3{fill:#fff;}.cls-4{fill:#3a2823;}.cls-5{fill:#fac35b;}</style><clipPath id="clip-path"><circle class="cls-1" cx="285.03" cy="285.03" r="285.03"/></clipPath></defs><title>osaka</title><g id="Layer_2" data-name="Layer 2"><g id="Capa_1" data-name="Capa 1"><g class="cls-2"><circle class="cls-3" cx="285.03" cy="285.03" r="285.03"/><path class="cls-4" d="M504.66,140.05a4.19,4.19,0,0,1,1.42,4.63l-21.49,65.09a4.2,4.2,0,0,1-4,2.87H465.68l.7-3.32a4.18,4.18,0,0,0-4.1-5.06h15.3l17.27-52.32c-8.14,3.86-21.73,9.45-41.62,15.05-32,9-87.39,19.75-169.15,19.75S147,176,114.92,167C95,161.39,81.44,155.8,73.3,151.94l17.27,52.32h15.3a4.18,4.18,0,0,0-4.1,5.06l.7,3.32H87.54a4.2,4.2,0,0,1-4-2.87L62.08,144.68a4.19,4.19,0,0,1,6.25-4.84c.14.09,15.4,9.73,49.46,19.25,31.46,8.79,85.85,19.27,166.29,19.27,154.33,0,215.15-38.13,215.74-38.52A4.2,4.2,0,0,1,504.66,140.05Z"/><path class="cls-5" d="M494.85,151.94l-17.27,52.32h-387L73.3,151.94C81.44,155.8,95,161.39,114.92,167c32,9,87.39,19.75,169.16,19.75S421.19,176,453.23,167C473.12,161.39,486.71,155.8,494.85,151.94Z"/><path class="cls-4" d="M465.46,279a4.21,4.21,0,0,1,1,3.35l-5.06,34.13a4.19,4.19,0,0,1-4.14,3.57H409.68l-.33-8.38h44.26L457.42,286H408.34l-.33-8.38h54.27A4.22,4.22,0,0,1,465.46,279Z"/><path class="cls-4" d="M465.54,205.81a4.18,4.18,0,0,1,.84,3.51l-.7,3.32H102.47l-.7-3.32a4.18,4.18,0,0,1,4.1-5.06H462.28A4.2,4.2,0,0,1,465.54,205.81Z"/><path class="cls-4" d="M465.68,212.64l-4.35,20.69a4.19,4.19,0,0,1-4.1,3.33H406.4l-.17-4.36a4.2,4.2,0,0,0-4.19-4h51.79l3.29-15.63Z"/><polygon class="cls-5" points="457.42 285.95 453.61 311.69 409.35 311.69 408.34 285.95 457.42 285.95"/><polygon class="cls-5" points="457.12 212.64 453.83 228.27 402.04 228.27 366.65 228.27 312.72 228.27 255.43 228.27 201.5 228.27 166.11 228.27 114.32 228.27 111.03 212.64 457.12 212.64"/><path class="cls-4" d="M419.71,574.81a4.21,4.21,0,0,1-1.17,3.07,4.16,4.16,0,0,1-3,1.29h-57.3a4.18,4.18,0,0,1-4.19-4.29l6.27-254.81h4.3a4.19,4.19,0,0,0,4.19-4.05l-6.27,254.77h48.64l-10-254.66a4.19,4.19,0,0,0,4.18,3.94h4.36Z"/><path class="cls-4" d="M409.35,311.69l.33,8.38h-4.36a4.19,4.19,0,0,1-4.18-3.94l-1.35-34.24a4.18,4.18,0,0,1,4.19-4.32h4l.33,8.38Z"/><path class="cls-4" d="M406.4,236.66,408,277.57h-4a4.18,4.18,0,0,0-4.19,4.32L398,236.66Z"/><path class="cls-4" d="M406.23,232.3l.17,4.36H362.35l.11-4.3a4.19,4.19,0,0,1,4.19-4.09H402A4.2,4.2,0,0,1,406.23,232.3Z"/><path class="cls-4" d="M370.74,236.66l-1.11,45.12a4.18,4.18,0,0,0-4.19-4.21h-4.09l1-40.91Z"/><path class="cls-4" d="M369.63,281.78,368.79,316a4.19,4.19,0,0,1-4.19,4.05h-4.3l.21-8.38.63-25.74.21-8.38h4.09a4.18,4.18,0,0,1,4.19,4.21Z"/><path class="cls-4" d="M312.72,228.27h53.93a4.19,4.19,0,0,0-4.19,4.09l-.11,4.3H316.91v-4.19A4.19,4.19,0,0,0,312.72,228.27Z"/><path class="cls-4" d="M361.35,277.57l-.21,8.38H312.72a4.19,4.19,0,0,0,4.19-4.19v-4.19Z"/><polygon class="cls-5" points="361.14 285.95 360.51 311.69 207.64 311.69 207.01 285.95 255.43 285.95 312.72 285.95 361.14 285.95"/><polygon class="cls-4" points="360.51 311.69 360.3 320.07 207.85 320.07 207.64 311.69 360.51 311.69"/><path class="cls-4" d="M316.91,277.57v4.19a4.19,4.19,0,0,1-4.19,4.19H255.43a4.19,4.19,0,0,1-4.19-4.19v-4.19h65.67Z"/><rect class="cls-4" x="308.53" y="236.66" width="8.38" height="40.91"/><path class="cls-4" d="M316.91,232.47v4.19H251.24v-4.19a4.19,4.19,0,0,1,4.19-4.2h57.29A4.19,4.19,0,0,1,316.91,232.47Z"/><rect class="cls-5" x="259.62" y="236.66" width="48.91" height="40.91"/><rect class="cls-4" x="251.24" y="236.66" width="8.38" height="40.91"/><path class="cls-4" d="M201.5,228.27h53.93a4.19,4.19,0,0,0-4.19,4.2v4.19H205.8l-.11-4.3A4.19,4.19,0,0,0,201.5,228.27Z"/><path class="cls-4" d="M255.43,286H207l-.21-8.38h44.44v4.19A4.19,4.19,0,0,0,255.43,286Z"/><path class="cls-4" d="M214.12,574.88a4.18,4.18,0,0,1-4.19,4.29h-57.3a4.16,4.16,0,0,1-3-1.29,4.21,4.21,0,0,1-1.17-3.07l10-254.74h4.36a4.19,4.19,0,0,0,4.18-3.94L157,570.79h48.64L199.36,316a4.19,4.19,0,0,0,4.19,4.05h4.3Z"/><path class="cls-4" d="M207.64,311.69l.21,8.38h-4.3a4.19,4.19,0,0,1-4.19-4.05v0l-.84-34.13v-.08a4.26,4.26,0,0,1,1.19-3,4.18,4.18,0,0,1,3-1.26h4.09L207,286Z"/><path class="cls-4" d="M205.8,236.66l1,40.91h-4.09a4.18,4.18,0,0,0-3,1.26,4.26,4.26,0,0,0-1.19,3l-1.11-45.12Z"/><path class="cls-4" d="M205.69,232.36l.11,4.3H161.75l.17-4.36a4.2,4.2,0,0,1,4.19-4H201.5A4.19,4.19,0,0,1,205.69,232.36Z"/><path class="cls-4" d="M170.14,236.66l-1.78,45.23a4.18,4.18,0,0,0-4.19-4.32h-4l1.61-40.91Z"/><path class="cls-4" d="M168.36,281.89,167,316.13a4.19,4.19,0,0,1-4.18,3.94h-4.36l.33-8.38,1-25.74.33-8.38h4a4.18,4.18,0,0,1,4.19,4.32Z"/><path class="cls-4" d="M114.32,228.27h51.79a4.2,4.2,0,0,0-4.19,4l-.17,4.36H110.92a4.19,4.19,0,0,1-4.1-3.33l-4.35-20.69H111Z"/><path class="cls-4" d="M160.14,277.57l-.33,8.38H110.73l3.81,25.74H158.8l-.33,8.38H110.92a4.19,4.19,0,0,1-4.14-3.57l-5.06-34.13a4.18,4.18,0,0,1,4.15-4.8Z"/><polygon class="cls-5" points="159.81 285.95 158.8 311.69 114.54 311.69 110.73 285.95 159.81 285.95"/></g></g></g></svg>